<svg width="24" height="24" viewBox="0 0 24 24" fill="none" xmlns="http://www.w3.org/2000/svg">
<rect x="0.5" y="0.5" width="23" height="23" rx="11.5" fill="white"/>
<rect x="0.5" y="0.5" width="23" height="23" rx="11.5" stroke="#E5E8EB"/>
<path d="M11.9974 14.666L8.66406 11.3327L9.5974 10.366L11.3307 12.0993V6.66602H12.6641V12.0993L14.3974 10.366L15.3307 11.3327L11.9974 14.666ZM7.9974 17.3327C7.63073 17.3327 7.31684 17.2021 7.05573 16.941C6.79462 16.6799 6.66406 16.366 6.66406 15.9993V13.9993H7.9974V15.9993H15.9974V13.9993H17.3307V15.9993C17.3307 16.366 17.2002 16.6799 16.9391 16.941C16.678 17.2021 16.3641 17.3327 15.9974 17.3327H7.9974Z" fill="black"/>
</svg>
