<svg width="20" height="20" viewBox="0 0 20 20" fill="none" xmlns="http://www.w3.org/2000/svg">
<g id="favorite_24dp_5F6368_FILL1_wght400_GRAD0_opsz24 (1)">
<path id="Vector" d="M9.68514 15.9839C9.537 15.9839 9.3862 15.9575 9.23276 15.9046C9.07932 15.8517 8.9444 15.767 8.828 15.6506L7.73276 14.6506C6.61107 13.6242 5.59784 12.6056 4.69308 11.5951C3.78832 10.5845 3.33594 9.47071 3.33594 8.25378C3.33594 7.25907 3.66927 6.42839 4.33594 5.76172C5.0026 5.09505 5.83329 4.76172 6.828 4.76172C7.38885 4.76172 7.91795 4.88077 8.4153 5.11886C8.91266 5.35696 9.33594 5.68235 9.68514 6.09505C10.0343 5.68235 10.4576 5.35696 10.955 5.11886C11.4523 4.88077 11.9814 4.76172 12.5423 4.76172C13.537 4.76172 14.3677 5.09505 15.0343 5.76172C15.701 6.42839 16.0343 7.25907 16.0343 8.25378C16.0343 9.47071 15.5846 10.5871 14.6851 11.603C13.7857 12.6189 12.7645 13.64 11.6217 14.6665L10.5423 15.6506C10.4259 15.767 10.291 15.8517 10.1375 15.9046C9.98409 15.9575 9.83329 15.9839 9.68514 15.9839Z" fill="white"/>
</g>
</svg>
