<svg width="25" height="24" viewBox="0 0 25 24" fill="none" xmlns="http://www.w3.org/2000/svg">
<g id="ic/20/arrow_right" opacity="0.7">
<g id="Group 515">
<path id="Union" fill-rule="evenodd" clip-rule="evenodd" d="M16.3075 9.00052C17.3014 9.00052 18.1072 8.1946 18.1072 7.20046C18.1072 6.20631 17.3014 5.40039 16.3075 5.40039C15.3136 5.40039 14.5078 6.20631 14.5078 7.20046C14.5078 7.29276 14.5148 7.38344 14.5282 7.472L9.31604 10.2791C8.98627 9.86614 8.47856 9.60156 7.90906 9.60156C6.91512 9.60156 6.10938 10.4075 6.10938 11.4016C6.10938 12.3958 6.91512 13.2017 7.90906 13.2017C8.47944 13.2017 8.98786 12.9363 9.31758 12.5222L14.5283 15.3286C14.5148 15.4174 14.5078 15.5083 14.5078 15.6008C14.5078 16.595 15.3136 17.4009 16.3075 17.4009C17.3014 17.4009 18.1072 16.595 18.1072 15.6008C18.1072 14.6067 17.3014 13.8008 16.3075 13.8008C15.8403 13.8008 15.4147 13.9788 15.0948 14.2708L9.7649 11.4002L15.0942 8.52999C15.4142 8.82226 15.84 9.00052 16.3075 9.00052Z" fill="white"/>
</g>
</g>
</svg>
