<svg width="24" height="24" viewBox="0 0 24 24" fill="none" xmlns="http://www.w3.org/2000/svg">
<rect x="0.5" y="0.5" width="23" height="23" rx="11.5" fill="white"/>
<rect x="0.5" y="0.5" width="23" height="23" rx="11.5" stroke="#E5E8EB"/>
<path fill-rule="evenodd" clip-rule="evenodd" d="M14.4052 9.80951C14.6981 10.1024 14.6981 10.5773 14.4052 10.8702L10.8697 14.4057C10.5768 14.6986 10.1019 14.6986 9.80902 14.4057C9.51613 14.1128 9.51613 13.6379 9.80902 13.345L13.3446 9.80951C13.6374 9.51662 14.1123 9.51662 14.4052 9.80951Z" fill="black"/>
<path fill-rule="evenodd" clip-rule="evenodd" d="M11.364 15.6066L12.7782 14.1924L13.8388 15.2531L12.4246 16.6673C11.0578 18.0341 8.8417 18.0341 7.47487 16.6673C6.10803 15.3004 6.10803 13.0843 7.47487 11.7175L8.88908 10.3033L9.94974 11.364L8.53553 12.7782C7.75448 13.5592 7.75448 14.8256 8.53553 15.6066C9.31658 16.3877 10.5829 16.3877 11.364 15.6066ZM11.0104 10.3033L12.7782 8.53553C13.5592 7.75449 14.8255 7.75449 15.6066 8.53553C16.3876 9.31658 16.3876 10.5829 15.6066 11.364L13.8388 13.1317L14.8995 14.1924L16.6673 12.4246C18.0341 11.0578 18.0341 8.84171 16.6673 7.47487C15.3004 6.10804 13.0843 6.10804 11.7175 7.47487L9.94974 9.24265L11.0104 10.3033Z" fill="black"/>
</svg>
