<svg width="32" height="32" viewBox="0 0 32 32" fill="none" xmlns="http://www.w3.org/2000/svg">
<path fill-rule="evenodd" clip-rule="evenodd" d="M7.46967 7.46978C7.76256 7.17689 8.23744 7.17689 8.53033 7.46978L24.5303 23.4698C24.8232 23.7627 24.8232 24.2376 24.5303 24.5304C24.2374 24.8233 23.7626 24.8233 23.4697 24.5304L7.46967 8.53044C7.17678 8.23755 7.17678 7.76268 7.46967 7.46978Z" fill="black"/>
<path fill-rule="evenodd" clip-rule="evenodd" d="M24.5303 7.46978C24.2374 7.17689 23.7626 7.17689 23.4697 7.46978L7.46967 23.4698C7.17678 23.7627 7.17678 24.2376 7.46967 24.5304C7.76256 24.8233 8.23744 24.8233 8.53033 24.5304L24.5303 8.53044C24.8232 8.23755 24.8232 7.76268 24.5303 7.46978Z" fill="black"/>
</svg>
