<svg width="33" height="32" viewBox="0 0 33 32" fill="none" xmlns="http://www.w3.org/2000/svg">
<g id="ic/16/info">
<g id="Group 550">
<path id="Ellipse 75" d="M26.5 16C26.5 21.5228 22.0228 26 16.5 26C10.9772 26 6.5 21.5228 6.5 16C6.5 10.4772 10.9772 6 16.5 6C22.0228 6 26.5 10.4772 26.5 16Z" fill="#4E5968"/>
<g id="Group 8178">
<path id="Ellipse 76" d="M17.9293 11.7137C17.9293 12.5026 17.2898 13.1422 16.5008 13.1422C15.7118 13.1422 15.0723 12.5026 15.0723 11.7137C15.0723 10.9247 15.7118 10.2852 16.5008 10.2852C17.2898 10.2852 17.9293 10.9247 17.9293 11.7137Z" fill="white"/>
<path id="Vector 30 (Stroke)" fill-rule="evenodd" clip-rule="evenodd" d="M16.5104 14.6641C17.1024 14.6641 17.5823 15.1118 17.5823 15.6641V20.9974C17.5823 21.5497 17.1024 21.9974 16.5104 21.9974C15.9184 21.9974 15.4385 21.5497 15.4385 20.9974V15.6641C15.4385 15.1118 15.9184 14.6641 16.5104 14.6641Z" fill="white"/>
</g>
</g>
</g>
</svg>
