<svg width="22" height="22" viewBox="0 0 22 22" fill="none" xmlns="http://www.w3.org/2000/svg">
<g id="Frame" clip-path="url(#clip0_4366_277291)">
<g id="Group">
<path id="Vector" d="M21.2144 10.9977C21.2144 16.7499 16.6175 21.3977 10.9282 21.3977C5.28444 21.3977 0.6875 16.7039 0.6875 10.9977C0.6875 5.24544 5.28444 0.597656 10.9737 0.597656C16.6175 0.597656 21.2144 5.24544 21.2144 10.9977Z" fill="white"/>
<path id="Vector_2" d="M10.9756 20.8462C16.3918 20.8462 20.7612 16.4285 20.7612 10.9524C20.7612 5.47629 16.3463 1.05859 10.9756 1.05859C5.55941 1.05859 1.14453 5.47629 1.14453 10.9524C1.14453 16.4285 5.55941 20.8462 10.9756 20.8462Z" fill="#007CC0"/>
<g id="Mask Group">
<mask id="mask0_4366_277291" style="mask-type:alpha" maskUnits="userSpaceOnUse" x="1" y="1" width="20" height="20">
<path id="Vector_3" d="M10.9756 20.8462C16.3918 20.8462 20.7612 16.4285 20.7612 10.9524C20.7612 5.47629 16.3463 1.05859 10.9756 1.05859C5.55941 1.05859 1.14453 5.47629 1.14453 10.9524C1.14453 16.4285 5.55941 20.8462 10.9756 20.8462Z" fill="#007CC0"/>
</mask>
<g mask="url(#mask0_4366_277291)">
<g id="Group_2">
<g id="Group_3">
<g id="Group_4">
<path id="Vector_4" d="M10.9749 15.7387C15.2988 15.7387 18.9854 16.9351 20.5329 18.6838C21.0791 17.4413 21.3521 16.1068 21.3521 14.6803C21.3521 9.02008 16.7097 4.41831 10.9749 4.41831C5.24011 4.37229 0.597656 8.97406 0.597656 14.6803C0.597656 16.1068 0.870742 17.4413 1.41691 18.6838C3.00991 16.9351 6.69656 15.7387 10.9749 15.7387Z" fill="#007CC0"/>
<path id="Vector_5" d="M10.9749 15.7392C15.2532 15.7392 18.9399 16.9356 20.5329 18.6383C21.0791 17.3958 21.3521 16.0613 21.3521 14.6808C21.3521 9.06661 16.7097 4.46484 10.9749 4.46484C5.24011 4.46484 0.597656 9.06661 0.597656 14.6808C0.597656 16.1073 0.870742 17.4418 1.41691 18.6383C3.00991 16.9356 6.69656 15.7392 10.9749 15.7392Z" fill="#007EC1"/>
<path id="Vector_6" d="M10.9763 15.7361C15.2546 15.7361 18.9413 16.9326 20.4887 18.6352C21.0349 17.4388 21.308 16.1043 21.308 14.6777C21.308 9.10958 16.6655 4.50781 10.9763 4.50781C5.28698 4.50781 0.644531 9.06356 0.644531 14.6777C0.644531 16.0583 0.917617 17.3928 1.46379 18.6352C3.05679 16.9326 6.69792 15.7361 10.9763 15.7361Z" fill="#0080C3"/>
<path id="Vector_7" d="M10.9763 15.7847C15.2546 15.7847 18.8957 16.9812 20.4887 18.6378C21.0349 17.4414 21.308 16.1068 21.308 14.7263C21.308 9.15817 16.6655 4.64844 10.9763 4.64844C5.28698 4.64844 0.644531 9.20419 0.644531 14.7263C0.644531 16.1068 0.917617 17.4414 1.46379 18.6378C3.05679 16.9352 6.69792 15.7847 10.9763 15.7847Z" fill="#0082C4"/>
<path id="Vector_8" d="M10.9737 15.7864C15.2521 15.7864 18.8932 16.9369 20.4407 18.6395C20.9868 17.4431 21.2599 16.1546 21.2599 14.774C21.2599 9.25192 16.663 4.74219 10.9737 4.74219C5.32995 4.74219 0.6875 9.25192 0.6875 14.728C0.6875 16.1086 0.960585 17.3971 1.50676 18.5935C3.05424 16.9369 6.74089 15.7864 10.9737 15.7864Z" fill="#0083C5"/>
<path id="Vector_9" d="M10.9764 15.7873C15.2093 15.7873 18.8504 16.9377 20.4434 18.5944C20.9896 17.3979 21.2626 16.1094 21.2626 14.7289C21.2626 9.25278 16.6657 4.78906 11.0219 4.78906C5.37819 4.78906 0.78125 9.2988 0.78125 14.7289C0.78125 16.1094 1.05434 17.3979 1.60051 18.5944C3.10248 16.9377 6.74361 15.7873 10.9764 15.7873Z" fill="#0085C8"/>
<path id="Vector_10" d="M10.9751 15.7851C15.2079 15.7851 18.849 16.9355 20.3965 18.5922C20.8972 17.4417 21.2158 16.1072 21.2158 14.7727C21.2158 9.34262 16.6188 4.87891 10.9751 4.87891C5.33131 4.87891 0.734375 9.34262 0.734375 14.7727C0.734375 16.1072 1.00746 17.3957 1.55363 18.5922C3.10111 16.9355 6.74225 15.7851 10.9751 15.7851Z" fill="#0088CA"/>
<path id="Vector_11" d="M10.9778 15.8298C15.2106 15.8298 18.8062 16.9802 20.3992 18.5908C20.8999 17.4404 21.2185 16.1519 21.2185 14.8174C21.2185 9.43333 16.6671 5.01562 11.0233 5.01562C5.37955 5.01562 0.828125 9.47934 0.828125 14.8174C0.828125 16.1519 1.10121 17.4404 1.64738 18.5908C3.14935 16.9342 6.74497 15.8298 10.9778 15.8298Z" fill="#0089CB"/>
<path id="Vector_12" d="M10.9764 15.8306C15.2093 15.8306 18.8049 16.9811 20.3524 18.5917C20.853 17.4413 21.1716 16.1528 21.1716 14.8183C21.1716 9.4802 16.6202 5.0625 10.9764 5.0625C5.37819 5.0625 0.78125 9.4802 0.78125 14.8183C0.78125 16.1528 1.05434 17.3952 1.60051 18.5457C3.14799 16.9351 6.78913 15.8306 10.9764 15.8306Z" fill="#008BCD"/>
<path id="Vector_13" d="M10.9739 15.8324C15.1612 15.8324 18.8023 16.9368 20.3043 18.5474C20.805 17.397 21.1236 16.1545 21.1236 14.82C21.1236 9.52793 16.5721 5.15625 10.9739 5.15625C5.37564 5.15625 0.824219 9.57395 0.824219 14.82C0.824219 16.1545 1.0973 17.397 1.64347 18.5474C3.19096 16.9368 6.78658 15.8324 10.9739 15.8324Z" fill="#008DCF"/>
<path id="Vector_14" d="M10.9753 15.8302C15.1626 15.8302 18.7582 16.9346 20.3057 18.5452C20.8063 17.3948 21.1249 16.1523 21.1249 14.8638C21.1249 9.61778 16.5735 5.24609 10.9753 5.24609C5.377 5.24609 0.871094 9.61778 0.871094 14.8638C0.871094 16.1523 1.14418 17.4408 1.69035 18.5452C3.19232 16.9346 6.78794 15.8302 10.9753 15.8302Z" fill="#008FD1"/>
<path id="Vector_15" d="M10.9753 15.8752C15.1626 15.8752 18.7582 16.9796 20.2602 18.5442C20.7608 17.4398 21.0794 16.1973 21.0794 14.9088C21.0794 9.70884 16.5735 5.38317 10.9753 5.38317C5.42252 5.33715 0.871094 9.70884 0.871094 14.8628C0.871094 16.1513 1.14418 17.3938 1.69035 18.4982C3.19232 16.9336 6.78794 15.8752 10.9753 15.8752Z" fill="#0090D3"/>
<path id="Vector_16" d="M10.9741 15.8757C15.1614 15.8757 18.7115 16.9801 20.259 18.5447C20.7596 17.4403 21.0782 16.1978 21.0782 14.9093C21.0782 9.75535 16.5723 5.42969 11.0196 5.42969C5.46685 5.42969 0.960938 9.75535 0.960938 14.9093C0.960938 16.1978 1.23402 17.4403 1.78019 18.5447C3.23665 16.9341 6.78676 15.8757 10.9741 15.8757Z" fill="#0093D5"/>
<path id="Vector_17" d="M10.9753 15.8774C15.117 15.8774 18.7127 16.9818 20.2146 18.5004C20.7153 17.396 20.9884 16.1995 20.9884 14.911C20.9884 9.80308 16.4825 5.52344 10.9297 5.52344C5.377 5.52344 0.871094 9.8491 0.871094 14.911C0.871094 16.1995 1.14418 17.396 1.64484 18.5004C3.23783 16.9818 6.83346 15.8774 10.9753 15.8774Z" fill="#0094D6"/>
<path id="Vector_18" d="M10.9741 15.8791C15.1159 15.8791 18.666 16.9375 20.2135 18.5021C20.7141 17.3977 20.9872 16.2013 20.9872 14.9588C20.9872 9.89683 16.4813 5.61719 10.9741 5.61719C5.46685 5.61719 0.960938 9.89683 0.960938 14.9588C0.960938 16.2013 1.23402 17.4437 1.73468 18.5021C3.28216 16.9836 6.83227 15.8791 10.9741 15.8791Z" fill="#0097D7"/>
<path id="Vector_19" d="M10.9727 15.8761C15.1145 15.8761 18.6646 16.9345 20.1666 18.4531C20.6672 17.3487 20.9403 16.1982 20.9403 14.9097C20.9403 9.89378 16.4799 5.66016 10.9272 5.66016C5.41997 5.66016 0.914062 9.9398 0.914062 14.9097C0.914062 16.1522 1.18715 17.3487 1.6878 18.4531C3.2808 16.9805 6.83091 15.8761 10.9727 15.8761Z" fill="#0098D8"/>
<path id="Vector_20" d="M10.9754 15.9208C15.1172 15.9208 18.6218 16.9792 20.1693 18.4978C20.67 17.4394 20.943 16.2429 20.943 15.0004C20.943 10.0305 16.4826 5.79688 10.9754 5.79688C5.46821 5.79688 1.00781 10.0305 1.00781 15.0004C1.00781 16.2429 1.2809 17.4394 1.78155 18.4978C3.28352 16.9792 6.83363 15.9208 10.9754 15.9208Z" fill="#009BD9"/>
<path id="Vector_21" d="M10.9768 15.9225C15.0731 15.9225 18.6232 16.9809 20.1251 18.4535C20.6258 17.395 20.8989 16.1986 20.8989 15.0021C20.8989 10.0782 16.4385 5.89062 10.9768 5.89062C5.46957 5.89062 1.05469 10.1243 1.05469 15.0021C1.05469 16.2446 1.32777 17.395 1.82843 18.4535C3.3304 16.9809 6.88051 15.9225 10.9768 15.9225Z" fill="#009DDA"/>
<path id="Vector_22" d="M10.9768 15.9233C15.0731 15.9233 18.6232 16.9357 20.1251 18.4543C20.6258 17.3959 20.8989 16.2455 20.8989 15.003C20.8989 10.1251 16.4385 5.9375 10.9768 5.9375C5.51508 5.9375 1.05469 10.1711 1.05469 15.003C1.05469 16.1994 1.32777 17.3959 1.82843 18.4543C3.3304 16.9817 6.88051 15.9233 10.9768 15.9233Z" fill="#00A0DA"/>
<path id="Vector_23" d="M10.9742 15.9251C15.0705 15.9251 18.5751 16.9374 20.0771 18.41C20.5777 17.3516 20.8508 16.2012 20.8508 15.0047C20.8508 10.1728 16.436 6.03125 10.9742 6.03125C5.51254 6.03125 1.09766 10.2189 1.09766 15.0047C1.09766 16.2012 1.37074 17.3516 1.8714 18.41C3.37337 16.9835 6.87796 15.9251 10.9742 15.9251Z" fill="#00A2DB"/>
<path id="Vector_24" d="M10.9742 15.9689C15.0705 15.9689 18.5751 16.9813 20.0771 18.4538C20.5777 17.4414 20.8508 16.291 20.8508 15.0945C20.8053 10.2627 16.3904 6.12109 10.9742 6.12109C5.51254 6.12109 1.09766 10.2627 1.09766 15.0485C1.09766 16.245 1.37074 17.3954 1.8714 18.4078C3.37337 16.9813 6.87796 15.9689 10.9742 15.9689Z" fill="#00A4DC"/>
<path id="Vector_25" d="M10.9756 15.9676C15.0264 15.9676 18.531 16.9799 20.0329 18.4065C20.5336 17.3941 20.8067 16.2437 20.8067 15.0932C20.8067 10.3534 16.3918 6.25781 10.9756 6.25781C5.55941 6.25781 1.14453 10.3994 1.14453 15.0932C1.14453 16.2897 1.41762 17.3941 1.91827 18.4065C3.42024 16.9799 6.87932 15.9676 10.9756 15.9676Z" fill="#00A6DC"/>
<path id="Vector_26" d="M10.9756 15.9684C15.0264 15.9684 18.531 16.9808 19.9874 18.4073C20.4881 17.395 20.7612 16.2905 20.7612 15.0941C20.7612 10.4003 16.3918 6.30469 10.9301 6.30469C5.5139 6.30469 1.14453 10.4003 1.14453 15.0941C1.14453 16.2445 1.41762 17.395 1.91827 18.4073C3.42024 16.9808 6.92484 15.9684 10.9756 15.9684Z" fill="#00A8DD"/>
<path id="Vector_27" d="M10.9731 15.9701C15.0238 15.9701 18.4829 16.9365 19.9849 18.363C20.4855 17.3507 20.7586 16.2462 20.7586 15.0958C20.7586 10.448 16.3893 6.39844 10.9731 6.39844C5.55687 6.39844 1.1875 10.494 1.1875 15.0958C1.1875 16.2462 1.46059 17.3507 1.96124 18.363C3.4177 16.9825 6.92229 15.9701 10.9731 15.9701Z" fill="#00A9DE"/>
<path id="Vector_28" d="M10.9744 16.0139C15.0252 16.0139 18.4843 16.9803 19.9407 18.3608C20.4414 17.3485 20.7145 16.2901 20.7145 15.1396C20.7145 10.5378 16.3451 6.48828 10.9744 6.48828C5.60374 6.48828 1.23438 10.5378 1.23438 15.1396C1.23438 16.2901 1.50746 17.3945 2.00812 18.3608C3.46457 16.9803 6.92365 16.0139 10.9744 16.0139Z" fill="#00ABDF"/>
<path id="Vector_29" d="M10.9744 16.0157C14.9797 16.0157 18.4388 16.982 19.9407 18.3626C20.4414 17.3962 20.7145 16.2918 20.7145 15.1413C20.7145 10.5856 16.3451 6.58203 10.9744 6.58203C5.60374 6.58203 1.23438 10.5856 1.23438 15.1413C1.23438 16.2918 1.50746 17.3502 2.00812 18.3626C3.46457 16.982 6.92365 16.0157 10.9744 16.0157Z" fill="#00ADE0"/>
<path id="Vector_30" d="M10.9758 16.0126C14.981 16.0126 18.4401 16.979 19.8966 18.3135C20.3972 17.3471 20.6703 16.2887 20.6703 15.1383C20.6703 10.6285 16.3465 6.625 10.9758 6.625C5.6051 6.67102 1.28125 10.6746 1.28125 15.1843C1.28125 16.2887 1.55434 17.3931 2.05499 18.3595C3.51145 16.979 6.92501 16.0126 10.9758 16.0126Z" fill="#00AFE1"/>
<path id="Vector_31" d="M10.9758 16.0152C14.981 16.0152 18.4401 16.9816 19.8966 18.3161C20.3972 17.3497 20.6703 16.2913 20.6703 15.1869C20.6703 10.7231 16.3465 6.76562 10.9758 6.76562C5.6051 6.76563 1.28125 10.7231 1.28125 15.1869C1.28125 16.2913 1.55434 17.3497 2.05499 18.3161C3.51145 16.9816 6.97053 16.0152 10.9758 16.0152Z" fill="#00B0E2"/>
<path id="Vector_32" d="M10.9771 16.0621C14.9824 16.0621 18.396 16.9824 19.8524 18.3169C20.3531 17.3506 20.6262 16.2921 20.6262 15.1877C20.6262 10.77 16.3023 6.8125 10.9771 6.8125C5.65198 6.8125 1.32812 10.77 1.32812 15.1877C1.32812 16.2921 1.60121 17.3506 2.10187 18.3169C3.55832 16.9824 6.97189 16.0621 10.9771 16.0621Z" fill="#09B2E3"/>
<path id="Vector_33" d="M10.976 16.0607C14.9812 16.0607 18.3948 16.9811 19.8512 18.3156C20.3519 17.3952 20.625 16.3368 20.625 15.2324C20.625 10.8607 16.3011 6.94922 11.0215 6.94922C5.69631 6.94922 1.41797 10.9067 1.41797 15.2324C1.41797 16.3368 1.69105 17.3492 2.19171 18.3156C3.55714 16.9811 6.9707 16.0607 10.976 16.0607Z" fill="#15B4E4"/>
<path id="Vector_34" d="M10.9746 16.0616C14.9343 16.0616 18.3479 16.9819 19.8044 18.2704C20.305 17.3501 20.5781 16.2917 20.5781 15.2333C20.5781 10.9076 16.2998 6.99609 10.9746 6.99609C5.69494 6.99609 1.37109 10.9076 1.37109 15.2333C1.37109 16.2917 1.64418 17.3501 2.14484 18.2704C3.55578 16.9819 6.96934 16.0616 10.9746 16.0616Z" fill="#22B6E6"/>
<path id="Vector_35" d="M10.9734 16.0602C14.9331 16.0602 18.3467 16.9806 19.8032 18.2691C20.3038 17.3487 20.5769 16.3364 20.5769 15.2779C20.5769 10.9983 16.2986 7.13281 11.0189 7.13281C5.73927 7.13281 1.46094 11.0443 1.46094 15.2779C1.46094 16.3364 1.73402 17.3487 2.23468 18.2691C3.60011 16.9806 7.01367 16.0602 10.9734 16.0602Z" fill="#30B8E7"/>
<path id="Vector_36" d="M10.976 16.108C14.9357 16.108 18.3493 17.0283 19.7602 18.3168C20.2609 17.3965 20.5339 16.3841 20.5339 15.3257C20.5339 11.0921 16.2556 7.22656 10.976 7.22656C5.6963 7.22656 1.41797 11.0921 1.41797 15.3257C1.41797 16.3841 1.69105 17.3965 2.19171 18.3168C3.60265 16.9823 7.01622 16.108 10.976 16.108Z" fill="#43BBE8"/>
<path id="Vector_37" d="M10.976 16.108C14.9357 16.108 18.3037 16.9823 19.7602 18.2708C20.2609 17.3505 20.5339 16.3381 20.5339 15.2797C20.5339 11.046 16.2556 7.22656 10.976 7.22656C5.6963 7.22656 1.41797 11.092 1.41797 15.2797C1.41797 16.3381 1.69105 17.3505 2.19171 18.2708C3.60265 17.0283 7.01622 16.108 10.976 16.108Z" fill="#4FBDEA"/>
<path id="Vector_38" d="M10.976 16.1527C14.9357 16.1527 18.3037 17.027 19.7602 18.3155C20.2609 17.3951 20.5339 16.4288 20.5339 15.3704C20.5339 11.1827 16.2556 7.36328 11.0215 7.36328C5.69631 7.36328 1.41797 11.1827 1.41797 15.3704C1.41797 16.4288 1.69105 17.4412 2.19171 18.3155C3.60265 17.027 7.01622 16.1527 10.976 16.1527Z" fill="#5AC0EC"/>
<path id="Vector_39" d="M10.9748 16.1535C14.9345 16.1535 18.3026 17.0279 19.759 18.3164C20.2597 17.396 20.5328 16.4296 20.5328 15.3712C20.5328 11.2296 16.2544 7.41016 11.0203 7.41016C5.78615 7.41016 1.50781 11.2296 1.50781 15.3712C1.50781 16.4296 1.7809 17.396 2.28155 18.3164C3.64698 17.0739 7.01503 16.1535 10.9748 16.1535Z" fill="#64C3EE"/>
<path id="Vector_40" d="M10.9734 16.1973C14.8876 16.1973 18.3012 17.0717 19.7121 18.3142C20.2128 17.4398 20.4859 16.4274 20.4859 15.415C20.4859 11.2735 16.2531 7.5 10.9734 7.5C5.69376 7.5 1.46094 11.2735 1.46094 15.415C1.46094 16.4274 1.73402 17.4398 2.18917 18.3142C3.64562 17.0717 7.01367 16.1973 10.9734 16.1973Z" fill="#6DC6EF"/>
<path id="Vector_41" d="M10.972 16.2451C14.8863 16.2451 18.2543 17.1194 19.7108 18.3619C20.2114 17.4876 20.439 16.4752 20.439 15.4628C20.439 11.3672 16.2062 7.59375 10.9265 7.59375C5.6924 7.59375 1.41406 11.3672 1.41406 15.4628C1.41406 16.4752 1.68715 17.4876 2.14229 18.3619C3.64426 17.0734 7.01231 16.2451 10.972 16.2451Z" fill="#75C9F1"/>
<path id="Vector_42" d="M10.9748 16.2468C14.889 16.2468 18.257 17.1211 19.7135 18.3636C20.2142 17.4893 20.4417 16.5229 20.4417 15.5105C20.4417 11.4149 16.2089 7.6875 10.9748 7.6875C5.74064 7.6875 1.50781 11.4149 1.50781 15.5105C1.50781 16.5229 1.7809 17.4893 2.23604 18.3636C3.64698 17.1211 7.01503 16.2468 10.9748 16.2468Z" fill="#7ECBF1"/>
<path id="Vector_43" d="M10.9748 16.2898C14.889 16.2898 18.257 17.1641 19.668 18.3606C20.1686 17.4862 20.3962 16.5199 20.3962 15.5075C20.3962 11.4579 16.1634 7.73047 10.9293 7.73047C5.74064 7.73047 1.50781 11.4579 1.50781 15.5075C1.50781 16.5199 1.7809 17.4862 2.23604 18.3606C3.6925 17.1181 7.01503 16.2898 10.9748 16.2898Z" fill="#85CDF1"/>
<path id="Vector_44" d="M10.9748 16.2906C14.889 16.2906 18.257 17.165 19.668 18.3614C20.1686 17.4871 20.3962 16.5207 20.3962 15.5083C20.3962 11.5048 16.1634 7.77734 10.9293 7.77734C5.74064 7.82336 1.50781 11.5048 1.50781 15.5543C1.50781 16.5667 1.7809 17.5331 2.23604 18.4074C3.6925 17.165 7.06055 16.2906 10.9748 16.2906Z" fill="#8CD0F1"/>
<path id="Vector_45" d="M10.9748 16.3353C14.889 16.3353 18.257 17.1636 19.668 18.4061C20.1686 17.5318 20.3962 16.6114 20.3962 15.599C20.3962 11.5955 16.1634 7.91406 10.9748 7.91406C5.74063 7.91406 1.50781 11.5955 1.50781 15.553C1.50781 16.5654 1.7809 17.4857 2.23604 18.3601C3.6925 17.1636 7.06055 16.3353 10.9748 16.3353Z" fill="#93D2F1"/>
<path id="Vector_46" d="M10.9748 16.3362C14.889 16.3362 18.2115 17.1645 19.668 18.3609C20.1686 17.4866 20.3962 16.5662 20.3962 15.5539C20.3962 11.5963 16.1634 7.96094 10.9748 7.96094C5.74063 8.00696 1.50781 11.6424 1.50781 15.5999C1.50781 16.6123 1.7809 17.5326 2.23604 18.407C3.6925 17.2105 7.06055 16.3362 10.9748 16.3362Z" fill="#99D5F1"/>
<path id="Vector_47" d="M10.9748 16.3847C14.889 16.3847 18.2115 17.2131 19.6225 18.4095C20.1231 17.5812 20.3507 16.6148 20.3507 15.6485C20.3507 11.6909 16.1179 8.10156 10.9293 8.10156C5.74064 8.10156 1.50781 11.737 1.50781 15.6485C1.50781 16.6148 1.7809 17.5812 2.23604 18.4095C3.6925 17.2131 7.06055 16.3847 10.9748 16.3847Z" fill="#9ED7F1"/>
<path id="Vector_48" d="M10.9748 16.3817C14.8435 16.3817 18.2115 17.21 19.6225 18.4065C20.1231 17.5782 20.3507 16.6118 20.3507 15.6454C20.3507 11.7339 16.1634 8.14453 10.9293 8.14453C5.74064 8.14453 1.50781 11.7339 1.50781 15.6454C1.50781 16.6118 1.7809 17.5782 2.23604 18.4065C3.73801 17.21 7.06055 16.3817 10.9748 16.3817Z" fill="#A5D9F1"/>
<path id="Vector_49" d="M10.9736 16.4303C14.8423 16.4303 18.2103 17.2586 19.6213 18.4551C20.0764 17.6268 20.3495 16.7064 20.3495 15.74C20.3495 11.8745 16.1622 8.28516 10.9736 8.28516C5.78496 8.28516 1.59766 11.8745 1.59766 15.74C1.59766 16.7064 1.87074 17.6268 2.32588 18.4551C3.73682 17.2586 7.05936 16.4303 10.9736 16.4303Z" fill="#ABDBF1"/>
<path id="Vector_50" d="M10.9775 16.4733C14.8462 16.4733 18.1687 17.3016 19.6252 18.452C20.0803 17.6237 20.3534 16.7033 20.3534 15.737C20.3534 11.8715 16.1661 8.32812 10.9775 8.32812C5.78887 8.32812 1.60156 11.8715 1.60156 15.737C1.60156 16.7033 1.87465 17.6237 2.32979 18.452C3.74073 17.2556 7.06327 16.4733 10.9775 16.4733Z" fill="#B0DCF1"/>
<path id="Vector_51" d="M10.9761 16.4741C14.8448 16.4741 18.1674 17.3024 19.5783 18.4529C20.0335 17.6246 20.3065 16.7042 20.3065 15.7378C20.3065 11.9184 16.1192 8.375 10.9306 8.375C5.742 8.375 1.55469 11.9184 1.55469 15.7378C1.55469 16.7042 1.82777 17.6246 2.28292 18.4529C3.73937 17.3024 7.06191 16.4741 10.9761 16.4741Z" fill="#B8DFF0"/>
<path id="Vector_52" d="M10.9736 16.5227C14.8423 16.5227 18.1648 17.351 19.5758 18.5015C20.0309 17.6731 20.304 16.7528 20.304 15.8324C20.304 12.013 16.1167 8.51562 10.9736 8.51562C5.83048 8.51562 1.59766 12.013 1.59766 15.7864C1.59766 16.7528 1.87074 17.6271 2.32588 18.4554C3.73682 17.305 7.10488 16.5227 10.9736 16.5227Z" fill="#BDE0F1"/>
<path id="Vector_53" d="M10.9749 16.5227C14.8437 16.5227 18.1662 17.305 19.5771 18.4554C20.0323 17.6271 20.3054 16.7528 20.3054 15.7864C20.3054 12.013 16.1181 8.51562 10.9749 8.51562C5.83184 8.51562 1.64453 12.013 1.64453 15.7864C1.64453 16.7528 1.91762 17.6271 2.37276 18.4554C3.7837 17.351 7.10624 16.5227 10.9749 16.5227Z" fill="#C3E2F1"/>
<path id="Vector_54" d="M10.9749 16.5674C14.8437 16.5674 18.1662 17.3497 19.5771 18.5001C20.0323 17.6718 20.3054 16.7975 20.3054 15.8771C20.3054 12.1497 16.1181 8.65234 10.9749 8.65234C5.78633 8.65234 1.64453 12.1037 1.64453 15.8311C1.64453 16.7515 1.91762 17.6718 2.37276 18.4541C3.7837 17.3497 7.10624 16.5674 10.9749 16.5674Z" fill="#C8E4F1"/>
<path id="Vector_55" d="M10.9736 16.5682C14.8423 16.5682 18.1193 17.3505 19.5303 18.501C19.9854 17.7187 20.2585 16.7983 20.2585 15.878C20.2585 12.1505 16.0712 8.69922 10.9281 8.69922C5.78497 8.69922 1.59766 12.1505 1.59766 15.878C1.59766 16.7983 1.87074 17.7187 2.32588 18.501C3.78234 17.3505 7.10488 16.5682 10.9736 16.5682Z" fill="#CDE6F1"/>
<path id="Vector_56" d="M10.9763 16.6121C14.845 16.6121 18.122 17.3944 19.533 18.4988C19.9881 17.7165 20.2612 16.8422 20.2612 15.9218C20.2612 12.2404 16.1194 8.78906 10.9763 8.78906C5.8332 8.78906 1.69141 12.2404 1.69141 15.9218C1.69141 16.8422 1.96449 17.7165 2.41963 18.4988C3.78506 17.3944 7.1076 16.6121 10.9763 16.6121Z" fill="#D3E8F3"/>
<path id="Vector_57" d="M10.9763 16.6138C14.7995 16.6138 18.122 17.3961 19.533 18.5005C19.9881 17.7182 20.2612 16.8439 20.2612 15.9235C20.2612 12.2421 16.1194 8.88281 10.9763 8.88281C5.8332 8.88281 1.69141 12.2881 1.69141 15.9235C1.69141 16.8439 1.96449 17.7182 2.41963 18.5005C3.83057 17.3961 7.1076 16.6138 10.9763 16.6138Z" fill="#D8EAF3"/>
<path id="Vector_58" d="M10.9763 16.6615C14.7995 16.6615 18.122 17.4438 19.533 18.5482C19.9881 17.7659 20.2612 16.8916 20.2612 15.9713C20.2612 12.3359 16.1194 8.97656 10.9763 8.97656C5.87872 8.97656 1.69141 12.3819 1.69141 15.9713C1.69141 16.8916 1.96449 17.7659 2.41963 18.5482C3.83057 17.4438 7.1076 16.6615 10.9763 16.6615Z" fill="#DDEDF5"/>
<path id="Vector_59" d="M10.9738 16.6585C14.797 16.6585 18.074 17.4408 19.4849 18.4992C19.9401 17.7169 20.2132 16.8425 20.2132 15.9682C20.2132 12.3788 16.0714 9.01953 10.9738 9.01953C5.87617 9.01953 1.73438 12.3788 1.73438 15.9682C1.73438 16.8886 2.00746 17.7169 2.4626 18.4992C3.82803 17.4408 7.10505 16.6585 10.9738 16.6585Z" fill="#E2EFF6"/>
<path id="Vector_60" d="M10.9738 16.7023C14.797 16.7023 18.074 17.4846 19.4849 18.543C19.9401 17.7607 20.2132 16.9324 20.2132 16.012C20.2132 12.4226 16.0714 9.10938 10.9738 9.10938C5.87617 9.10938 1.73438 12.4687 1.73438 16.012C1.73438 16.9324 2.00746 17.7607 2.4626 18.543C3.82803 17.4846 7.10505 16.7023 10.9738 16.7023Z" fill="#E6F1F7"/>
<path id="Vector_61" d="M10.9738 16.7509C14.797 16.7509 18.074 17.4872 19.4849 18.5916C19.9401 17.8093 20.2132 16.981 20.2132 16.1066C20.2132 12.5633 16.0714 9.25 10.9738 9.25C5.87617 9.25 1.73438 12.5633 1.73438 16.1066C1.73438 16.981 2.00746 17.8553 2.4626 18.5916C3.82803 17.4872 7.15057 16.7509 10.9738 16.7509Z" fill="#EBF3F8"/>
<path id="Vector_62" d="M10.9738 16.7509C14.797 16.7509 18.074 17.4872 19.4849 18.5456C19.9401 17.8093 20.2132 16.935 20.2132 16.0606C20.2132 12.5633 16.0714 9.25 10.9738 9.25C5.87617 9.29602 1.73438 12.5633 1.73438 16.1066C1.73438 16.981 2.00746 17.8093 2.4626 18.5916C3.87354 17.4872 7.15057 16.7509 10.9738 16.7509Z" fill="#F0F6FA"/>
<path id="Vector_63" d="M10.9738 16.7986C14.797 16.7986 18.074 17.5349 19.4394 18.5933C19.8945 17.857 20.1676 17.0287 20.1676 16.1544C20.1676 12.611 16.0258 9.34375 10.9738 9.34375C5.87617 9.34375 1.73438 12.611 1.73438 16.1084C1.73438 16.9827 2.00746 17.811 2.4626 18.5933C3.87354 17.5349 7.15057 16.7986 10.9738 16.7986Z" fill="#F4F9FB"/>
<path id="Vector_64" d="M10.9751 16.7964C14.7983 16.7964 18.0298 17.5327 19.4408 18.5911C19.8959 17.8548 20.169 17.0265 20.169 16.1522C20.169 12.7008 16.0727 9.43359 10.9751 9.43359C5.87753 9.43359 1.78125 12.7008 1.78125 16.1522C1.78125 17.0265 2.05434 17.8548 2.50948 18.5911C3.8749 17.5327 7.15193 16.7964 10.9751 16.7964Z" fill="#F7FBFC"/>
<path id="Vector_65" d="M10.9751 16.8442C14.7528 16.8442 18.0298 17.5804 19.4408 18.6388C19.8959 17.9026 20.169 17.0742 20.169 16.1999C20.169 12.7486 16.0727 9.52734 10.9751 9.52734C5.92304 9.52734 1.78125 12.7486 1.78125 16.1999C1.78125 17.0742 2.05434 17.9026 2.50948 18.6388C3.8749 17.5804 7.15193 16.8442 10.9751 16.8442Z" fill="#FCFDFE"/>
<path id="Vector_66" d="M10.9765 16.8411C14.7542 16.8411 18.0312 17.5774 19.3966 18.5898C19.8518 17.8535 20.1248 17.0252 20.1248 16.1969C20.1248 12.7916 16.0286 9.57031 10.9765 9.57031C5.9244 9.57031 1.82812 12.7916 1.82812 16.1969C1.82812 17.0712 2.10121 17.8535 2.55635 18.5898C3.92178 17.5774 7.15329 16.8411 10.9765 16.8411Z" fill="white"/>
</g>
</g>
</g>
</g>
</g>
<path id="Vector_67" d="M10.9741 13.4375C7.65158 13.4375 4.55661 13.9897 2.00781 14.9561C3.50978 18.4534 6.96886 20.8464 10.9741 20.8464C14.9794 20.8464 18.3929 18.4534 19.9404 14.9561C17.3461 14.0357 14.2511 13.4375 10.9741 13.4375Z" fill="#007CC0"/>
</g>
</g>
<defs>
<clipPath id="clip0_4366_277291">
<rect width="20.8" height="20.8" fill="white" transform="translate(0.597656 0.597656)"/>
</clipPath>
</defs>
</svg>
