<svg width="36" height="36" viewBox="0 0 36 36" fill="none" xmlns="http://www.w3.org/2000/svg">
<circle cx="18" cy="18" r="18" fill="black"/>
<path d="M11.8241 23.9558C11.5244 23.6561 11.5244 23.1697 11.824 22.87L20.7438 13.9502L14.2029 13.8651C14.1003 13.8665 13.9986 13.8473 13.9036 13.8087C13.8086 13.7701 13.7223 13.7129 13.6498 13.6404C13.5772 13.5679 13.52 13.4816 13.4814 13.3866C13.4427 13.2916 13.4235 13.1899 13.4248 13.0874C13.4262 12.9848 13.448 12.8836 13.4891 12.7897C13.5302 12.6957 13.5897 12.611 13.6641 12.5404C13.7385 12.4698 13.8262 12.4149 13.9222 12.3787C14.0182 12.3426 14.1204 12.3261 14.2228 12.3302L22.5811 12.4387C22.7822 12.4401 22.9747 12.5206 23.117 12.6629C23.2592 12.8051 23.3398 12.9977 23.3411 13.1988L23.4497 21.557C23.4538 21.6595 23.4372 21.7617 23.4011 21.8577C23.365 21.9536 23.3101 22.0414 23.2395 22.1158C23.1689 22.1902 23.0841 22.2497 22.9902 22.2908C22.8963 22.3318 22.795 22.3537 22.6925 22.355C22.59 22.3564 22.4882 22.3372 22.3933 22.2985C22.2983 22.2599 22.212 22.2026 22.1395 22.1301C22.067 22.0576 22.0098 21.9713 21.9712 21.8763C21.9326 21.7813 21.9134 21.6795 21.9148 21.577L21.8297 15.036L12.9099 23.9558C12.6102 24.2555 12.1237 24.2555 11.8241 23.9558Z" fill="white" stroke="white" stroke-width="1.36956"/>
</svg>
