<svg width="24" height="24" viewBox="0 0 24 24" fill="none" xmlns="http://www.w3.org/2000/svg">
<circle cx="12" cy="12" r="12" fill="white"/>
<path d="M7.88253 15.9706C7.68274 15.7708 7.68274 15.4465 7.88253 15.2467L13.8291 9.30014L9.46841 9.24339C9.40006 9.2443 9.33222 9.23152 9.26889 9.20579C9.20556 9.18006 9.14802 9.14191 9.09968 9.09358C9.05133 9.04526 9.01316 8.98774 8.9874 8.92442C8.96165 8.8611 8.94884 8.79326 8.94973 8.72491C8.95062 8.65656 8.96519 8.58908 8.99258 8.52645C9.01998 8.46382 9.05964 8.40731 9.10922 8.36026C9.15881 8.31321 9.21732 8.27657 9.2813 8.2525C9.34528 8.22843 9.41343 8.21741 9.48173 8.22011L15.0539 8.29249C15.188 8.29341 15.3163 8.34709 15.4112 8.44192C15.506 8.53675 15.5597 8.66511 15.5606 8.79921L15.633 14.3714C15.6357 14.4397 15.6247 14.5078 15.6006 14.5718C15.5765 14.6358 15.5399 14.6943 15.4928 14.7439C15.4458 14.7934 15.3893 14.8331 15.3266 14.8605C15.264 14.8879 15.1965 14.9025 15.1282 14.9034C15.0598 14.9042 14.992 14.8914 14.9287 14.8657C14.8653 14.8399 14.8078 14.8018 14.7595 14.7534C14.7112 14.7051 14.673 14.6475 14.6473 14.5842C14.6216 14.5209 14.6088 14.453 14.6097 14.3847L14.5529 10.024L8.60641 15.9706C8.40662 16.1703 8.08233 16.1703 7.88253 15.9706Z" fill="black" stroke="black" stroke-width="0.913043"/>
</svg>
