<svg width="32" height="32" viewBox="0 0 32 32" fill="none" xmlns="http://www.w3.org/2000/svg">
<g clip-path="url(#clip0_623_13334)">
<rect x="2.66553" y="8" width="16" height="10.6667" rx="1.33333" fill="#E5E8EB"/>
<path d="M7.99854 10.668L13.3319 16.0013" stroke="white" stroke-width="1.33333" stroke-linecap="round"/>
<path d="M7.99854 16L13.3319 10.6667" stroke="white" stroke-width="1.33333" stroke-linecap="round"/>
<rect x="14.6655" y="12" width="14.6667" height="12" rx="1.33333" fill="#B0B8C1"/>
<path d="M7.35761 22.2577C7.64275 22.8047 8.35562 22.8047 8.64076 22.2577L10.5655 18.5654C10.8506 18.0184 10.4942 17.3346 9.92392 17.3346H6.07445C5.50416 17.3346 5.14773 18.0184 5.43288 18.5654L7.35761 22.2577Z" fill="#E5E8EB"/>
<path d="M23.3576 27.5897C23.6428 28.1368 24.3556 28.1368 24.6408 27.5897L26.5655 23.8974C26.8506 23.3504 26.4942 22.6667 25.9239 22.6667H22.0745C21.5042 22.6667 21.1477 23.3504 21.4329 23.8974L23.3576 27.5897Z" fill="#B0B8C1"/>
<circle cx="21.9989" cy="18.0013" r="2.66667" stroke="white" stroke-width="1.33333"/>
</g>
<defs>
<clipPath id="clip0_623_13334">
<rect width="32" height="32" fill="white"/>
</clipPath>
</defs>
</svg>
