<svg width="20" height="20" viewBox="0 0 20 20" fill="none" xmlns="http://www.w3.org/2000/svg">
<rect x="4.5" y="4.5" width="11" height="11" rx="1.5" stroke="#D1D6DB"/>
<path d="M7.75 9.75C7.61193 9.75 7.5 9.86193 7.5 10C7.5 10.1381 7.61193 10.25 7.75 10.25H9.75V12.25C9.75 12.3881 9.86193 12.5 10 12.5C10.1381 12.5 10.25 12.3881 10.25 12.25V10.25H12.25C12.3881 10.25 12.5 10.1381 12.5 10C12.5 9.86193 12.3881 9.75 12.25 9.75H10.25V7.75C10.25 7.61193 10.1381 7.5 10 7.5C9.86193 7.5 9.75 7.61193 9.75 7.75V9.75H7.75Z" stroke="#D1D6DB" stroke-width="0.5" stroke-linecap="round" stroke-linejoin="round"/>
</svg>
