<svg width="16" height="16" viewBox="0 0 16 16" fill="none" xmlns="http://www.w3.org/2000/svg">
<rect x="2.66406" y="4" width="10.6667" height="9.33333" rx="2" fill="#6B7684"/>
<path d="M5.66406 2.66797L5.66406 6.0013" stroke="#6B7684" stroke-width="1.5" stroke-linecap="round"/>
<path d="M10.3281 2.66797L10.3281 6.0013" stroke="#6B7684" stroke-width="1.5" stroke-linecap="round"/>
<path d="M4.66406 6.66797H11.3307" stroke="white" stroke-linecap="round"/>
<path d="M9.99846 8.04688V11.4204H9.32665V8.71318H9.30886L8.57031 9.19777V8.57806L9.3667 8.04688H9.99846Z" fill="white"/>
<path d="M6.892 11.4667C6.1846 11.4667 5.67741 11.0566 5.66406 10.4695H6.34032C6.35367 10.7211 6.58502 10.8889 6.89645 10.8889C7.21679 10.8889 7.44814 10.6978 7.44369 10.4276C7.44814 10.1527 7.21234 9.95699 6.83417 9.95699H6.53608V9.43978H6.83417C7.15005 9.43978 7.3725 9.25806 7.3725 8.99247C7.3725 8.7362 7.18564 8.55914 6.9009 8.55914C6.61616 8.55914 6.38036 8.72688 6.37146 8.98315H5.7308C5.7397 8.40072 6.24244 8 6.9009 8C7.57271 8 8.02207 8.4147 8.01762 8.95054C8.02207 9.32796 7.76847 9.59821 7.4081 9.66344V9.6914C7.8797 9.75197 8.14219 10.0548 8.13774 10.4742C8.14219 11.052 7.6172 11.4667 6.892 11.4667Z" fill="white"/>
</svg>
