<svg width="24" height="24" viewBox="0 0 24 24" fill="none" xmlns="http://www.w3.org/2000/svg">
<path fill-rule="evenodd" clip-rule="evenodd" d="M5.60225 5.60234C5.82192 5.38267 6.17808 5.38267 6.39775 5.60234L18.3977 17.6023C18.6174 17.822 18.6174 18.1782 18.3977 18.3978C18.1781 18.6175 17.8219 18.6175 17.6023 18.3978L5.60225 6.39783C5.38258 6.17816 5.38258 5.82201 5.60225 5.60234Z" fill="black"/>
<path fill-rule="evenodd" clip-rule="evenodd" d="M18.3977 5.60234C18.1781 5.38267 17.8219 5.38267 17.6023 5.60234L5.60225 17.6023C5.38258 17.822 5.38258 18.1782 5.60225 18.3978C5.82192 18.6175 6.17808 18.6175 6.39775 18.3978L18.3977 6.39783C18.6174 6.17816 18.6174 5.82201 18.3977 5.60234Z" fill="black"/>
</svg>
