<svg width="20" height="20" viewBox="0 0 20 20" fill="none" xmlns="http://www.w3.org/2000/svg">
<g id="ic/20/file">
<path id="Vector" d="M14.7495 9.65035C15.4279 10.6191 15.6651 11.6815 15.4612 12.8376C15.2574 13.9936 14.6711 14.9108 13.7024 15.5891C12.7337 16.2674 11.6713 16.5047 10.5152 16.3008C9.35909 16.097 8.4419 15.5107 7.76359 14.542L4.1438 9.37237C3.65463 8.67377 3.48335 7.90876 3.62996 7.07733C3.77656 6.2459 4.19916 5.5856 4.89776 5.09644C5.59635 4.60728 6.36136 4.436 7.1928 4.5826C8.02422 4.72921 8.68452 5.1518 9.17368 5.8504L12.5978 10.7406C12.8978 11.169 13.0032 11.6367 12.9138 12.1434C12.8244 12.6502 12.5655 13.0536 12.1371 13.3536C11.7086 13.6537 11.241 13.759 10.7342 13.6696C10.2274 13.5803 9.82401 13.3214 9.524 12.8929L6.29553 8.28215C6.0794 7.97349 6.15442 7.54807 6.46307 7.33194C6.77173 7.11582 7.19715 7.19083 7.41328 7.49949L10.6417 12.1102C10.7265 12.2313 10.8362 12.3037 10.9708 12.3275C11.1055 12.3512 11.2333 12.3207 11.3544 12.2359C11.4755 12.1511 11.5479 12.0414 11.5716 11.9068C11.5954 11.7722 11.5649 11.6443 11.4801 11.5232L8.05593 6.63306C7.77268 6.24837 7.40376 6.0139 6.94915 5.92966C6.49454 5.84542 6.07163 5.94026 5.68042 6.21419C5.2892 6.48812 5.0531 6.85472 4.97212 7.31399C4.89114 7.77325 4.98762 8.19849 5.26155 8.58971L8.88135 13.7593C9.3351 14.4272 9.95627 14.8286 10.7448 14.9635C11.5334 15.0985 12.2584 14.9345 12.9197 14.4714C13.5717 14.0148 13.9645 13.3962 14.0981 12.6156C14.2317 11.8349 14.0762 11.1074 13.6318 10.433L10.2077 5.54284C9.99154 5.23419 10.0666 4.80876 10.3752 4.59264C10.6839 4.37651 11.1093 4.45153 11.3254 4.76019L14.7495 9.65035Z" fill="#B0B8C1"/>
</g>
</svg>
