<svg width="24" height="24" viewBox="0 0 24 24" fill="none" xmlns="http://www.w3.org/2000/svg">
<path fill-rule="evenodd" clip-rule="evenodd" d="M5.60225 5.60234C5.82192 5.38267 6.17808 5.38267 6.39775 5.60234L18.3977 17.6023C18.6174 17.822 18.6174 18.1782 18.3977 18.3978C18.1781 18.6175 17.8219 18.6175 17.6023 18.3978L5.60225 6.39783C5.38258 6.17816 5.38258 5.82201 5.60225 5.60234Z" fill="#6B7684"/>
<path fill-rule="evenodd" clip-rule="evenodd" d="M18.3973 5.60234C18.1776 5.38267 17.8214 5.38267 17.6018 5.60234L5.60176 17.6023C5.3821 17.822 5.38209 18.1782 5.60176 18.3978C5.82143 18.6175 6.17759 18.6175 6.39726 18.3978L18.3973 6.39783C18.6169 6.17816 18.6169 5.82201 18.3973 5.60234Z" fill="#6B7684"/>
</svg>
