<svg width="16" height="16" viewBox="0 0 16 16" fill="none" xmlns="http://www.w3.org/2000/svg">
<g id="ic/16/check">
<path id="Vector" d="M6.46592 11.2484C6.37211 11.2485 6.2792 11.23 6.19254 11.1941C6.10588 11.1582 6.02716 11.1055 5.96092 11.0391L3.21806 8.29622C3.14984 8.23033 3.09543 8.15151 3.05799 8.06437C3.02056 7.97722 3.00085 7.88349 3.00003 7.78865C2.9992 7.69381 3.01728 7.59975 3.05319 7.51197C3.08911 7.42419 3.14214 7.34444 3.20921 7.27737C3.27628 7.2103 3.35603 7.15726 3.44381 7.12135C3.53159 7.08544 3.62565 7.06736 3.72049 7.06819C3.81533 7.06901 3.90906 7.08872 3.99621 7.12615C4.08335 7.16359 4.16217 7.218 4.22806 7.28622L6.46592 9.52408L11.7895 4.20051C11.9242 4.0704 12.1046 3.9984 12.2919 4.00003C12.4792 4.00165 12.6584 4.07678 12.7908 4.20921C12.9232 4.34164 12.9983 4.5208 13 4.70808C13.0016 4.89536 12.9296 5.07579 12.7995 5.21051L6.97092 11.0391C6.90468 11.1055 6.82596 11.1582 6.7393 11.1941C6.65264 11.23 6.55973 11.2485 6.46592 11.2484Z" fill="#B0B8C1"/>
</g>
</svg>
