<svg width="20" height="20" viewBox="0 0 20 20" fill="none" xmlns="http://www.w3.org/2000/svg">
<path fill-rule="evenodd" clip-rule="evenodd" d="M17.5 10C17.5 14.1421 14.1421 17.5 10 17.5C5.85786 17.5 2.5 14.1421 2.5 10C2.5 5.85786 5.85786 2.5 10 2.5C14.1421 2.5 17.5 5.85786 17.5 10ZM6.96967 13.0303C6.67678 12.7374 6.67678 12.2626 6.96967 11.9697L8.93934 10L6.96967 8.03033C6.67678 7.73744 6.67678 7.26256 6.96967 6.96967C7.26256 6.67678 7.73744 6.67678 8.03033 6.96967L10 8.93934L11.9697 6.96967C12.2626 6.67678 12.7374 6.67678 13.0303 6.96967C13.3232 7.26256 13.3232 7.73744 13.0303 8.03033L11.0607 10L13.0303 11.9697C13.3232 12.2626 13.3232 12.7374 13.0303 13.0303C12.7374 13.3232 12.2626 13.3232 11.9697 13.0303L10 11.0607L8.03033 13.0303C7.73744 13.3232 7.26256 13.3232 6.96967 13.0303Z" fill="#B0B8C1"/>
</svg>
