<svg width="17" height="16" viewBox="0 0 17 16" fill="none" xmlns="http://www.w3.org/2000/svg">
<g id="ic/16/change">
<g id="Group 8339">
<g id="Group 8338">
<path id="Vector 93 (Stroke)" fill-rule="evenodd" clip-rule="evenodd" d="M4.18262 10.314C4.18262 10.0489 4.39752 9.83398 4.66262 9.83398L12.6478 9.83399C12.9129 9.83399 13.1278 10.0489 13.1278 10.314C13.1278 10.5791 12.9129 10.794 12.6478 10.794L4.66262 10.794C4.39752 10.794 4.18262 10.5791 4.18262 10.314Z" fill="#4E5968"/>
<path id="Vector 94 (Stroke)" fill-rule="evenodd" clip-rule="evenodd" d="M6.51962 7.97463C6.3322 7.78715 6.02828 7.7871 5.8408 7.97452L3.84049 9.97419C3.75045 10.0642 3.69986 10.1863 3.69985 10.3136C3.69984 10.4409 3.75041 10.563 3.84044 10.6531L5.84074 12.6534C6.0282 12.8408 6.33212 12.8408 6.51957 12.6534C6.70702 12.4659 6.70702 12.162 6.51957 11.9745L4.85872 10.3137L6.51951 8.65345C6.70699 8.46603 6.70704 8.16211 6.51962 7.97463Z" fill="#4E5968"/>
</g>
<g id="Group 8337">
<path id="Vector 95 (Stroke)" fill-rule="evenodd" clip-rule="evenodd" d="M3.7002 4.88039C3.7002 4.61529 3.9151 4.40039 4.1802 4.40039L12.1654 4.40039C12.4304 4.40039 12.6454 4.61529 12.6454 4.88039C12.6454 5.14549 12.4304 5.36039 12.1654 5.36039L4.1802 5.36039C3.9151 5.36039 3.7002 5.14549 3.7002 4.88039Z" fill="#4E5968"/>
<path id="Vector 96 (Stroke)" fill-rule="evenodd" clip-rule="evenodd" d="M10.8261 2.54103C11.0135 2.35355 11.3174 2.3535 11.5049 2.54093L13.5052 4.54059C13.5953 4.63061 13.6458 4.7527 13.6459 4.88002C13.6459 5.00734 13.5953 5.12944 13.5053 5.21947L11.505 7.21978C11.3175 7.40723 11.0136 7.40723 10.8261 7.21978C10.6387 7.03233 10.6387 6.72841 10.8261 6.54096L12.487 4.88011L10.8262 3.21986C10.6387 3.03243 10.6387 2.72852 10.8261 2.54103Z" fill="#4E5968"/>
</g>
</g>
</g>
</svg>
