<svg width="33" height="32" viewBox="0 0 33 32" fill="none" xmlns="http://www.w3.org/2000/svg">
<g clip-path="url(#clip0_3702_124225)">
<path fill-rule="evenodd" clip-rule="evenodd" d="M6.13725 8.7999V23.1991H26.8634V8.7999H6.13725ZM5.59183 7C4.98937 7 4.50098 7.53723 4.50098 8.19993V23.7991C4.50098 24.4618 4.98937 24.999 5.59183 24.999H27.4088C28.0113 24.999 28.4997 24.4618 28.4997 23.7991V8.19993C28.4997 7.53723 28.0113 7 27.4088 7H5.59183Z" fill="#191F28"/>
<path fill-rule="evenodd" clip-rule="evenodd" d="M27.0008 23.4994H6.00195V13H27.0008V23.4994Z" fill="#191F28"/>
<path fill-rule="evenodd" clip-rule="evenodd" d="M27.0008 8.50016H6.00195V11.5H27.0008V8.50016Z" fill="#191F28"/>
<path d="M20.1238 18.2499C20.1238 19.4925 19.1165 20.4998 17.8739 20.4998C16.6313 20.4998 15.624 19.4925 15.624 18.2499C15.624 17.0073 16.6313 16 17.8739 16C19.1165 16 20.1238 17.0073 20.1238 18.2499Z" fill="white"/>
<path d="M25.4988 18.2499C25.4988 19.4925 24.4915 20.4998 23.2489 20.4998C22.0063 20.4998 20.999 19.4925 20.999 18.2499C20.999 17.0073 22.0063 16 23.2489 16C24.4915 16 25.4988 17.0073 25.4988 18.2499Z" fill="white"/>
</g>
<defs>
<clipPath id="clip0_3702_124225">
<rect width="32" height="32" fill="white" transform="translate(0.5)"/>
</clipPath>
</defs>
</svg>
