<svg width="20" height="20" viewBox="0 0 20 20" fill="none" xmlns="http://www.w3.org/2000/svg">
<g id="Frame 9056">
<g id="Group 8346">
<rect id="Rectangle 4723" x="3.5" y="4.5" width="10.2" height="10.2" rx="1.5" stroke="#191F28"/>
<path id="Vector" d="M7.2 16.5999H14.6665C15.0378 16.5999 15.3939 16.4524 15.6564 16.1898C15.919 15.9273 16.0665 15.5712 16.0665 15.1999L16.0667 7.73327C16.0667 7.6095 16.1158 7.4908 16.2034 7.40329C16.2909 7.31577 16.4096 7.2666 16.5333 7.2666C16.6571 7.2666 16.7758 7.31577 16.8633 7.40329C16.9508 7.4908 17 7.6095 17 7.73327L16.9998 15.1999C16.9998 15.8187 16.754 16.4122 16.3164 16.8498C15.8788 17.2874 15.2853 17.5332 14.6665 17.5332H12.7998H7.2C7.07623 17.5332 6.95753 17.4841 6.87002 17.3966C6.7825 17.309 6.73333 17.1903 6.73333 17.0666C6.73333 16.9428 6.7825 16.8241 6.87002 16.7366C6.95753 16.6491 7.07623 16.5999 7.2 16.5999Z" fill="#191F28"/>
</g>
</g>
</svg>
