<svg width="16" height="16" viewBox="0 0 16 16" fill="none" xmlns="http://www.w3.org/2000/svg">
<path fill-rule="evenodd" clip-rule="evenodd" d="M3.73483 3.73489C3.88128 3.58844 4.11872 3.58844 4.26517 3.73489L12.2652 11.7349C12.4116 11.8813 12.4116 12.1188 12.2652 12.2652C12.1187 12.4117 11.8813 12.4117 11.7348 12.2652L3.73483 4.26522C3.58839 4.11878 3.58839 3.88134 3.73483 3.73489Z" fill="#fff"/>
<path fill-rule="evenodd" clip-rule="evenodd" d="M12.2652 3.73489C12.1187 3.58844 11.8813 3.58844 11.7348 3.73489L3.73484 11.7349C3.58839 11.8813 3.58839 12.1188 3.73484 12.2652C3.88128 12.4117 4.11872 12.4117 4.26517 12.2652L12.2652 4.26522C12.4116 4.11878 12.4116 3.88134 12.2652 3.73489Z" fill="#fff"/>
</svg>
