<svg width="20" height="20" viewBox="0 0 20 20" fill="none" xmlns="http://www.w3.org/2000/svg">
<g id="ic/20/download">
<path id="Vector" d="M10 12.6813C9.9 12.6813 9.80625 12.6656 9.71875 12.6344C9.63125 12.6031 9.55 12.55 9.475 12.475L6.775 9.775C6.625 9.625 6.55313 9.45 6.55938 9.25C6.56563 9.05 6.6375 8.875 6.775 8.725C6.925 8.575 7.10313 8.49688 7.30938 8.49063C7.51563 8.48438 7.69375 8.55625 7.84375 8.70625L9.25 10.1125V4.75C9.25 4.5375 9.32188 4.35938 9.46563 4.21563C9.60938 4.07188 9.7875 4 10 4C10.2125 4 10.3906 4.07188 10.5344 4.21563C10.6781 4.35938 10.75 4.5375 10.75 4.75V10.1125L12.1562 8.70625C12.3063 8.55625 12.4844 8.48438 12.6906 8.49063C12.8969 8.49688 13.075 8.575 13.225 8.725C13.3625 8.875 13.4344 9.05 13.4406 9.25C13.4469 9.45 13.375 9.625 13.225 9.775L10.525 12.475C10.45 12.55 10.3688 12.6031 10.2813 12.6344C10.1938 12.6656 10.1 12.6813 10 12.6813ZM5.5 16C5.0875 16 4.73438 15.8531 4.44063 15.5594C4.14687 15.2656 4 14.9125 4 14.5V13C4 12.7875 4.07188 12.6094 4.21563 12.4656C4.35938 12.3219 4.5375 12.25 4.75 12.25C4.9625 12.25 5.14062 12.3219 5.28438 12.4656C5.42813 12.6094 5.5 12.7875 5.5 13V14.5H14.5V13C14.5 12.7875 14.5719 12.6094 14.7156 12.4656C14.8594 12.3219 15.0375 12.25 15.25 12.25C15.4625 12.25 15.6406 12.3219 15.7844 12.4656C15.9281 12.6094 16 12.7875 16 13V14.5C16 14.9125 15.8531 15.2656 15.5594 15.5594C15.2656 15.8531 14.9125 16 14.5 16H5.5Z" fill="#4E5968"/>
</g>
</svg>
