<svg width="11" height="12" viewBox="0 0 11 12" fill="none" xmlns="http://www.w3.org/2000/svg">
<g id="clarity:edit-solid" clip-path="url(#clip0_3702_124387)">
<path id="Vector" d="M1.2943 7.5895L0.713747 10.0951C0.69372 10.1866 0.694406 10.2816 0.715756 10.3728C0.737107 10.4641 0.778581 10.5495 0.83715 10.6227C0.895718 10.6959 0.969902 10.7551 1.05428 10.796C1.13866 10.8369 1.2311 10.8584 1.32486 10.8589C1.36853 10.8637 1.41258 10.8637 1.45625 10.8589L3.97708 10.2784L8.81708 5.45672L6.11597 2.76172L1.2943 7.5895Z" fill="#6B7684"/>
<path id="Vector_2" d="M10.3339 3.04159L8.53116 1.23881C8.41264 1.12089 8.25225 1.05469 8.08505 1.05469C7.91786 1.05469 7.75746 1.12089 7.63894 1.23881L6.63672 2.24103L9.33477 4.93909L10.337 3.93687C10.3956 3.87792 10.4421 3.80798 10.4737 3.73106C10.5053 3.65414 10.5214 3.57175 10.5211 3.48859C10.5208 3.40544 10.5042 3.32316 10.472 3.24645C10.4399 3.16975 10.393 3.10014 10.3339 3.04159Z" fill="#6B7684"/>
</g>
<defs>
<clipPath id="clip0_3702_124387">
<rect width="11" height="11" fill="white" transform="translate(0 0.5)"/>
</clipPath>
</defs>
</svg>
