<svg width="24" height="24" viewBox="0 0 24 24" fill="none" xmlns="http://www.w3.org/2000/svg">
<g clip-path="url(#clip0_300_408)">
<path d="M17.617 11.44C17.617 10.6457 17.4548 9.88572 17.1768 9.18858C16.5919 9.01715 15.9664 8.92572 15.3177 8.92572C11.8602 8.92572 9.05713 11.5657 9.05713 14.8171C9.05713 15.6686 9.24825 16.4743 9.59574 17.2057C9.98377 17.3257 10.3834 17.4114 10.8004 17.4571C10.8293 17.4571 10.8583 17.4629 10.893 17.4686C11.0842 17.4857 11.2811 17.4971 11.478 17.4971C11.478 17.4971 11.4838 17.4971 11.4896 17.4971C14.8834 17.4971 17.6286 14.7829 17.6286 11.44H17.617Z" fill="#B4C0FD"/>
<path d="M19.6099 17.7175L17.2969 15.3989C17.2471 15.3489 17.1918 15.3101 17.1364 15.2657C17.9277 14.1064 18.387 12.7086 18.387 11.1999C18.387 8.82579 17.2471 6.72352 15.4875 5.40891C14.2922 4.52141 12.8093 4 11.2101 4C7.22601 4 4 7.23384 4 11.222C4 13.5906 5.13989 15.6984 6.89953 17.013C8.09476 17.9005 9.57773 18.4219 11.1769 18.4219C12.7761 18.4219 14.1152 17.9449 15.2827 17.135C15.3215 17.1905 15.3602 17.2404 15.41 17.2903L17.723 19.6089C18.2431 20.1304 19.0897 20.1304 19.6099 19.6089C20.13 19.0875 20.13 18.2389 19.6099 17.7175ZM11.2101 17.1018C11.2101 17.1018 11.2046 17.1018 11.199 17.1018C11.0109 17.1018 10.8283 17.0907 10.6402 17.074C10.6125 17.074 10.5848 17.0685 10.5516 17.0629C10.1532 17.0185 9.7714 16.9353 9.40066 16.8189C7.03787 16.0589 5.33356 13.8402 5.33356 11.222C5.3391 7.97712 7.96749 5.34235 11.2101 5.34235C13.678 5.34235 15.7918 6.87329 16.655 9.03657C16.9262 9.7133 17.0756 10.4455 17.0756 11.222C17.0756 14.467 14.4472 17.1018 11.2101 17.1018Z" fill="#4E32F6"/>
</g>
<defs>
<clipPath id="clip0_300_408">
<rect width="16" height="16" fill="white" transform="translate(4 4)"/>
</clipPath>
</defs>
</svg>
