<svg width="24" height="24" viewBox="0 0 24 24" fill="none" xmlns="http://www.w3.org/2000/svg">
<path fill-rule="evenodd" clip-rule="evenodd" d="M3 7.94229C3 7.44345 3.38995 7.03906 3.87097 7.03906H20.129C20.6101 7.03906 21 7.44345 21 7.94229C21 8.44113 20.6101 8.84551 20.129 8.84551H3.87097C3.38995 8.84551 3 8.44113 3 7.94229Z" fill="#6B7684"/>
<path fill-rule="evenodd" clip-rule="evenodd" d="M3 16.1142C3 15.6153 3.38995 15.2109 3.87097 15.2109H20.129C20.6101 15.2109 21 15.6153 21 16.1142C21 16.613 20.6101 17.0174 20.129 17.0174H3.87097C3.38995 17.0174 3 16.613 3 16.1142Z" fill="#6B7684"/>
<path d="M12 7.91667C12 9.5275 10.7408 10.8333 9.1875 10.8333C7.6342 10.8333 6.375 9.5275 6.375 7.91667C6.375 6.30584 7.6342 5 9.1875 5C10.7408 5 12 6.30584 12 7.91667Z" fill="white"/>
<path fill-rule="evenodd" clip-rule="evenodd" d="M9.1875 9.27778C9.91237 9.27778 10.5 8.66839 10.5 7.91667C10.5 7.16495 9.91237 6.55556 9.1875 6.55556C8.46263 6.55556 7.875 7.16495 7.875 7.91667C7.875 8.66839 8.46263 9.27778 9.1875 9.27778ZM9.1875 10.8333C10.7408 10.8333 12 9.5275 12 7.91667C12 6.30584 10.7408 5 9.1875 5C7.6342 5 6.375 6.30584 6.375 7.91667C6.375 9.5275 7.6342 10.8333 9.1875 10.8333Z" fill="#6B7684"/>
<path d="M17.625 16.0807C17.625 17.6916 16.3658 18.9974 14.8125 18.9974C13.2592 18.9974 12 17.6916 12 16.0807C12 14.4699 13.2592 13.1641 14.8125 13.1641C16.3658 13.1641 17.625 14.4699 17.625 16.0807Z" fill="white"/>
<path fill-rule="evenodd" clip-rule="evenodd" d="M14.8125 17.4418C15.5374 17.4418 16.125 16.8325 16.125 16.0807C16.125 15.329 15.5374 14.7196 14.8125 14.7196C14.0876 14.7196 13.5 15.329 13.5 16.0807C13.5 16.8325 14.0876 17.4418 14.8125 17.4418ZM14.8125 18.9974C16.3658 18.9974 17.625 17.6916 17.625 16.0807C17.625 14.4699 16.3658 13.1641 14.8125 13.1641C13.2592 13.1641 12 14.4699 12 16.0807C12 17.6916 13.2592 18.9974 14.8125 18.9974Z" fill="#6B7684"/>
</svg>
