<svg width="32" height="32" viewBox="0 0 32 32" fill="none" xmlns="http://www.w3.org/2000/svg">
<g clip-path="url(#clip0_623_13767)">
<path d="M23.4888 15.252C23.4888 14.193 23.2726 13.1797 22.9019 12.2501C22.122 12.0216 21.288 11.8997 20.4232 11.8997C15.8131 11.8997 12.0757 15.4197 12.0757 19.7549C12.0757 20.8901 12.3305 21.9644 12.7938 22.9397C13.3112 23.0997 13.844 23.2139 14.4 23.2749C14.4386 23.2749 14.4772 23.2825 14.5236 23.2901C14.7784 23.313 15.0409 23.3282 15.3035 23.3282C15.3035 23.3282 15.3112 23.3282 15.3189 23.3282C19.844 23.3282 23.5043 19.7092 23.5043 15.252H23.4888Z" fill="#D1D6DB"/>
<path d="M26.1462 23.622L23.0622 20.5305C22.9958 20.4639 22.922 20.4122 22.8483 20.353C23.9033 18.8073 24.5157 16.9435 24.5157 14.9318C24.5157 11.7664 22.9958 8.96339 20.6496 7.21058C19.056 6.02724 17.0787 5.33203 14.9465 5.33203C9.63435 5.33203 5.33301 9.64381 5.33301 14.9614C5.33301 18.1195 6.85286 20.9299 9.19905 22.6827C10.7927 23.866 12.77 24.5612 14.9022 24.5612C17.0344 24.5612 18.8199 23.9252 20.3766 22.8454C20.4283 22.9194 20.4799 22.9859 20.5463 23.0525L23.6303 26.144C24.3238 26.8392 25.4527 26.8392 26.1462 26.144C26.8397 25.4487 26.8397 24.3172 26.1462 23.622ZM14.9465 22.801C14.9465 22.801 14.9391 22.801 14.9317 22.801C14.6809 22.801 14.4374 22.7862 14.1865 22.7641C14.1497 22.7641 14.1128 22.7567 14.0685 22.7493C13.5373 22.6901 13.0282 22.5792 12.5339 22.4238C9.3835 21.4106 7.11109 18.4523 7.11109 14.9614C7.11847 10.6349 10.623 7.12183 14.9465 7.12183C18.237 7.12183 21.0554 9.16308 22.2064 12.0475C22.5679 12.9498 22.7671 13.926 22.7671 14.9614C22.7671 19.288 19.2626 22.801 14.9465 22.801Z" fill="black"/>
</g>
<defs>
<clipPath id="clip0_623_13767">
<rect width="21.3333" height="21.3333" fill="white" transform="translate(5.33301 5.33203)"/>
</clipPath>
</defs>
</svg>
