<svg width="20" height="20" viewBox="0 0 20 20" fill="none" xmlns="http://www.w3.org/2000/svg">
<g clip-path="url(#clip0_5169_70750)">
<path d="M14.6808 9.53353C14.6808 8.87163 14.5457 8.23829 14.314 7.65734C13.8266 7.51448 13.3053 7.43829 12.7648 7.43829C9.88351 7.43829 7.54761 9.63829 7.54761 12.3478C7.54761 13.0573 7.70687 13.7288 7.99645 14.3383C8.31981 14.4383 8.65282 14.5097 9.00031 14.5478C9.02444 14.5478 9.04857 14.5526 9.07753 14.5573C9.2368 14.5716 9.40089 14.5812 9.56498 14.5812C9.56498 14.5812 9.56981 14.5812 9.57463 14.5812C12.4028 14.5812 14.6905 12.3192 14.6905 9.53353H14.6808Z" fill="#90A1FF"/>
<path d="M16.3412 14.7647L14.4138 12.8325C14.3723 12.7909 14.3261 12.7586 14.28 12.7216C14.9394 11.7555 15.3222 10.5907 15.3222 9.33338C15.3222 7.35499 14.3723 5.6031 12.9059 4.50759C11.9099 3.768 10.6741 3.3335 9.34142 3.3335C6.02135 3.3335 3.33301 6.02836 3.33301 9.35187C3.33301 11.3256 4.28292 13.0822 5.74929 14.1777C6.74531 14.9172 7.98111 15.3518 9.31376 15.3518C10.6464 15.3518 11.7623 14.9542 12.7353 14.2794C12.7676 14.3256 12.7998 14.3672 12.8413 14.4088L14.7688 16.341C15.2023 16.7755 15.9078 16.7755 16.3412 16.341C16.7747 15.9064 16.7747 15.1992 16.3412 14.7647ZM9.34142 14.2516C9.34142 14.2516 9.33681 14.2516 9.3322 14.2516C9.17542 14.2516 9.02325 14.2424 8.86647 14.2285C8.84341 14.2285 8.82036 14.2239 8.79269 14.2193C8.46068 14.1823 8.14251 14.113 7.83356 14.0159C5.86457 13.3826 4.44431 11.5336 4.44431 9.35187C4.44892 6.64776 6.63925 4.45212 9.34142 4.45212C11.398 4.45212 13.1595 5.7279 13.8789 7.53064C14.1048 8.09458 14.2293 8.70473 14.2293 9.35187C14.2293 12.056 12.039 14.2516 9.34142 14.2516Z" fill="#B4C0FD"/>
</g>
<defs>
<clipPath id="clip0_5169_70750">
<rect width="13.3333" height="13.3333" fill="white" transform="translate(3.33301 3.3335)"/>
</clipPath>
</defs>
</svg>
