<svg width="84" height="20" viewBox="0 0 84 20" fill="none" xmlns="http://www.w3.org/2000/svg">
<path d="M7.62804 3.283C7.74512 2.90567 8.25488 2.90567 8.37196 3.283L9.28418 6.22307C9.33654 6.39182 9.4867 6.50607 9.65614 6.50607H12.6082C12.987 6.50607 13.1445 7.01377 12.838 7.24698L10.4498 9.06404C10.3127 9.16834 10.2554 9.3532 10.3077 9.52195L11.22 12.462C11.337 12.8394 10.9246 13.1531 10.6181 12.9199L8.22988 11.1029C8.09281 10.9986 7.90719 10.9986 7.77012 11.1029L5.38189 12.9199C5.07538 13.1531 4.66297 12.8394 4.78005 12.462L5.69227 9.52195C5.74463 9.3532 5.68727 9.16834 5.5502 9.06404L3.16197 7.24698C2.85546 7.01377 3.01298 6.50607 3.39185 6.50607H6.34386C6.5133 6.50607 6.66346 6.39182 6.71582 6.22307L7.62804 3.283Z" fill="#E5E8EB"/>
<path d="M19.628 3.283C19.7451 2.90567 20.2549 2.90567 20.372 3.283L21.2842 6.22307C21.3365 6.39182 21.4867 6.50607 21.6561 6.50607H24.6082C24.987 6.50607 25.1445 7.01377 24.838 7.24698L22.4498 9.06404C22.3127 9.16834 22.2554 9.3532 22.3077 9.52195L23.22 12.462C23.337 12.8394 22.9246 13.1531 22.6181 12.9199L20.2299 11.1029C20.0928 10.9986 19.9072 10.9986 19.7701 11.1029L17.3819 12.9199C17.0754 13.1531 16.663 12.8394 16.78 12.462L17.6923 9.52195C17.7446 9.3532 17.6873 9.16834 17.5502 9.06404L15.162 7.24698C14.8555 7.01377 15.013 6.50607 15.3918 6.50607H18.3439C18.5133 6.50607 18.6635 6.39182 18.7158 6.22307L19.628 3.283Z" fill="#E5E8EB"/>
<path d="M31.628 3.283C31.7451 2.90567 32.2549 2.90567 32.372 3.283L33.2842 6.22307C33.3365 6.39182 33.4867 6.50607 33.6561 6.50607H36.6082C36.987 6.50607 37.1445 7.01377 36.838 7.24698L34.4498 9.06404C34.3127 9.16834 34.2554 9.3532 34.3077 9.52195L35.22 12.462C35.337 12.8394 34.9246 13.1531 34.6181 12.9199L32.2299 11.1029C32.0928 10.9986 31.9072 10.9986 31.7701 11.1029L29.3819 12.9199C29.0754 13.1531 28.663 12.8394 28.78 12.462L29.6923 9.52195C29.7446 9.3532 29.6873 9.16834 29.5502 9.06404L27.162 7.24698C26.8555 7.01377 27.013 6.50607 27.3918 6.50607H30.3439C30.5133 6.50607 30.6635 6.39182 30.7158 6.22307L31.628 3.283Z" fill="#E5E8EB"/>
<path d="M43.628 3.283C43.7451 2.90567 44.2549 2.90567 44.372 3.283L45.2842 6.22307C45.3365 6.39182 45.4867 6.50607 45.6561 6.50607H48.6082C48.987 6.50607 49.1445 7.01377 48.838 7.24698L46.4498 9.06404C46.3127 9.16834 46.2554 9.3532 46.3077 9.52195L47.22 12.462C47.337 12.8394 46.9246 13.1531 46.6181 12.9199L44.2299 11.1029C44.0928 10.9986 43.9072 10.9986 43.7701 11.1029L41.3819 12.9199C41.0754 13.1531 40.663 12.8394 40.78 12.462L41.6923 9.52195C41.7446 9.3532 41.6873 9.16834 41.5502 9.06404L39.162 7.24698C38.8555 7.01377 39.013 6.50607 39.3918 6.50607H42.3439C42.5133 6.50607 42.6635 6.39182 42.7158 6.22307L43.628 3.283Z" fill="#E5E8EB"/>
<path d="M55.628 3.283C55.7451 2.90567 56.2549 2.90567 56.372 3.283L57.2842 6.22307C57.3365 6.39182 57.4867 6.50607 57.6561 6.50607H60.6082C60.987 6.50607 61.1445 7.01377 60.838 7.24698L58.4498 9.06404C58.3127 9.16834 58.2554 9.3532 58.3077 9.52195L59.22 12.462C59.337 12.8394 58.9246 13.1531 58.6181 12.9199L56.2299 11.1029C56.0928 10.9986 55.9072 10.9986 55.7701 11.1029L53.3819 12.9199C53.0754 13.1531 52.663 12.8394 52.78 12.462L53.6923 9.52195C53.7446 9.3532 53.6873 9.16834 53.5502 9.06404L51.162 7.24698C50.8555 7.01377 51.013 6.50607 51.3918 6.50607H54.3439C54.5133 6.50607 54.6635 6.39182 54.7158 6.22307L55.628 3.283Z" fill="#E5E8EB"/>
</svg>
