<svg width="24" height="24" viewBox="0 0 24 24" fill="none" xmlns="http://www.w3.org/2000/svg">
<path fill-rule="evenodd" clip-rule="evenodd" d="M10.1629 6.21513C11.6774 5.77772 13.2988 5.9004 14.7303 6.56071C16.1617 7.22103 17.3075 8.3748 17.9578 9.81083C18.6081 11.2469 18.7195 12.8691 18.2715 14.3805C17.8236 15.8919 16.8463 17.1915 15.5185 18.0412C14.1907 18.891 12.6013 19.2341 11.0412 19.0078C9.48108 18.7814 8.05469 18.0008 7.02311 16.8088C5.99153 15.6168 5.42378 14.0931 5.42378 12.5166C5.42378 12.1142 5.09749 11.7879 4.69499 11.7879C4.29249 11.7879 3.9662 12.1142 3.9662 12.5166C3.9662 14.4434 4.66013 16.3057 5.92095 17.7626C7.18177 19.2195 8.92513 20.1736 10.8319 20.4502C12.7387 20.7269 14.6813 20.3075 16.3042 19.2689C17.927 18.2303 19.1215 16.642 19.669 14.7947C20.2165 12.9474 20.0804 10.9647 19.2856 9.20954C18.4907 7.45439 17.0904 6.04422 15.3408 5.23717C13.5912 4.43012 11.6095 4.28018 9.75845 4.81479C7.90737 5.34941 6.31075 6.53282 5.26088 8.14839C5.04156 8.48588 5.13736 8.93727 5.47485 9.15659C5.81235 9.37591 6.26373 9.28011 6.48306 8.94262C7.34204 7.62079 8.64837 6.65255 10.1629 6.21513Z" fill="#191F28"/>
<path d="M5.16146 9.89972C4.94577 9.95458 4.75571 9.81495 4.74086 9.59073L4.51266 6.1473C4.4821 5.68614 5.10487 5.44971 5.25876 5.86406L6.00559 7.87495C6.05135 7.99816 6.15779 8.07816 6.28742 8.08676L8.57527 8.23859C9.00711 8.26725 8.97107 8.93088 8.53161 9.04264L5.16146 9.89972Z" fill="#191F28"/>
<path fill-rule="evenodd" clip-rule="evenodd" d="M11.6189 9.60156C12.0214 9.60156 12.3477 9.9496 12.3477 10.3789V12.6837L14.2095 14.0076C14.5444 14.2458 14.6349 14.7284 14.4116 15.0856C14.1883 15.4428 13.7359 15.5394 13.401 15.3012L11.2147 13.7465C11.0119 13.6023 10.8901 13.3596 10.8901 13.0997V10.3789C10.8901 9.9496 11.2164 9.60156 11.6189 9.60156Z" fill="#191F28"/>
</svg>
