<svg width="24" height="24" viewBox="0 0 24 24" fill="none" xmlns="http://www.w3.org/2000/svg">
<g clip-path="url(#clip0_10544_122197)">
<path d="M13.3516 9.41991C13.3516 8.30656 14.2423 7.93851 15.1876 7.8833C15.4508 7.86622 15.8843 7.84407 16.1757 7.83002C16.3094 7.82358 16.4146 7.71345 16.4146 7.57965V7.41404C16.4055 6.99998 16.1237 6.75155 15.6238 6.75155C15.2607 6.75155 15.0021 6.88664 14.8757 7.11458C14.8185 7.21773 14.7215 7.30362 14.6036 7.30362H13.799C13.6516 7.30362 13.5345 7.17573 13.573 7.03349C13.7716 6.30108 14.4911 5.75781 15.6602 5.75781C16.7327 5.75781 17.7507 6.24548 17.7507 7.45084V10.5685C17.7507 10.7066 17.6387 10.8185 17.5007 10.8185H16.7282C16.5901 10.8185 16.4782 10.7066 16.4782 10.5685V10.1511C16.4782 10.1386 16.468 10.1284 16.4555 10.1284C16.4471 10.1284 16.4394 10.133 16.4354 10.1404C16.1883 10.5941 15.7265 10.9105 14.9967 10.9105C14.0514 10.9105 13.3516 10.4136 13.3516 9.41991ZM14.6422 9.3831C14.6422 9.76956 14.9512 9.97198 15.3784 9.97198C15.9874 9.97198 16.4237 9.55793 16.4146 9.03346V8.92691C16.4146 8.78443 16.2958 8.67095 16.1535 8.67885C15.9 8.69292 15.5686 8.71364 15.4057 8.72981C14.9421 8.77582 14.6422 8.99665 14.6422 9.3831Z" fill="#90A1FF"/>
<path d="M6.30638 16.0092C6.26885 16.105 6.17648 16.168 6.07361 16.168H4.37328C4.19534 16.168 4.07437 15.9873 4.14211 15.8228L8.05325 6.32279C8.09182 6.22911 8.18311 6.16797 8.28442 6.16797H10.533C10.6342 6.16797 10.7254 6.22896 10.7641 6.32248L14.6905 15.8225C14.7586 15.9871 14.6376 16.168 14.4595 16.168H12.7597C12.6568 16.168 12.5645 16.105 12.527 16.0092L11.6827 13.8544C11.6452 13.7586 11.5528 13.6956 11.4499 13.6956H7.38342C7.28055 13.6956 7.18818 13.7586 7.15065 13.8544L6.30638 16.0092ZM7.91184 11.904C7.8475 12.068 7.96841 12.2453 8.14457 12.2453H10.6874C10.8639 12.2453 10.9848 12.0673 10.9198 11.9032L9.47484 8.25711C9.46409 8.22998 9.43787 8.21217 9.40868 8.21217C9.37941 8.21217 9.35313 8.23009 9.34244 8.25734L7.91184 11.904Z" fill="#B4C0FD"/>
<circle cx="17.3333" cy="14.9193" r="4.16667" fill="#90A1FF" stroke="#90A1FF" stroke-width="0.833333"/>
<circle cx="17.334" cy="14.918" r="3.33333" fill="#90A1FF" stroke="#B4C0FD" stroke-width="0.833333"/>
<path d="M16.084 13.668L18.584 16.168" stroke="#B4C0FD" stroke-width="0.666667" stroke-linecap="round"/>
<path d="M16.084 16.168L18.584 13.668" stroke="#B4C0FD" stroke-width="0.666667" stroke-linecap="round"/>
</g>
<defs>
<clipPath id="clip0_10544_122197">
<rect width="20" height="20" fill="white" transform="translate(2 2)"/>
</clipPath>
</defs>
</svg>
