<svg width="20" height="20" viewBox="0 0 20 20" fill="none" xmlns="http://www.w3.org/2000/svg">
<g clip-path="url(#clip0_10442_170558)">
<g clip-path="url(#clip1_10442_170558)">
<path d="M11.3506 7.42046C11.3506 6.30711 12.2413 5.93906 13.1866 5.88385C13.4498 5.86677 13.8834 5.84462 14.1748 5.83057C14.3084 5.82413 14.4136 5.714 14.4136 5.5802V5.41459C14.4045 5.00053 14.1228 4.7521 13.6229 4.7521C13.2598 4.7521 13.0011 4.88718 12.8747 5.11513C12.8175 5.21828 12.7205 5.30417 12.6026 5.30417H11.798C11.6507 5.30417 11.5335 5.17628 11.572 5.03404C11.7706 4.30163 12.4901 3.75836 13.6592 3.75836C14.7317 3.75836 15.7497 4.24603 15.7497 5.45139V8.56905C15.7497 8.70712 15.6378 8.81905 15.4997 8.81905H14.7272C14.5892 8.81905 14.4772 8.70712 14.4772 8.56905V8.15168C14.4772 8.13913 14.4671 8.12895 14.4545 8.12895C14.4461 8.12895 14.4384 8.13359 14.4344 8.14096C14.1874 8.59461 13.7255 8.91106 12.9957 8.91106C12.0504 8.91106 11.3506 8.41419 11.3506 7.42046ZM12.6412 7.38365C12.6412 7.7701 12.9503 7.97253 13.3774 7.97253C13.9864 7.97253 14.4227 7.55848 14.4136 7.034V6.92746C14.4136 6.78497 14.2948 6.6715 14.1526 6.6794C13.899 6.69347 13.5677 6.71419 13.4047 6.73036C12.9412 6.77637 12.6412 6.9972 12.6412 7.38365Z" fill="#D4DCFF"/>
<path d="M4.30638 14.0079C4.26885 14.1037 4.17648 14.1667 4.07361 14.1667H2.37328C2.19534 14.1667 2.07437 13.9861 2.14211 13.8215L6.05325 4.32151C6.09182 4.22783 6.18311 4.16669 6.28442 4.16669H8.53301C8.6342 4.16669 8.72541 4.22768 8.76406 4.32119L12.6905 13.8212C12.7586 13.9858 12.6376 14.1667 12.4595 14.1667H10.7597C10.6568 14.1667 10.5645 14.1037 10.527 14.0079L9.68269 11.8531C9.64516 11.7573 9.55279 11.6943 9.44991 11.6943H5.38342C5.28055 11.6943 5.18818 11.7573 5.15065 11.8531L4.30638 14.0079ZM5.91184 9.90273C5.8475 10.0667 5.96841 10.244 6.14457 10.244H8.6874C8.86392 10.244 8.98485 10.066 8.91981 9.90193L7.47484 6.25583C7.46409 6.2287 7.43787 6.21089 7.40868 6.21089C7.37941 6.21089 7.35313 6.22881 7.34244 6.25606L5.91184 9.90273Z" fill="#90A1FF"/>
<circle cx="15.3331" cy="12.9198" r="4.16667" fill="white" stroke="white" stroke-width="0.833333"/>
<circle cx="15.333" cy="12.9199" r="3.33333" fill="white" stroke="#90A1FF" stroke-width="0.833333"/>
<path d="M14.083 11.6701L16.583 14.1701" stroke="#90A1FF" stroke-width="0.666667" stroke-linecap="round"/>
<path d="M14.083 14.1694L16.583 11.6694" stroke="#90A1FF" stroke-width="0.666667" stroke-linecap="round"/>
</g>
</g>
<defs>
<clipPath id="clip0_10442_170558">
<rect width="20" height="20" fill="white"/>
</clipPath>
<clipPath id="clip1_10442_170558">
<rect width="20" height="20" fill="white"/>
</clipPath>
</defs>
</svg>
