<svg width="12" height="10" viewBox="0 0 12 10" fill="none" xmlns="http://www.w3.org/2000/svg">
<g id="Group 8298">
<path id="Union" fill-rule="evenodd" clip-rule="evenodd" d="M6.52022 0.153611C6.20048 -0.0512035 5.7995 -0.0512037 5.47976 0.153611L0.985925 3.03223C0.0780223 3.6138 0.534998 5.09225 1.59274 4.99545L1.98535 4.95953V9C1.98535 9.55228 2.43465 10 2.98888 10H4.49418C4.77129 10 4.99594 9.77614 4.99594 9.5V6.5C4.99594 6.22386 5.22059 6 5.49771 6H6.50124C6.77835 6 7.003 6.22386 7.003 6.5V9.5C7.003 9.77614 7.22765 10 7.50477 10H9.01006C9.5643 10 10.0136 9.55228 10.0136 9V4.95944L10.4073 4.99546C11.465 5.09226 11.922 3.61381 11.0141 3.03224L6.52022 0.153611Z" fill="#4E5968"/>
</g>
</svg>
