<svg width="24" height="24" viewBox="0 0 24 24" fill="none" xmlns="http://www.w3.org/2000/svg">
<g clip-path="url(#clip0_9720_260228)">
<path d="M18 12C18 15.3137 15.3137 18 12 18C8.68629 18 6 15.3137 6 12C6 8.68629 8.68629 6 12 6C15.3137 6 18 8.68629 18 12Z" fill="#D1D6DB"/>
<path d="M12.8588 9.42939C12.8588 9.90276 12.475 10.2865 12.0017 10.2865C11.5283 10.2865 11.1445 9.90276 11.1445 9.42939C11.1445 8.95601 11.5283 8.57227 12.0017 8.57227C12.475 8.57227 12.8588 8.95601 12.8588 9.42939Z" fill="white"/>
<path fill-rule="evenodd" clip-rule="evenodd" d="M12.0064 11.2002C12.3616 11.2002 12.6496 11.4688 12.6496 11.8002V15.0002C12.6496 15.3316 12.3616 15.6002 12.0064 15.6002C11.6512 15.6002 11.3633 15.3316 11.3633 15.0002V11.8002C11.3633 11.4688 11.6512 11.2002 12.0064 11.2002Z" fill="white"/>
</g>
<defs>
<clipPath id="clip0_9720_260228">
<rect width="16" height="16" fill="white" transform="translate(4 4)"/>
</clipPath>
</defs>
</svg>
