<svg width="12" height="12" viewBox="0 0 12 12" fill="none" xmlns="http://www.w3.org/2000/svg">
<g id="Group 550">
<path id="Ellipse 75" d="M12 6C12 9.31371 9.31371 12 6 12C2.68629 12 0 9.31371 0 6C0 2.68629 2.68629 0 6 0C9.31371 0 12 2.68629 12 6Z" fill="#B0B8C1"/>
<g id="Group 8178">
<path id="Ellipse 76" d="M6.85779 3.42939C6.85779 3.90276 6.47405 4.28651 6.00067 4.28651C5.5273 4.28651 5.14355 3.90276 5.14355 3.42939C5.14355 2.95601 5.5273 2.57227 6.00067 2.57227C6.47405 2.57227 6.85779 2.95601 6.85779 3.42939Z" fill="white"/>
<path id="Vector 30 (Stroke)" fill-rule="evenodd" clip-rule="evenodd" d="M6.00642 5.2002C6.36161 5.2002 6.64955 5.46882 6.64955 5.8002V9.0002C6.64955 9.33157 6.36161 9.6002 6.00642 9.6002C5.65122 9.6002 5.36328 9.33157 5.36328 9.0002V5.8002C5.36328 5.46882 5.65122 5.2002 6.00642 5.2002Z" fill="white"/>
</g>
</g>
</svg>
