<svg width="24" height="24" viewBox="0 0 24 24" fill="none" xmlns="http://www.w3.org/2000/svg">
<g id="ic_search">
<g id="Group 356">
<path id="Ellipse 21 (Stroke)" fill-rule="evenodd" clip-rule="evenodd" d="M10.1578 14.8946C12.7739 14.8946 14.8946 12.7739 14.8946 10.1578C14.8946 7.54177 12.7739 5.42104 10.1578 5.42104C7.54177 5.42104 5.42104 7.54177 5.42104 10.1578C5.42104 12.7739 7.54177 14.8946 10.1578 14.8946ZM10.1578 16.3156C13.5587 16.3156 16.3157 13.5587 16.3157 10.1578C16.3157 6.75695 13.5587 4 10.1578 4C6.75695 4 4 6.75695 4 10.1578C4 13.5587 6.75695 16.3156 10.1578 16.3156Z" fill="#4E5968"/>
<path id="Line 29 (Stroke)" fill-rule="evenodd" clip-rule="evenodd" d="M13.6216 13.6196C13.8991 13.3421 14.349 13.3421 14.6264 13.6196L19.4979 18.491C19.7754 18.7685 19.7754 19.2184 19.4979 19.4959C19.2204 19.7733 18.7705 19.7733 18.4931 19.4959L13.6216 14.6244C13.3441 14.3469 13.3441 13.8971 13.6216 13.6196Z" fill="#4E5968"/>
</g>
</g>
</svg>
