<svg width="24" height="24" viewBox="0 0 24 24" fill="none" xmlns="http://www.w3.org/2000/svg">
<path fill-rule="evenodd" clip-rule="evenodd" d="M12 6C8.3272 6 5.82114 7.69399 4.36687 9.12134C2.9329 10.5288 2.11711 12.1268 2.06207 12.2346L2.06028 12.2381L2.06022 12.238L2.05837 12.2419C2.01995 12.3227 2 12.4108 2 12.5C2 12.5892 2.01995 12.6773 2.05837 12.7581L2.05831 12.7581L2.06028 12.7619C2.06024 12.7619 2.0605 12.7624 2.06125 12.7639L2.06397 12.7695L2.07295 12.788C2.08039 12.8033 2.09054 12.824 2.10343 12.8498C2.1292 12.9014 2.16578 12.9729 2.21355 13.0614C2.30908 13.2384 2.4493 13.4833 2.6374 13.7736C3.01347 14.354 3.5816 15.1165 4.36746 15.8792C5.93861 17.4042 8.32763 19 12 19C15.6728 19 18.1789 17.306 19.6331 15.8787C21.0671 14.4712 21.8829 12.8732 21.9379 12.7654L21.9397 12.7619L21.9398 12.762L21.9416 12.7581C21.98 12.6773 22 12.5892 22 12.5C22 12.4108 21.98 12.3227 21.9416 12.2419L21.9417 12.2419L21.9397 12.2381C21.9398 12.2381 21.9395 12.2376 21.9387 12.2361L21.936 12.2305L21.927 12.212C21.9196 12.1967 21.9095 12.176 21.8966 12.1502C21.8708 12.0986 21.8342 12.0271 21.7864 11.9386C21.6909 11.7616 21.5507 11.5167 21.3626 11.2264C20.9865 10.646 20.4184 9.88349 19.6325 9.12076C18.0614 7.59585 15.6724 6 12 6ZM5.30876 9.99009C7.1678 8.18404 9.41789 7.27068 12 7.27068C14.5821 7.27068 16.8322 8.18404 18.6912 9.99009L18.6915 9.99034C19.4572 10.7307 20.1074 11.5764 20.6214 12.5004C20.0135 13.6026 17.3842 17.7293 12 17.7293C9.41789 17.7293 7.1678 16.816 5.30876 15.0099L5.30851 15.0097C4.54291 14.2694 3.89282 13.4238 3.37883 12.5C3.89282 11.5761 4.5429 10.7306 5.30851 9.99034L5.30876 9.99009ZM12 8.60652C11.2119 8.60652 10.4413 8.83456 9.7856 9.26207C9.1299 9.6896 8.61847 10.2975 8.31636 11.0092C8.01424 11.721 7.93515 12.5043 8.08921 13.26C8.24326 14.0158 8.62343 14.7096 9.18128 15.254C9.73909 15.7983 10.4495 16.1687 11.2225 16.3188C11.9956 16.4688 12.7968 16.3918 13.5252 16.0974C14.2535 15.803 14.8764 15.3043 15.3149 14.664C15.7533 14.0237 15.9875 13.2706 15.9875 12.5C15.9875 11.4666 15.5668 10.476 14.8187 9.74604C14.0707 9.01614 13.0568 8.60652 12 8.60652ZM11.4747 9.92768C11.997 9.82629 12.5384 9.87835 13.0303 10.0772C13.5222 10.276 13.9422 10.6125 14.2375 11.0438C14.5327 11.4749 14.6902 11.9815 14.6903 12.4996C14.6882 13.1939 14.4046 13.8597 13.9007 14.3514C13.3968 14.8432 12.7133 15.1208 11.9996 15.1228C11.4671 15.1227 10.9468 14.9686 10.5044 14.6802C10.062 14.3917 9.7175 13.9819 9.51418 13.5029C9.31087 13.024 9.25772 12.4971 9.36133 11.9888C9.46494 11.4805 9.72076 11.0132 10.0968 10.6463C10.4729 10.2793 10.9524 10.0291 11.4747 9.92768Z" fill="#D1D6DB"/>
<rect x="4.74585" y="4" width="20.9895" height="1" rx="0.5" transform="rotate(48.2374 4.74585 4)" fill="#D1D6DB" stroke="#D1D6DB" stroke-width="0.4"/>
</svg>
