<svg width="16" height="16" viewBox="0 0 16 16" fill="none" xmlns="http://www.w3.org/2000/svg">
<path d="M14 8C14 11.3137 11.3137 14 8 14C4.68629 14 2 11.3137 2 8C2 4.68629 4.68629 2 8 2C11.3137 2 14 4.68629 14 8Z" fill="#4E32F6"/>
<path d="M8.85877 5.42939C8.85877 5.90276 8.47503 6.28651 8.00165 6.28651C7.52828 6.28651 7.14453 5.90276 7.14453 5.42939C7.14453 4.95601 7.52828 4.57227 8.00165 4.57227C8.47503 4.57227 8.85877 4.95601 8.85877 5.42939Z" fill="white"/>
<path fill-rule="evenodd" clip-rule="evenodd" d="M8.00642 7.2002C8.36161 7.2002 8.64955 7.46882 8.64955 7.8002V11.0002C8.64955 11.3316 8.36161 11.6002 8.00642 11.6002C7.65122 11.6002 7.36328 11.3316 7.36328 11.0002V7.8002C7.36328 7.46882 7.65122 7.2002 8.00642 7.2002Z" fill="white"/>
</svg>
