<svg width="24" height="24" viewBox="0 0 24 24" fill="none" xmlns="http://www.w3.org/2000/svg">
<circle cx="12" cy="12" r="8" fill="#D1D6DB"/>
<path d="M11.0957 14.0946C11.1005 13.5135 11.1627 13.0428 11.2823 12.6824C11.4067 12.3221 11.5789 12.0315 11.799 11.8108C12.0191 11.5901 12.3158 11.3739 12.689 11.1622C13.0048 10.982 13.2584 10.7545 13.4498 10.4797C13.6411 10.2005 13.7368 9.88288 13.7368 9.52703C13.7368 9.22973 13.6603 8.96847 13.5072 8.74324C13.3589 8.51351 13.1531 8.33784 12.89 8.21622C12.6316 8.09009 12.3445 8.02703 12.0287 8.02703C11.7416 8.02703 11.4713 8.08333 11.2177 8.19595C10.9689 8.30405 10.7608 8.47748 10.5933 8.71622C10.4306 8.95045 10.3349 9.24324 10.3062 9.59459H9C9.02392 9.06306 9.17225 8.60135 9.44498 8.20946C9.7177 7.81757 10.0789 7.51802 10.5287 7.31081C10.9785 7.1036 11.4785 7 12.0287 7C12.6172 7 13.1364 7.11261 13.5861 7.33784C14.0359 7.55856 14.3828 7.86486 14.6268 8.25676C14.8756 8.64865 15 9.09009 15 9.58108C15 10.5766 14.5263 11.3468 13.5789 11.8919C13.2727 12.0676 13.0311 12.25 12.8541 12.4392C12.6818 12.6284 12.5526 12.8536 12.4665 13.1149C12.3852 13.3761 12.3397 13.7027 12.3301 14.0946V14.1622H11.0957V14.0946ZM11.756 17C11.5885 17 11.433 16.9617 11.2895 16.8851C11.1507 16.8041 11.0383 16.6959 10.9522 16.5608C10.8708 16.4257 10.8325 16.2793 10.8373 16.1216C10.8325 15.9685 10.8708 15.8266 10.9522 15.6959C11.0383 15.5608 11.1507 15.455 11.2895 15.3784C11.433 15.2973 11.5885 15.2568 11.756 15.2568C11.9187 15.2568 12.0694 15.2973 12.2081 15.3784C12.3517 15.455 12.4641 15.5608 12.5455 15.6959C12.6316 15.8266 12.6746 15.9685 12.6746 16.1216C12.6746 16.2793 12.6316 16.4257 12.5455 16.5608C12.4641 16.6959 12.3517 16.8041 12.2081 16.8851C12.0694 16.9617 11.9187 17 11.756 17Z" fill="white"/>
</svg>
