<svg width="20" height="20" viewBox="0 0 20 20" fill="none" xmlns="http://www.w3.org/2000/svg">
<path d="M17.5 10C17.5 14.1421 14.1421 17.5 10 17.5C5.85786 17.5 2.5 14.1421 2.5 10C2.5 5.85786 5.85786 2.5 10 2.5C14.1421 2.5 17.5 5.85786 17.5 10Z" fill="#191F28"/>
<path d="M11.0725 6.78673C11.0725 7.37845 10.5928 7.85813 10.0011 7.85813C9.40937 7.85813 8.92969 7.37845 8.92969 6.78673C8.92969 6.19501 9.40937 5.71533 10.0011 5.71533C10.5928 5.71533 11.0725 6.19501 11.0725 6.78673Z" fill="white"/>
<path fill-rule="evenodd" clip-rule="evenodd" d="M10.008 9C10.452 9 10.8119 9.33579 10.8119 9.75V13.75C10.8119 14.1642 10.452 14.5 10.008 14.5C9.56403 14.5 9.2041 14.1642 9.2041 13.75V9.75C9.2041 9.33579 9.56403 9 10.008 9Z" fill="white"/>
</svg>
