<svg width="24" height="24" viewBox="0 0 24 24" fill="none" xmlns="http://www.w3.org/2000/svg">
<path fill-rule="evenodd" clip-rule="evenodd" d="M5.60225 5.60283C5.82192 5.38316 6.17808 5.38316 6.39775 5.60283L18.3977 17.6028C18.6174 17.8225 18.6174 18.1787 18.3977 18.3983C18.1781 18.618 17.8219 18.618 17.6023 18.3983L5.60225 6.39832C5.38258 6.17865 5.38258 5.8225 5.60225 5.60283Z" fill="#D1D6DB"/>
<path fill-rule="evenodd" clip-rule="evenodd" d="M18.3977 5.60283C18.1781 5.38316 17.8219 5.38316 17.6023 5.60283L5.60225 17.6028C5.38258 17.8225 5.38258 18.1787 5.60225 18.3983C5.82192 18.618 6.17808 18.618 6.39775 18.3983L18.3977 6.39832C18.6174 6.17865 18.6174 5.8225 18.3977 5.60283Z" fill="#D1D6DB"/>
</svg>
