<svg width="20" height="20" viewBox="0 0 20 20" fill="none" xmlns="http://www.w3.org/2000/svg">
<g clip-path="url(#clip0_5169_70864)">
<path d="M11.2943 4.76975L7.12765 6.85309C6.84533 6.99425 6.66699 7.2828 6.66699 7.59844V13.2351C6.66699 13.5507 6.84533 13.8392 7.12765 13.9804L11.2943 16.0637C11.8484 16.3408 12.5003 15.9379 12.5003 15.3184V5.51511C12.5003 4.89562 11.8484 4.49271 11.2943 4.76975Z" fill="#90A1FF"/>
<path d="M3.33398 7.91677C3.33398 7.45653 3.70708 7.08344 4.16732 7.08344H6.66732V13.7501H4.16732C3.70708 13.7501 3.33398 13.377 3.33398 12.9168V7.91677Z" fill="#B4C0FD"/>
<path d="M12.501 8.74996C12.7198 8.74996 12.9366 8.79734 13.1388 8.88941C13.341 8.98147 13.5247 9.11641 13.6795 9.28652C13.8343 9.45663 13.957 9.65858 14.0408 9.88084C14.1245 10.1031 14.1676 10.3413 14.1676 10.5819C14.1676 10.8225 14.1245 11.0607 14.0408 11.2829C13.957 11.5052 13.8343 11.7071 13.6795 11.8773C13.5247 12.0474 13.341 12.1823 13.1388 12.2744C12.9366 12.3664 12.7198 12.4138 12.501 12.4138L12.501 10.5819L12.501 8.74996Z" fill="#B4C0FD"/>
<path fill-rule="evenodd" clip-rule="evenodd" d="M14.7648 8.1084C14.7778 8.11457 14.791 8.12042 14.8042 8.12594C15.1042 8.25143 15.38 8.46499 15.6075 8.75397C15.9896 9.23922 16.2042 9.89734 16.2042 10.5836C16.2042 11.2698 15.9896 11.9279 15.6075 12.4132C15.38 12.7022 15.1042 12.9157 14.8042 13.0412C14.791 13.0467 14.7778 13.0526 14.7648 13.0588C14.6968 13.0908 14.631 13.1314 14.5695 13.1796C14.3383 13.3607 14.167 13.6491 14.167 13.9941C14.167 14.4487 14.4598 14.8253 14.811 14.7374C14.9462 14.7036 15.0793 14.6593 15.2096 14.6048C15.2533 14.5865 15.2966 14.5671 15.3396 14.5466C15.7801 14.3363 16.1849 14.008 16.524 13.5772C17.1491 12.7832 17.5003 11.7064 17.5003 10.5836C17.5003 9.46075 17.1491 8.38392 16.524 7.58996C16.1849 7.1592 15.7801 6.83085 15.3396 6.62059C15.2966 6.60006 15.2533 6.58065 15.2096 6.56239C15.0793 6.50788 14.9462 6.46352 14.811 6.42972C14.4598 6.34189 14.167 6.71847 14.167 7.17305C14.167 7.5181 14.3383 7.80643 14.5695 7.98752C14.631 8.03573 14.6968 8.07634 14.7648 8.1084Z" fill="#B4C0FD"/>
</g>
<defs>
<clipPath id="clip0_5169_70864">
<rect width="20" height="20" fill="white"/>
</clipPath>
</defs>
</svg>
