<svg width="16" height="16" viewBox="0 0 16 16" fill="none" xmlns="http://www.w3.org/2000/svg">
<path fill-rule="evenodd" clip-rule="evenodd" d="M7.36396 11.6066L11.6066 7.36396C12.3876 6.58291 12.3876 5.31658 11.6066 4.53553C10.8255 3.75449 9.55922 3.75449 8.77817 4.53553L4.53553 8.77817C3.75448 9.55922 3.75448 10.8256 4.53553 11.6066C5.31658 12.3877 6.58291 12.3877 7.36396 11.6066ZM12.6673 3.47487C11.3004 2.10804 9.08434 2.10804 7.71751 3.47487L3.47487 7.71751C2.10803 9.08435 2.10803 11.3004 3.47487 12.6673C4.8417 14.0341 7.05778 14.0341 8.42462 12.6673L12.6673 8.42462C14.0341 7.05779 14.0341 4.84171 12.6673 3.47487Z" fill="black"/>
<path fill-rule="evenodd" clip-rule="evenodd" d="M10.4052 5.8089C10.6981 6.1018 10.6981 6.57667 10.4052 6.86956L6.86968 10.4051C6.57679 10.698 6.10192 10.698 5.80902 10.4051C5.51613 10.1122 5.51613 9.63733 5.80902 9.34444L9.34456 5.8089C9.63745 5.51601 10.1123 5.51601 10.4052 5.8089Z" fill="black"/>
<path d="M9.48535 8.7782L10.8996 10.1924L9.8389 11.2531L8.42469 9.83886L9.48535 8.7782Z" fill="#F2F4F6"/>
<path d="M5.94971 5.24268L7.36392 6.65689L6.30326 7.71755L4.88905 6.30334L5.94971 5.24268Z" fill="#F2F4F6"/>
</svg>
