<svg width="32" height="32" viewBox="0 0 32 32" fill="none" xmlns="http://www.w3.org/2000/svg">
<g clip-path="url(#clip0_623_13881)">
<path d="M18.0712 7.63278L11.4045 10.9661C10.9528 11.192 10.6675 11.6537 10.6675 12.1587V21.1773C10.6675 21.6823 10.9528 22.144 11.4045 22.3698L18.0712 25.7032C18.9577 26.1464 20.0008 25.5018 20.0008 24.5106V8.82535C20.0008 7.83417 18.9577 7.18951 18.0712 7.63278Z" fill="#D1D6DB"/>
<path d="M5.33447 12.6693C5.33447 11.9329 5.93143 11.3359 6.66781 11.3359H10.6678V22.0026H6.66781C5.93143 22.0026 5.33447 21.4057 5.33447 20.6693V12.6693Z" fill="black"/>
<path d="M20.0015 14.0011C20.3517 14.0011 20.6984 14.0769 21.022 14.2242C21.3455 14.3715 21.6395 14.5874 21.8871 14.8596C22.1347 15.1318 22.3311 15.4549 22.4651 15.8105C22.5992 16.1661 22.6681 16.5473 22.6681 16.9322C22.6681 17.3171 22.5992 17.6983 22.4651 18.0539C22.3311 18.4095 22.1347 18.7326 21.8871 19.0048C21.6395 19.277 21.3455 19.4929 21.022 19.6402C20.6984 19.7875 20.3517 19.8633 20.0015 19.8633L20.0015 16.9322L20.0015 14.0011Z" fill="black"/>
<path fill-rule="evenodd" clip-rule="evenodd" d="M23.6239 12.9707C23.6448 12.9806 23.6658 12.9899 23.687 12.9988C24.167 13.1996 24.6083 13.5413 24.9723 14.0036C25.5836 14.78 25.927 15.833 25.927 16.931C25.927 18.029 25.5836 19.082 24.9723 19.8584C24.6083 20.3207 24.167 20.6624 23.687 20.8632C23.6658 20.872 23.6448 20.8814 23.6239 20.8913C23.5152 20.9426 23.4099 21.0075 23.3114 21.0847C22.9415 21.3744 22.6675 21.8358 22.6675 22.3878C22.6675 23.1152 23.136 23.7177 23.6979 23.5772C23.9142 23.5231 24.1271 23.4521 24.3357 23.3649C24.4055 23.3357 24.4749 23.3046 24.5437 23.2718C25.2485 22.9353 25.8961 22.41 26.4387 21.7208C27.4389 20.4504 28.0008 18.7275 28.0008 16.931C28.0008 15.1345 27.4389 13.4115 26.4387 12.1412C25.8961 11.452 25.2485 10.9266 24.5437 10.5902C24.4749 10.5574 24.4055 10.5263 24.3357 10.4971C24.1271 10.4099 23.9142 10.3389 23.6979 10.2848C23.136 10.1443 22.6675 10.7468 22.6675 11.4741C22.6675 12.0262 22.9415 12.4875 23.3114 12.7773C23.4099 12.8544 23.5152 12.9194 23.6239 12.9707Z" fill="black"/>
</g>
<defs>
<clipPath id="clip0_623_13881">
<rect width="32" height="32" fill="white"/>
</clipPath>
</defs>
</svg>
