<svg width="24" height="24" viewBox="0 0 24 24" fill="none" xmlns="http://www.w3.org/2000/svg">
<g clip-path="url(#clip0_300_412)">
<path d="M13.5528 5.72361L8.55279 8.22361C8.214 8.393 8 8.73926 8 9.11803V15.882C8 16.2607 8.214 16.607 8.55279 16.7764L13.5528 19.2764C14.2177 19.6088 15 19.1253 15 18.382V6.61803C15 5.87465 14.2177 5.39116 13.5528 5.72361Z" fill="#B4C0FD"/>
<path d="M4 9.5C4 8.94772 4.44772 8.5 5 8.5H8V16.5H5C4.44772 16.5 4 16.0523 4 15.5V9.5Z" fill="#4E32F6"/>
<path d="M15 10.5C15.2626 10.5 15.5227 10.5568 15.7654 10.6673C16.008 10.7778 16.2285 10.9397 16.4142 11.1438C16.5999 11.348 16.7472 11.5903 16.8478 11.857C16.9483 12.1237 17 12.4096 17 12.6983C17 12.987 16.9483 13.2728 16.8478 13.5395C16.7472 13.8063 16.5999 14.0486 16.4142 14.2527C16.2285 14.4569 16.008 14.6188 15.7654 14.7293C15.5227 14.8397 15.2626 14.8966 15 14.8966L15 12.6983L15 10.5Z" fill="#4E32F6"/>
<path fill-rule="evenodd" clip-rule="evenodd" d="M17.7173 9.72974C17.733 9.73714 17.7488 9.74416 17.7646 9.75079C18.1246 9.90137 18.4556 10.1577 18.7286 10.5044C19.1871 11.0867 19.4447 11.8765 19.4447 12.7C19.4447 13.5234 19.1871 14.3132 18.7286 14.8955C18.4556 15.2423 18.1246 15.4985 17.7646 15.6491C17.7488 15.6557 17.733 15.6628 17.7173 15.6702C17.6358 15.7086 17.5568 15.7574 17.483 15.8152C17.2055 16.0325 17 16.3785 17 16.7926C17 17.3381 17.3514 17.79 17.7728 17.6846C17.935 17.644 18.0947 17.5908 18.2511 17.5254C18.3035 17.5035 18.3556 17.4802 18.4072 17.4555C18.9358 17.2032 19.4214 16.8092 19.8284 16.2923C20.5786 15.3395 21 14.0473 21 12.7C21 11.3526 20.5786 10.0604 19.8284 9.10761C19.4214 8.5907 18.9358 8.19668 18.4072 7.94437C18.3556 7.91973 18.3035 7.89644 18.2511 7.87452C18.0947 7.80911 17.935 7.75589 17.7728 7.71532C17.3514 7.60992 17 8.06183 17 8.60732C17 9.02137 17.2055 9.36737 17.483 9.58468C17.5568 9.64254 17.6358 9.69127 17.7173 9.72974Z" fill="#4E32F6"/>
</g>
<defs>
<clipPath id="clip0_300_412">
<rect width="24" height="24" fill="white"/>
</clipPath>
</defs>
</svg>
