<svg width="24" height="24" viewBox="0 0 24 24" fill="none" xmlns="http://www.w3.org/2000/svg">
<path fill-rule="evenodd" clip-rule="evenodd" d="M15.6076 8.71427C16.0469 9.15361 16.0469 9.86592 15.6076 10.3053L10.3043 15.6086C9.86494 16.0479 9.15263 16.0479 8.71329 15.6086C8.27395 15.1692 8.27395 14.4569 8.71329 14.0176L14.0166 8.71427C14.4559 8.27493 15.1682 8.27493 15.6076 8.71427Z" fill="#6B7684"/>
<path fill-rule="evenodd" clip-rule="evenodd" d="M11.0459 17.4099L13.1672 15.2886L14.7582 16.8796L12.6369 19.0009C10.5867 21.0511 7.26256 21.0511 5.2123 19.0009C3.16205 16.9506 3.16205 13.6265 5.2123 11.5763L7.33362 9.45496L8.92461 11.0459L6.80329 13.1673C5.63172 14.3388 5.63172 16.2383 6.80329 17.4099C7.97487 18.5815 9.87436 18.5815 11.0459 17.4099ZM10.5156 9.45496L13.1673 6.8033C14.3388 5.63173 16.2383 5.63173 17.4099 6.8033C18.5815 7.97487 18.5815 9.87437 17.4099 11.0459L14.7582 13.6976L16.3492 15.2886L19.0009 12.6369C21.0511 10.5867 21.0511 7.26256 19.0009 5.21231C16.9506 3.16206 13.6265 3.16206 11.5763 5.21231L8.92461 7.86397L10.5156 9.45496Z" fill="#6B7684"/>
</svg>
