<svg width="20" height="20" viewBox="0 0 20 20" fill="none" xmlns="http://www.w3.org/2000/svg">
<g clip-path="url(#clip0_5169_70706)">
<circle cx="10" cy="8.33331" r="5" fill="#90A1FF"/>
<path d="M7.50033 15.8333C7.04009 15.8333 6.66699 15.4602 6.66699 14.9999L6.66699 12.4999L13.3337 12.4999L13.3337 14.9999C13.3337 15.4602 12.9606 15.8333 12.5003 15.8333L7.50033 15.8333Z" fill="#B4C0FD"/>
<path d="M9.16634 17.5C8.7061 17.5 8.33301 17.1269 8.33301 16.6667L8.33301 15.8333L11.6663 15.8333L11.6663 16.6667C11.6663 17.1269 11.2932 17.5 10.833 17.5L9.16634 17.5Z" fill="#B4C0FD"/>
<path fill-rule="evenodd" clip-rule="evenodd" d="M10.4163 9.16667L10.4163 12.5L9.58301 12.5L9.58301 9.16667L10.4163 9.16667Z" fill="#B4C0FD"/>
<circle cx="8.75" cy="8.75" r="1.25" fill="#B4C0FD"/>
<circle cx="11.25" cy="8.75" r="1.25" fill="#B4C0FD"/>
</g>
<defs>
<clipPath id="clip0_5169_70706">
<rect width="20" height="20" fill="white"/>
</clipPath>
</defs>
</svg>
