<svg width="24" height="24" viewBox="0 0 24 24" fill="none" xmlns="http://www.w3.org/2000/svg">
<g id="ic/24/menu/Category">
<g id="Group 360">
<path id="Line 30 (Stroke)" fill-rule="evenodd" clip-rule="evenodd" d="M14 12.25C14 12.8023 13.6518 13.25 13.2222 13.25L0.777778 13.25C0.348224 13.25 0 12.8023 0 12.25C0 11.6977 0.348224 11.25 0.777778 11.25L13.2222 11.25C13.6518 11.25 14 11.6977 14 12.25Z" fill="black"/>
<path id="Line 32 (Stroke)" fill-rule="evenodd" clip-rule="evenodd" d="M14 7C14 7.55228 13.6518 8 13.2222 8L0.777778 8C0.348224 8 0 7.55228 0 7C0 6.44772 0.348224 6 0.777778 6L13.2222 6C13.6518 6 14 6.44772 14 7Z" fill="black"/>
<path id="Line 33 (Stroke)" fill-rule="evenodd" clip-rule="evenodd" d="M14 17.5C14 18.0523 13.6518 18.5 13.2222 18.5L0.777778 18.5C0.348224 18.5 0 18.0523 0 17.5C0 16.9477 0.348224 16.5 0.777778 16.5H13.2222C13.6518 16.5 14 16.9477 14 17.5Z" fill="black"/>
</g>
</g>
</svg>
