<svg width="32" height="32" viewBox="0 0 32 32" fill="none" xmlns="http://www.w3.org/2000/svg">
<path d="M6.24367 10.0975C6.73135 10.5922 7.4728 11.0693 8.46093 11.4845C10.4373 12.3148 13.1493 12.7917 16 12.7917C18.8507 12.7917 21.5627 12.3148 23.5391 11.4845C24.5272 11.0693 25.2686 10.5922 25.7563 10.0975C25.8469 10.0056 25.928 9.91394 26 9.82272V8.66667H6V9.82272C6.07197 9.91394 6.15306 10.0056 6.24367 10.0975Z" fill="black"/>
<path d="M23.8887 12.3306C24.7291 11.9776 25.4423 11.567 26 11.1087V14.4061C25.928 14.4973 25.8469 14.5889 25.7563 14.6808C25.2686 15.1755 24.5272 15.6527 23.5391 16.0678C21.5627 16.8982 18.8507 17.375 16 17.375C13.1493 17.375 10.4373 16.8982 8.46093 16.0678C7.4728 15.6527 6.73135 15.1755 6.24367 14.6808C6.15306 14.5889 6.07197 14.4973 6 14.4061V11.1087C6.55775 11.567 7.27089 11.9776 8.11128 12.3307C10.2266 13.2194 13.0642 13.7083 16 13.7083C18.9358 13.7083 21.7734 13.2194 23.8887 12.3306Z" fill="black"/>
<path d="M26 15.692C25.4423 16.1503 24.7291 16.5609 23.8887 16.914C21.7734 17.8027 18.9358 18.2917 16 18.2917C13.0642 18.2917 10.2266 17.8027 8.11128 16.914C7.27089 16.5609 6.55775 16.1503 6 15.692V18.9894C6.07197 19.0806 6.15306 19.1723 6.24367 19.2642C6.73135 19.7588 7.4728 20.236 8.46093 20.6512C10.4373 21.4815 13.1493 21.9583 16 21.9583C18.8507 21.9583 21.5627 21.4815 23.5391 20.6512C24.5272 20.236 25.2686 19.7588 25.7563 19.2642C25.8469 19.1723 25.928 19.0806 26 18.9894V15.692Z" fill="black"/>
<path d="M26 20.2754C25.4423 20.7337 24.7291 21.1442 23.8887 21.4973C21.7734 22.3861 18.9358 22.875 16 22.875C13.0642 22.875 10.2266 22.3861 8.11128 21.4973C7.27089 21.1442 6.55775 20.7337 6 20.2754V23.3333H26V20.2754Z" fill="black"/>
<path d="M26 23.3333C26 23.8148 25.7413 24.2916 25.2388 24.7365C24.7362 25.1814 23.9997 25.5856 23.0711 25.9261C22.1425 26.2665 21.0401 26.5366 19.8268 26.7209C18.6136 26.9052 17.3132 27 16 27C14.6868 27 13.3864 26.9052 12.1732 26.7209C10.9599 26.5366 9.85752 26.2665 8.92893 25.9261C8.00035 25.5856 7.26375 25.1814 6.7612 24.7365C6.25866 24.2916 6 23.8148 6 23.3333H26Z" fill="black"/>
<path d="M26 8.66667C26 10.6917 21.5228 12.3333 16 12.3333C10.4772 12.3333 6 10.6917 6 8.66667C6 6.64162 10.4772 5 16 5C21.5228 5 26 6.64162 26 8.66667Z" fill="black"/>
</svg>
