<svg width="32" height="32" viewBox="0 0 32 32" fill="none" xmlns="http://www.w3.org/2000/svg">
<path fill-rule="evenodd" clip-rule="evenodd" d="M4 8C4 7.44772 4.44772 7 5 7H27C27.5523 7 28 7.44772 28 8V13.5C28 13.7761 27.7727 13.9936 27.5051 14.0617C26.6399 14.282 26 15.0663 26 16C26 16.9337 26.6399 17.718 27.5051 17.9383C27.7727 18.0064 28 18.2239 28 18.5V24C28 24.5523 27.5523 25 27 25H5C4.44772 25 4 24.5523 4 24V18.5C4 18.2239 4.22733 18.0064 4.49494 17.9383C5.36012 17.718 6 16.9337 6 16C6 15.0663 5.36012 14.282 4.49494 14.0617C4.22733 13.9936 4 13.7761 4 13.5V8Z" fill="black"/>
<path d="M13.0385 16.177C11.7135 16.177 11 15.3173 11 14.0936C11 12.8597 11.7475 12 13.0385 12C14.3862 12 15.0997 12.8597 15.111 14.0936C15.0997 15.3375 14.3749 16.177 13.0385 16.177ZM13.0385 15.0948C13.5028 15.0948 13.7293 14.7004 13.7293 14.0936C13.7293 13.4968 13.5142 13.0822 13.0385 13.0822C12.6082 13.0822 12.3817 13.5171 12.3817 14.0936C12.3817 14.7004 12.6308 15.0948 13.0385 15.0948ZM18.9388 20C17.6138 20 16.9003 19.1403 16.9003 17.9166C16.9003 16.6827 17.6478 15.823 18.9388 15.823C20.2865 15.823 21 16.6827 21 17.9166C21 19.1606 20.2639 20 18.9388 20ZM18.9388 18.9178C19.3918 18.9178 19.6183 18.5234 19.6297 17.9166C19.6183 17.3198 19.4145 16.9052 18.9388 16.9153C18.5085 16.9052 18.2707 17.3401 18.2707 17.9166C18.2707 18.5234 18.5198 18.9178 18.9388 18.9178ZM12.4156 19.6662L18.0555 12.3439H19.5617L13.9219 19.6662H12.4156Z" fill="white"/>
</svg>
