<svg width="20" height="20" viewBox="0 0 20 20" fill="none" xmlns="http://www.w3.org/2000/svg">
<g id="ic/16/plus">
<g id="Vector">
<mask id="path-1-outside-1_6074_93874" maskUnits="userSpaceOnUse" x="4" y="4" width="12" height="12" fill="black">
<rect fill="white" x="4" y="4" width="12" height="12"/>
<path d="M5 10H10ZM15 10H10ZM10 10V5ZM10 10V15Z"/>
</mask>
<path d="M5 9.3C4.6134 9.3 4.3 9.6134 4.3 10C4.3 10.3866 4.6134 10.7 5 10.7V9.3ZM15 10.7C15.3866 10.7 15.7 10.3866 15.7 10C15.7 9.6134 15.3866 9.3 15 9.3V10.7ZM10.7 5C10.7 4.6134 10.3866 4.3 10 4.3C9.6134 4.3 9.3 4.6134 9.3 5H10.7ZM9.3 15C9.3 15.3866 9.6134 15.7 10 15.7C10.3866 15.7 10.7 15.3866 10.7 15H9.3ZM5 10.7H10V9.3H5V10.7ZM15 9.3H10V10.7H15V9.3ZM10.7 10V5H9.3V10H10.7ZM9.3 10V15H10.7V10H9.3Z" fill="#B0B8C1" mask="url(#path-1-outside-1_6074_93874)"/>
</g>
</g>
</svg>
