<svg xmlns="http://www.w3.org/2000/svg" width="24" height="24" viewBox="0 0 24 24" fill="none">
<path fill-rule="evenodd" clip-rule="evenodd" d="M6.34367 6.34383C6.7342 5.9533 7.36736 5.9533 7.75789 6.34383L17.6574 16.2433C18.0479 16.6338 18.0479 17.267 17.6574 17.6575C17.2669 18.0481 16.6337 18.0481 16.2432 17.6575L6.34367 7.75804C5.95315 7.36751 5.95315 6.73435 6.34367 6.34383Z" fill="black"/>
<path fill-rule="evenodd" clip-rule="evenodd" d="M17.6581 6.34367C18.0487 6.7342 18.0487 7.36736 17.6581 7.75789L7.75863 17.6574C7.36811 18.0479 6.73494 18.0479 6.34442 17.6574C5.95389 17.2669 5.95389 16.6337 6.34442 16.2432L16.2439 6.34367C16.6344 5.95315 17.2676 5.95315 17.6581 6.34367Z" fill="black"/>
</svg>