<svg width="24" height="24" viewBox="0 0 24 24" fill="none" xmlns="http://www.w3.org/2000/svg">
<path fill-rule="evenodd" clip-rule="evenodd" d="M19 11.75C19 12.3023 18.6518 12.75 18.2222 12.75L5.77778 12.75C5.34822 12.75 5 12.3023 5 11.75C5 11.1977 5.34822 10.75 5.77778 10.75L18.2222 10.75C18.6518 10.75 19 11.1977 19 11.75Z" fill="black"/>
<path fill-rule="evenodd" clip-rule="evenodd" d="M19 6.5C19 7.05228 18.6518 7.5 18.2222 7.5L5.77778 7.5C5.34822 7.5 5 7.05228 5 6.5C5 5.94772 5.34822 5.5 5.77778 5.5L18.2222 5.5C18.6518 5.5 19 5.94772 19 6.5Z" fill="black"/>
<path fill-rule="evenodd" clip-rule="evenodd" d="M19 17C19 17.5523 18.6518 18 18.2222 18L5.77778 18C5.34822 18 5 17.5523 5 17C5 16.4477 5.34822 16 5.77778 16H18.2222C18.6518 16 19 16.4477 19 17Z" fill="black"/>
</svg>
