<svg width="32" height="32" viewBox="0 0 32 32" fill="none" xmlns="http://www.w3.org/2000/svg">
<g clip-path="url(#clip0_508_1686)">
<circle cx="16" cy="11" r="5" fill="black"/>
<path d="M24 26C24.5523 26 25.0057 25.5509 24.9445 25.002C24.8509 24.1628 24.6394 23.3391 24.3149 22.5558C23.8626 21.4639 23.1997 20.4718 22.364 19.636C21.5282 18.8003 20.5361 18.1374 19.4442 17.6851C18.3522 17.2328 17.1819 17 16 17C14.8181 17 13.6478 17.2328 12.5558 17.6851C11.4639 18.1374 10.4718 18.8003 9.63604 19.636C8.80031 20.4718 8.13738 21.4639 7.68508 22.5558C7.36064 23.3391 7.14914 24.1628 7.0555 25.0021C6.99426 25.5509 7.44772 26 8 26L16 26H24Z" fill="black"/>
</g>
<defs>
<clipPath id="clip0_508_1686">
<rect width="32" height="32" fill="white"/>
</clipPath>
</defs>
</svg>
