<svg width="24" height="24" viewBox="0 0 24 24" fill="none" xmlns="http://www.w3.org/2000/svg">
<path fill-rule="evenodd" clip-rule="evenodd" d="M8.75 6C9.16421 6 9.5 6.29848 9.5 6.66667L9.5 17.3333C9.5 17.7015 9.16421 18 8.75 18C8.33579 18 8 17.7015 8 17.3333L8 6.66667C8 6.29848 8.33579 6 8.75 6Z" fill="white"/>
<path fill-rule="evenodd" clip-rule="evenodd" d="M15.25 6C15.6642 6 16 6.29848 16 6.66667L16 17.3333C16 17.7015 15.6642 18 15.25 18C14.8358 18 14.5 17.7015 14.5 17.3333L14.5 6.66667C14.5 6.29848 14.8358 6 15.25 6Z" fill="white"/>
</svg>
