<svg width="16" height="16" viewBox="0 0 16 16" fill="none" xmlns="http://www.w3.org/2000/svg">
<g clip-path="url(#clip0_748_16970)">
<path fill-rule="evenodd" clip-rule="evenodd" d="M2.81887 4.4002V11.5998H13.1819V4.4002H2.81887ZM2.54616 3.50024C2.24493 3.50024 2.00073 3.76886 2.00073 4.10021V11.8998C2.00073 12.2311 2.24493 12.4998 2.54616 12.4998H13.4547C13.7559 12.4998 14.0001 12.2311 14.0001 11.8998V4.10021C14.0001 3.76886 13.7559 3.50024 13.4547 3.50024H2.54616Z" fill="#191F28"/>
<path fill-rule="evenodd" clip-rule="evenodd" d="M13.2504 11.7499H2.75098V6.50018H13.2504V11.7499Z" fill="#191F28"/>
<path fill-rule="evenodd" clip-rule="evenodd" d="M13.2504 4.2502H2.75098V5.75012H13.2504V4.2502Z" fill="#191F28"/>
<path d="M9.81213 9.12494C9.81213 9.74623 9.30848 10.2499 8.68719 10.2499C8.06591 10.2499 7.56226 9.74623 7.56226 9.12494C7.56226 8.50365 8.06591 8 8.68719 8C9.30848 8 9.81213 8.50365 9.81213 9.12494Z" fill="white"/>
<path d="M12.4999 9.12494C12.4999 9.74623 11.9962 10.2499 11.3749 10.2499C10.7537 10.2499 10.25 9.74623 10.25 9.12494C10.25 8.50365 10.7537 8 11.3749 8C11.9962 8 12.4999 8.50365 12.4999 9.12494Z" fill="white"/>
</g>
<defs>
<clipPath id="clip0_748_16970">
<rect width="16" height="16" fill="white"/>
</clipPath>
</defs>
</svg>
