<svg width="16" height="16" viewBox="0 0 16 16" fill="none" xmlns="http://www.w3.org/2000/svg">
<g clip-path="url(#clip0_748_17070)">
<path d="M2.5 4C2.5 3.44772 2.94772 3 3.5 3H12.5C13.0523 3 13.5 3.44772 13.5 4C13.5 4.55228 13.0523 5 12.5 5H3.5C2.94771 5 2.5 4.55228 2.5 4Z" fill="#6B7684"/>
<path d="M4 3H12V12.5C12 13.0523 11.5523 13.5 11 13.5H5C4.44772 13.5 4 13.0523 4 12.5V3Z" fill="#191F28"/>
<path d="M5.5 6C5.5 5.72386 5.72386 5.5 6 5.5H10C10.2761 5.5 10.5 5.72386 10.5 6C10.5 6.27614 10.2761 6.5 10 6.5H6C5.72386 6.5 5.5 6.27614 5.5 6Z" fill="white"/>
<path d="M5.5 8C5.5 7.72386 5.72386 7.5 6 7.5H10C10.2761 7.5 10.5 7.72386 10.5 8C10.5 8.27614 10.2761 8.5 10 8.5H6C5.72386 8.5 5.5 8.27614 5.5 8Z" fill="white"/>
<path d="M5.5 10C5.5 9.72386 5.72386 9.5 6 9.5H10C10.2761 9.5 10.5 9.72386 10.5 10C10.5 10.2761 10.2761 10.5 10 10.5H6C5.72386 10.5 5.5 10.2761 5.5 10Z" fill="white"/>
</g>
<defs>
<clipPath id="clip0_748_17070">
<rect width="16" height="16" fill="white"/>
</clipPath>
</defs>
</svg>
