<svg width="32" height="32" viewBox="0 0 32 32" fill="none" xmlns="http://www.w3.org/2000/svg">
<g clip-path="url(#clip0_623_13675)">
<path d="M6.66748 13.3281H25.3341V23.9948C25.3341 24.7312 24.7372 25.3281 24.0008 25.3281H8.00081C7.26443 25.3281 6.66748 24.7312 6.66748 23.9948V13.3281Z" fill="#D1D6DB"/>
<path d="M6.66748 13.3281H25.3341V17.3281H6.66748V13.3281Z" fill="black"/>
<path d="M9.33447 14.668H12.0011V16.0013H9.33447V14.668Z" fill="white"/>
<path d="M14.6675 14.668H17.3341V16.0013H14.6675V14.668Z" fill="white"/>
<path d="M20 14.668H22.6667V16.0013H20V14.668Z" fill="white"/>
<path d="M6.66895 13.3281L24.6993 8.49576L24.0089 5.92C23.8183 5.20872 23.0872 4.78665 22.3759 4.97729L6.92132 9.11931C6.21004 9.30995 5.78798 10.0411 5.97861 10.7524L6.66895 13.3281Z" fill="black"/>
<path d="M8.55322 10.0664L11.129 9.37607L11.4742 10.6639L8.89839 11.3543L8.55322 10.0664Z" fill="white"/>
<path d="M13.7046 8.68359L16.2804 7.99326L16.6255 9.28114L14.0498 9.97147L13.7046 8.68359Z" fill="white"/>
<path d="M18.8579 7.30469L21.4337 6.61435L21.7788 7.90223L19.2031 8.59257L18.8579 7.30469Z" fill="white"/>
</g>
<defs>
<clipPath id="clip0_623_13675">
<rect width="32" height="32" fill="white"/>
</clipPath>
</defs>
</svg>
