<svg width="16" height="16" viewBox="0 0 16 16" fill="none" xmlns="http://www.w3.org/2000/svg">
<path d="M12.3923 4.49994H5.13696C4.81286 4.49994 4.57441 4.80353 4.65119 5.11839L5.74852 9.61839C5.80314 9.84235 6.00378 9.99994 6.23429 9.99994H11.5057C11.7446 9.99994 11.9501 9.83096 11.9963 9.59659L12.8828 5.09659C12.9437 4.78759 12.7072 4.49994 12.3923 4.49994Z" fill="#B0B8C1"/>
<path fill-rule="evenodd" clip-rule="evenodd" d="M1.16882 2.82425C1.26589 2.6413 1.4929 2.57168 1.67584 2.66876L3.29123 3.5259C3.38364 3.57493 3.45136 3.66034 3.47805 3.76149L5.28897 10.625H12.0001C12.2072 10.625 12.3751 10.7929 12.3751 11C12.3751 11.2071 12.2072 11.375 12.0001 11.375H5.00007C4.82981 11.375 4.68092 11.2603 4.63748 11.0957L2.79473 4.1115L1.32431 3.33127C1.14136 3.2342 1.07174 3.00719 1.16882 2.82425Z" fill="#B0B8C1"/>
<path d="M7 12.75C7 13.1642 6.66421 13.5 6.25 13.5C5.83579 13.5 5.5 13.1642 5.5 12.75C5.5 12.3358 5.83579 12 6.25 12C6.66421 12 7 12.3358 7 12.75Z" fill="#B0B8C1"/>
<path d="M12 12.75C12 13.1642 11.6642 13.5 11.25 13.5C10.8358 13.5 10.5 13.1642 10.5 12.75C10.5 12.3358 10.8358 12 11.25 12C11.6642 12 12 12.3358 12 12.75Z" fill="#B0B8C1"/>
</svg>
