<svg width="24" height="24" viewBox="0 0 24 24" fill="none" xmlns="http://www.w3.org/2000/svg">
<path d="M7.5 5.5C7.5 4.94772 7.94772 4.5 8.5 4.5H15.5C16.0523 4.5 16.5 4.94772 16.5 5.5V9H7.5V5.5Z" fill="#6B7684"/>
<path fill-rule="evenodd" clip-rule="evenodd" d="M4 10.5C3.44772 10.5 3 10.9477 3 11.5V17C3 17.5523 3.44772 18 4 18H6V16C6 15.4477 6.44772 15 7 15H17C17.5523 15 18 15.4477 18 16V18H20C20.5523 18 21 17.5523 21 17V11.5C21 10.9477 20.5523 10.5 20 10.5H4Z" fill="#6B7684"/>
<rect x="7.5" y="16.5" width="9" height="4.5" rx="0.5" fill="#6B7684"/>
</svg>
