<svg width="20" height="20" viewBox="0 0 20 20" fill="none" xmlns="http://www.w3.org/2000/svg">
<g clip-path="url(#clip0_5169_70658)">
<path d="M4.16699 8.3335H15.8337V15.0002C15.8337 15.4604 15.4606 15.8335 15.0003 15.8335H5.00033C4.54009 15.8335 4.16699 15.4604 4.16699 15.0002V8.3335Z" fill="#90A1FF"/>
<path d="M4.16699 8.3335H15.8337V10.8335H4.16699V8.3335Z" fill="#B4C0FD"/>
<path d="M5.83398 9.16675H7.50065V10.0001H5.83398V9.16675Z" fill="#EBEEFF"/>
<path d="M9.16699 9.16675H10.8337V10.0001H9.16699V9.16675Z" fill="#EBEEFF"/>
<path d="M12.5 9.16675H14.1667V10.0001H12.5V9.16675Z" fill="#EBEEFF"/>
<path d="M4.16797 8.3335L15.4369 5.31327L15.0055 3.70342C14.8863 3.25887 14.4294 2.99508 13.9848 3.11422L4.3257 5.70299C3.88115 5.82213 3.61736 6.2791 3.73651 6.72365L4.16797 8.3335Z" fill="#B4C0FD"/>
<path d="M5.3457 6.29248L6.95555 5.86102L7.17128 6.66594L5.56143 7.09741L5.3457 6.29248Z" fill="#EBEEFF"/>
<path d="M8.56543 5.42944L10.1753 4.99798L10.391 5.80291L8.78116 6.23437L8.56543 5.42944Z" fill="#EBEEFF"/>
<path d="M11.7861 4.56641L13.396 4.13494L13.6117 4.93987L12.0019 5.37133L11.7861 4.56641Z" fill="#EBEEFF"/>
</g>
<defs>
<clipPath id="clip0_5169_70658">
<rect width="20" height="20" fill="white"/>
</clipPath>
</defs>
</svg>
