<svg width="24" height="24" viewBox="0 0 24 24" fill="none" xmlns="http://www.w3.org/2000/svg">
<g id="ic/16/plus">
<path id="Vector" d="M6 11.65C5.8067 11.65 5.65 11.8067 5.65 12C5.65 12.1933 5.8067 12.35 6 12.35H11.65V18C11.65 18.1933 11.8067 18.35 12 18.35C12.1933 18.35 12.35 18.1933 12.35 18V12.35H18C18.1933 12.35 18.35 12.1933 18.35 12C18.35 11.8067 18.1933 11.65 18 11.65H12.35V6C12.35 5.8067 12.1933 5.65 12 5.65C11.8067 5.65 11.65 5.8067 11.65 6V11.65H6Z" stroke="#B0B8C1" stroke-width="0.7" stroke-linecap="round" stroke-linejoin="round"/>
</g>
</svg>
