<svg width="20" height="20" viewBox="0 0 20 20" fill="none" xmlns="http://www.w3.org/2000/svg">
<g id="radix-icons:update">
<path id="Vector" fill-rule="evenodd" clip-rule="evenodd" d="M9.96244 5C8.74964 4.99983 7.57812 5.44048 6.66607 6.23988C5.75402 7.03929 5.16363 8.14295 5.00484 9.34531C4.99505 9.42046 5.00015 9.49681 5.01985 9.56999C5.03956 9.64318 5.07349 9.71176 5.11971 9.77184C5.16592 9.83191 5.22351 9.88229 5.2892 9.9201C5.35488 9.95791 5.42737 9.98242 5.50253 9.99222C5.57768 10.002 5.65403 9.99692 5.72721 9.97721C5.8004 9.9575 5.86898 9.92357 5.92906 9.87736C5.98913 9.83114 6.03951 9.77355 6.07732 9.70786C6.11513 9.64218 6.13964 9.56969 6.14944 9.49453C6.24447 8.78017 6.53826 8.10686 6.99733 7.55133C7.4564 6.99581 8.06229 6.58041 8.74596 6.35247C9.42962 6.12452 10.1636 6.09321 10.8642 6.26209C11.5648 6.43097 12.2038 6.79325 12.7085 7.30765H11.6932C11.5402 7.30765 11.3934 7.36843 11.2852 7.47663C11.177 7.58482 11.1163 7.73156 11.1163 7.88456C11.1163 8.03757 11.177 8.18431 11.2852 8.2925C11.3934 8.4007 11.5402 8.46148 11.6932 8.46148H14.0008C14.1538 8.46148 14.3006 8.4007 14.4088 8.2925C14.517 8.18431 14.5777 8.03757 14.5777 7.88456V5.57692C14.5777 5.42391 14.517 5.27717 14.4088 5.16898C14.3006 5.06079 14.1538 5 14.0008 5C13.8478 5 13.7011 5.06079 13.5929 5.16898C13.4847 5.27717 13.4239 5.42391 13.4239 5.57692V6.39229C12.4938 5.49758 11.253 4.99849 9.96244 5ZM5.92406 14.9998C5.77105 14.9998 5.62431 14.939 5.51612 14.8308C5.40793 14.7227 5.34714 14.5759 5.34714 14.4229V12.1153C5.34714 11.9622 5.40793 11.8155 5.51612 11.7073C5.62431 11.5991 5.77105 11.5383 5.92406 11.5383H8.23171C8.38471 11.5383 8.53145 11.5991 8.63964 11.7073C8.74784 11.8155 8.80862 11.9622 8.80862 12.1153C8.80862 12.2683 8.74784 12.415 8.63964 12.5232C8.53145 12.6314 8.38471 12.6922 8.23171 12.6922H7.21634C7.72103 13.2068 8.36016 13.5693 9.06087 13.7383C9.76158 13.9073 10.4957 13.876 11.1795 13.6481C11.8633 13.4201 12.4693 13.0046 12.9284 12.449C13.3875 11.8933 13.6813 11.2198 13.7762 10.5053C13.7844 10.4288 13.8078 10.3548 13.845 10.2875C13.8822 10.2202 13.9325 10.1611 13.9929 10.1135C14.0533 10.0659 14.1226 10.0309 14.1967 10.0105C14.2708 9.9901 14.3482 9.9847 14.4245 9.99465C14.5007 10.0046 14.5742 10.0297 14.6406 10.0684C14.707 10.1072 14.765 10.1588 14.8112 10.2203C14.8573 10.2817 14.8907 10.3518 14.9094 10.4264C14.9281 10.501 14.9317 10.5785 14.92 10.6545C14.7989 11.5708 14.4263 12.4357 13.8434 13.153C13.2605 13.8703 12.4902 14.412 11.618 14.718C10.7458 15.024 9.80593 15.0823 8.90264 14.8864C7.99935 14.6905 7.16803 14.2481 6.50097 13.6083V14.4229C6.50097 14.5759 6.44019 14.7227 6.332 14.8308C6.2238 14.939 6.07706 14.9998 5.92406 14.9998Z" fill="white"/>
</g>
</svg>
