<svg width="33" height="32" viewBox="0 0 33 32" fill="none" xmlns="http://www.w3.org/2000/svg">
<path d="M8.5 5.5C8.5 5.22386 8.72386 5 9 5H11.5C12.0523 5 12.5 5.44772 12.5 6C12.5 6.55228 12.0523 7 11.5 7H9.5C8.94772 7 8.5 6.55228 8.5 6V5.5Z" fill="#191F28"/>
<path d="M7.5 6.5C7.5 5.67157 8.17157 5 9 5C9.82843 5 10.5 5.67157 10.5 6.5V11H8.5C7.94772 11 7.5 10.5523 7.5 10V6.5Z" fill="#4E5968"/>
<path fill-rule="evenodd" clip-rule="evenodd" d="M11.5 5C10.9477 5 10.5 5.44772 10.5 6V15.1836C14.2646 15.1836 17.3164 18.2354 17.3164 22C17.3164 23.4944 16.8355 24.8765 16.02 26H25.5C26.0523 26 26.5 25.5523 26.5 25V7C26.5 5.89543 25.6046 5 24.5 5H11.5Z" fill="#191F28"/>
<path d="M14.5 11H22.5" stroke="white" stroke-width="1.5" stroke-linecap="round"/>
<path d="M14.5 15H22.5" stroke="white" stroke-width="1.5" stroke-linecap="round"/>
<circle cx="10.5" cy="21.999" r="5.1123" fill="#191F28"/>
<path d="M8.6059 21.9984C8.6059 21.8266 8.49382 21.6661 8.32437 21.638L8.16451 21.6116C7.90652 21.5688 7.65852 21.7441 7.65919 22.0056C7.65961 22.1699 7.67429 22.3336 7.70289 22.4947C7.76346 22.836 7.88646 23.166 8.06854 23.4673C8.41874 24.0468 8.96446 24.4822 9.60732 24.6948C10.2502 24.9075 10.9479 24.8835 11.5746 24.6271C12.1757 24.3813 12.6735 23.9372 12.9863 23.37C12.9997 23.3458 13.0127 23.3214 13.0254 23.2968C13.038 23.2721 13.0503 23.2473 13.0622 23.2224C13.3414 22.6379 13.4127 21.9746 13.2628 21.3427C13.1065 20.6839 12.7199 20.1026 12.1728 19.7036C11.6257 19.3046 10.9541 19.1142 10.279 19.1668C9.92803 19.1941 9.58811 19.2861 9.27534 19.4355C9.12762 19.506 8.98596 19.5894 8.85204 19.6847C8.63908 19.8364 8.64091 20.1399 8.82576 20.3248C9.01062 20.5096 9.30845 20.5032 9.53317 20.3696C9.81602 20.2015 10.1464 20.1049 10.4993 20.1049C11.0026 20.1049 11.4601 20.3013 11.7992 20.6216C11.8269 20.6477 11.8537 20.6747 11.8797 20.7023C12.1894 21.0321 12.3823 21.4728 12.3924 21.9585C12.3929 21.9851 12.3929 22.0116 12.3924 22.0381C12.3825 22.5198 12.1927 22.9573 11.8875 23.2861C11.8565 23.3195 11.8243 23.3518 11.791 23.3829C11.4589 23.6928 11.0153 23.8847 10.5269 23.8916C10.5077 23.8919 10.4884 23.8919 10.4692 23.8916C9.43739 23.8755 8.6059 23.034 8.6059 21.9984Z" fill="white"/>
<path fill-rule="evenodd" clip-rule="evenodd" d="M9.1082 18.3841C9.32172 18.4354 9.45322 18.6501 9.40191 18.8637L9.10905 20.0825L10.1892 20.5567C10.3903 20.645 10.4818 20.8796 10.3935 21.0807C10.3052 21.2817 10.0706 21.3732 9.86954 21.2849L8.48489 20.677C8.30867 20.5996 8.21316 20.4071 8.25812 20.22L8.62868 18.6779C8.67998 18.4643 8.89467 18.3328 9.1082 18.3841Z" fill="white"/>
</svg>
