<?xml version="1.0" encoding="UTF-8"?>
<svg xmlns="http://www.w3.org/2000/svg" version="1.1" viewBox="0 0 24 24">
  <defs>
    <style>
      .cls-1 {
        fill: #fff;
        fill-rule: evenodd;
      }
    </style>
  </defs>
  <!-- Generator: Adobe Illustrator 28.6.0, SVG Export Plug-In . SVG Version: 1.2.0 Build 709)  -->
  <g>
    <g id="Layer_1">
      <path class="cls-1" d="M12,7c-1.2,0-2.4.4-3.3,1.2-.9.8-1.5,1.9-1.7,3.1,0,0,0,.2,0,.2,0,0,0,.1,0,.2,0,0,.1.1.2.1,0,0,.1,0,.2,0,0,0,.2,0,.2,0,0,0,.1,0,.2,0,0,0,.1-.1.1-.2,0,0,0-.1,0-.2,0-.7.4-1.4.8-1.9.5-.6,1.1-1,1.7-1.2.7-.2,1.4-.3,2.1,0,.7.2,1.3.5,1.8,1h-1c-.2,0-.3,0-.4.2-.1.1-.2.3-.2.4s0,.3.2.4c.1.1.3.2.4.2h2.3c.2,0,.3,0,.4-.2.1-.1.2-.3.2-.4v-2.3c0-.2,0-.3-.2-.4s-.3-.2-.4-.2-.3,0-.4.2-.2.3-.2.4v.8c-.9-.9-2.2-1.4-3.5-1.4ZM7.9,17c-.2,0-.3,0-.4-.2-.1-.1-.2-.3-.2-.4v-2.3c0-.2,0-.3.2-.4s.3-.2.4-.2h2.3c.2,0,.3,0,.4.2.1.1.2.3.2.4s0,.3-.2.4c-.1.1-.3.2-.4.2h-1c.5.5,1.1.9,1.8,1,.7.2,1.4.1,2.1,0,.7-.2,1.3-.6,1.7-1.2.5-.6.8-1.2.8-1.9,0,0,0-.2,0-.2,0,0,0-.1.1-.2,0,0,.1,0,.2-.1,0,0,.2,0,.2,0,0,0,.1,0,.2,0,0,0,.1,0,.2.2,0,0,0,.1,0,.2,0,0,0,.2,0,.2-.1.9-.5,1.8-1.1,2.5-.6.7-1.4,1.3-2.2,1.6s-1.8.4-2.7.2c-.9-.2-1.7-.6-2.4-1.3v.8c0,.2,0,.3-.2.4-.1.1-.3.2-.4.2Z"/>
    </g>
  </g>
</svg>