<svg width="20" height="20" viewBox="0 0 20 20" fill="none" xmlns="http://www.w3.org/2000/svg">
<g id="ic/16/star">
<path id="Star 1" d="M9.53505 4.10375C9.6814 3.63208 10.3186 3.63208 10.4649 4.10375L11.6052 7.77884C11.6707 7.98978 11.8584 8.13259 12.0702 8.13259H15.7602C16.2338 8.13259 16.4307 8.76722 16.0475 9.05872L13.0623 11.3301C12.8909 11.4604 12.8192 11.6915 12.8847 11.9024L14.0249 15.5775C14.1713 16.0492 13.6558 16.4414 13.2726 16.1499L10.2874 13.8786C10.116 13.7482 9.88399 13.7482 9.71265 13.8786L6.72736 16.1499C6.34422 16.4414 5.82872 16.0492 5.97506 15.5775L7.11534 11.9024C7.18079 11.6915 7.10909 11.4604 6.93775 11.3301L3.95246 9.05872C3.56932 8.76722 3.76623 8.13259 4.23981 8.13259H7.92983C8.14162 8.13259 8.32933 7.98978 8.39478 7.77884L9.53505 4.10375Z" fill="#B0B8C1"/>
</g>
</svg>
