<svg width="20" height="20" viewBox="0 0 20 20" fill="none" xmlns="http://www.w3.org/2000/svg">
<path d="M9.39323 3.07792C9.31805 2.99836 9.25927 2.90477 9.22026 2.80249C9.18125 2.70022 9.16276 2.59126 9.16586 2.48185C9.16895 2.37243 9.19357 2.26469 9.2383 2.16479C9.28303 2.06488 9.347 1.97476 9.42656 1.89958C9.50612 1.8244 9.59971 1.76563 9.70199 1.72661C9.80426 1.6876 9.91321 1.66911 10.0226 1.67221C10.1321 1.6753 10.2398 1.69992 10.3397 1.74465C10.4396 1.78938 10.5297 1.85336 10.6049 1.93292L17.6882 9.43292C17.8345 9.58764 17.916 9.79249 17.916 10.0054C17.916 10.2183 17.8345 10.4232 17.6882 10.5779L10.6049 18.0788C10.5302 18.1601 10.4401 18.2257 10.3398 18.2719C10.2396 18.3181 10.1311 18.3439 10.0208 18.3478C9.91046 18.3517 9.80046 18.3337 9.69716 18.2947C9.59386 18.2558 9.49933 18.1967 9.41907 18.1209C9.3388 18.0451 9.27439 17.9541 9.22959 17.8532C9.18478 17.7523 9.16047 17.6435 9.15807 17.5331C9.15566 17.4228 9.17521 17.313 9.21558 17.2103C9.25595 17.1075 9.31634 17.0138 9.39323 16.9346L15.9366 10.0054L9.39323 3.07792Z" fill="black"/>
</svg>
