<?xml version="1.0" encoding="UTF-8"?>
<svg xmlns="http://www.w3.org/2000/svg" version="1.1" viewBox="0 0 20 20">
  <!-- Generator: Adobe Illustrator 28.6.0, SVG Export Plug-In . SVG Version: 1.2.0 Build 709)  -->
  <g>
    <g id="Layer_1">
      <path d="M6.9,3.1c0,0-.1-.2-.2-.3,0-.1,0-.2,0-.3,0-.1,0-.2,0-.3,0,0,.1-.2.2-.3,0,0,.2-.1.3-.2.1,0,.2,0,.3,0,.1,0,.2,0,.3,0,0,0,.2.1.3.2l7.1,7.5c.1.2.2.4.2.6s0,.4-.2.6l-7.1,7.5c0,0-.2.1-.3.2-.1,0-.2,0-.3,0-.1,0-.2,0-.3,0-.1,0-.2,0-.3-.2,0,0-.1-.2-.2-.3,0-.1,0-.2,0-.3,0-.1,0-.2,0-.3,0-.1.1-.2.2-.3l6.5-6.9L6.9,3.1Z"/>
    </g>
  </g>
</svg>