<svg width="32" height="32" viewBox="0 0 32 32" fill="none" xmlns="http://www.w3.org/2000/svg">
<path fill-rule="evenodd" clip-rule="evenodd" d="M13.5438 19.8594C17.0319 19.8594 19.8595 17.0318 19.8595 13.5437C19.8595 10.0556 17.0319 7.22797 13.5438 7.22797C10.0557 7.22797 7.22809 10.0556 7.22809 13.5437C7.22809 17.0318 10.0557 19.8594 13.5438 19.8594ZM13.5438 21.7541C18.0783 21.7541 21.7542 18.0782 21.7542 13.5437C21.7542 9.00919 18.0783 5.33325 13.5438 5.33325C9.00931 5.33325 5.33337 9.00919 5.33337 13.5437C5.33337 18.0782 9.00931 21.7541 13.5438 21.7541Z" fill="black"/>
<path fill-rule="evenodd" clip-rule="evenodd" d="M18.1621 18.1616C18.5321 17.7916 19.1319 17.7916 19.5019 18.1616L25.9972 24.6568C26.3671 25.0268 26.3671 25.6266 25.9972 25.9966C25.6272 26.3666 25.0274 26.3666 24.6574 25.9966L18.1621 19.5013C17.7922 19.1314 17.7922 18.5315 18.1621 18.1616Z" fill="black"/>
</svg>
