<svg width="20" height="20" viewBox="0 0 20 20" fill="none" xmlns="http://www.w3.org/2000/svg">
<g clip-path="url(#clip0_11023_244791)">
<path d="M12.1275 15.9198C10.7156 15.9198 9.48197 15.1473 8.83025 14.0044H8.82953C8.73875 13.8316 8.5572 13.7132 8.34779 13.7132C8.04761 13.7132 7.80421 13.9554 7.80421 14.2542C7.80421 14.3442 7.82663 14.4288 7.86569 14.5033C7.86569 14.5033 7.86569 14.5037 7.86569 14.504C7.87184 14.5159 7.87871 14.5271 7.88559 14.5382C8.7232 16.0077 10.3084 16.9998 12.1272 16.9998C14.819 16.9998 17.0013 14.8277 17.0013 12.1483C17.0013 9.65943 15.1185 7.60898 12.6932 7.32963C12.5073 7.30839 12.3185 7.29688 12.1272 7.29688H7.76515C7.46569 7.29688 7.22266 7.53878 7.22266 7.83685C7.22266 8.13491 7.46569 8.37682 7.76515 8.37682H12.1293C14.2176 8.3779 15.9163 10.0694 15.9163 12.1483C15.9163 14.2279 14.2165 15.9198 12.1272 15.9198H12.1275Z" fill="#4E32F6"/>
<path d="M7.87414 4.07994C9.28608 4.07994 10.5197 4.85246 11.1714 5.9954H11.1722C11.2629 6.16819 11.4445 6.28662 11.6539 6.28662C11.9541 6.28662 12.1975 6.04435 12.1975 5.74557C12.1975 5.65558 12.175 5.57098 12.136 5.49646C12.136 5.49646 12.136 5.4961 12.136 5.49574C12.1298 5.48387 12.123 5.47271 12.1161 5.46155C11.2781 3.99175 9.69295 3 7.87414 3C5.18228 3 3 5.17212 3 7.85146C3 10.3404 4.88282 12.3908 7.30814 12.6702C7.49403 12.6914 7.68282 12.7029 7.87414 12.7029H12.2362C12.5356 12.7029 12.7787 12.461 12.7787 12.1629C12.7787 11.8649 12.5356 11.623 12.2362 11.623H7.87197C5.78373 11.6219 4.08499 9.93034 4.08499 7.85146C4.08499 5.77257 5.78481 4.07994 7.87414 4.07994Z" fill="#B4C0FD"/>
<path d="M8.43441 9.28503L8.42211 9.27207C8.41741 9.2674 8.41307 9.26236 8.40837 9.25768L7.37762 8.17737C7.20077 7.99198 7.20077 7.70112 7.37762 7.51573L8.40764 6.43615H8.40728C8.5071 6.33787 8.56931 6.2018 8.56931 6.05133C8.56931 5.75327 8.32663 5.51172 8.02717 5.51172C7.87021 5.51172 7.72952 5.57832 7.63043 5.68451L7.6297 5.68379L6.58884 6.80765C6.02247 7.37138 6.02247 8.28537 6.58884 8.8491L7.62717 9.96756C7.63983 9.98304 7.65357 9.99744 7.66804 10.0115L7.67057 10.014C7.76569 10.1047 7.8948 10.1612 8.0373 10.1612C8.32989 10.1612 8.5675 9.92508 8.5675 9.6335C8.5675 9.49958 8.51723 9.37791 8.43477 9.28503H8.43441Z" fill="#4E32F6"/>
<path d="M11.5568 13.6014L11.5691 13.5885C11.5738 13.5838 11.5781 13.5788 11.5828 13.5741L12.6136 12.4938C12.7904 12.3084 12.7904 12.0175 12.6136 11.8321L11.5835 10.7526H11.5839C11.4841 10.6543 11.4219 10.5182 11.4219 10.3677C11.4219 10.0697 11.6646 9.82812 11.964 9.82812C12.121 9.82812 12.2617 9.89472 12.3608 10.0009L12.3615 10.0002L13.4023 11.1241C13.9687 11.6878 13.9687 12.6018 13.4023 13.1655L12.364 14.284C12.3514 14.2994 12.3376 14.3138 12.3231 14.3279L12.3206 14.3304C12.2255 14.4211 12.0964 14.4776 11.9539 14.4776C11.6613 14.4776 11.4237 14.2415 11.4237 13.9499C11.4237 13.816 11.474 13.6943 11.5564 13.6014H11.5568Z" fill="#B4C0FD"/>
</g>
<defs>
<clipPath id="clip0_11023_244791">
<rect width="20" height="20" fill="white"/>
</clipPath>
</defs>
</svg>
