<svg width="152" height="26" viewBox="0 0 152 26" fill="none" xmlns="http://www.w3.org/2000/svg">
<path fill-rule="evenodd" clip-rule="evenodd" d="M134.563 23.0576C134.592 23.9692 134.884 24.5688 135.332 25.0531H135.332C135.349 25.072 135.367 25.0905 135.385 25.1091C135.699 25.4338 136.083 25.7087 136.504 25.996H127.654C128.075 25.7087 128.46 25.4335 128.773 25.1091C128.791 25.0905 128.809 25.072 128.827 25.0531C129.274 24.5688 129.566 23.9692 129.596 23.0576V2.93793C129.566 2.02628 129.274 1.42667 128.827 0.942346C128.813 0.927572 128.799 0.912961 128.785 0.898383L128.774 0.887156C128.46 0.56221 128.076 0.287552 127.655 0H136.504C136.083 0.287552 135.698 0.56221 135.384 0.887156C135.367 0.905467 135.349 0.923777 135.332 0.942346C134.884 1.42667 134.592 2.02628 134.563 2.93793V12.6296L142.04 4.76217L142.581 4.19222C142.965 3.77417 143.453 3.21042 143.694 2.80088C143.758 2.68225 143.812 2.57135 143.856 2.46742C143.962 2.1907 144.018 1.89619 143.993 1.58491C143.967 1.27337 143.851 1.08795 143.686 0.932693C143.396 0.679183 142.969 0.427994 142.524 0.241279C142.483 0.225805 142.442 0.21059 142.401 0.196148L141.796 0.00195312H150.138C149.571 0.133221 149.028 0.306268 148.561 0.475705C148.554 0.480347 148.543 0.485247 148.529 0.489889C148.504 0.498307 148.479 0.506905 148.454 0.515533L148.439 0.520579C148.202 0.608778 147.987 0.694657 147.802 0.772025C147.77 0.786983 147.733 0.802457 147.693 0.818446C147.572 0.870025 147.467 0.916704 147.38 0.955904C146.891 1.1942 146.526 1.47969 146.37 1.6125C146.108 1.84074 145.819 2.11772 145.503 2.44421L144.925 3.05413L143.33 4.7356L138.67 9.6521L147.64 23.1621C148.022 23.7398 148.378 24.2125 148.709 24.58C148.984 24.8635 149.342 25.0997 149.783 25.2895H149.782C149.784 25.2903 149.787 25.2913 149.789 25.2924C149.918 25.3478 150.054 25.3991 150.198 25.4466L150.198 25.4461L150.223 25.4533C150.753 25.6462 151.543 25.917 152 25.9974H139.811L140.415 25.8032C140.456 25.7888 140.498 25.7736 140.539 25.7581C140.983 25.5714 141.411 25.3202 141.701 25.0667C141.866 24.9114 141.982 24.726 142.008 24.4145C142.033 24.1032 141.977 23.8087 141.871 23.532C141.788 23.3378 141.673 23.1209 141.519 22.8733L140.137 20.8452L134.563 12.667V23.0576ZM89.3915 25.9996C87.915 26.0069 86.4858 25.7399 85.1037 25.1986C83.7458 24.6573 82.5199 23.854 81.4258 22.7886C80.3557 21.6982 79.5026 20.3453 78.8657 18.7299C78.2291 17.1144 77.9057 15.2235 77.8957 13.0572C77.886 10.9159 78.192 9.03432 78.8139 7.41294C79.4358 5.7913 80.2889 4.44277 81.3732 3.36658C82.4573 2.26563 83.676 1.43805 85.0289 0.883834C86.406 0.304603 87.8207 0.0113775 89.2729 0.00415646C90.7493 -0.00306458 92.1665 0.264114 93.5244 0.805176C94.9065 1.32148 96.1325 2.12482 97.2025 3.2152C98.2964 4.28056 99.162 5.63347 99.7986 7.27394C100.435 8.88939 100.759 10.7803 100.769 12.9466C100.778 15.0631 100.472 16.9445 99.8504 18.5908C99.2286 20.2125 98.3755 21.5737 97.2914 22.6743C96.2313 23.7503 95.0128 24.5779 93.6357 25.1571C92.2829 25.7116 90.8682 25.9922 89.3917 25.9994L89.3915 25.9996ZM89.388 25.2154C90.7193 25.2089 91.7946 24.8427 92.6142 24.1165C93.4338 23.3655 94.0209 22.1052 94.376 20.3355C94.7551 18.5408 94.9375 16.0872 94.9233 12.9747C94.909 9.8374 94.704 7.3856 94.3089 5.61954C93.9375 3.82847 93.3389 2.57381 92.5128 1.85584C91.6865 1.11284 90.6077 0.744571 89.2766 0.751018C87.9696 0.757465 86.9062 1.13605 86.0869 1.88704C85.2673 2.61301 84.668 3.8736 84.2889 5.66829C83.9338 7.43796 83.7636 9.89156 83.7779 13.0288C83.7921 16.1414 83.9848 18.5929 84.3559 20.3842C84.7513 22.1503 85.3622 23.4047 86.1885 24.1477C87.0148 24.8657 88.0814 25.2216 89.3885 25.2154H89.388ZM109.889 25.1986C111.271 25.7399 112.701 26.0069 114.177 25.9996L114.178 25.9994C115.654 25.9922 117.069 25.7116 118.422 25.1571C119.799 24.5779 121.017 23.7503 122.077 22.6743C123.161 21.5737 124.015 20.2125 124.636 18.5908C125.258 16.9445 125.564 15.0631 125.555 12.9466C125.545 10.7803 125.221 8.88939 124.585 7.27394C123.948 5.63347 123.082 4.28056 121.988 3.2152C120.918 2.12482 119.692 1.32148 118.31 0.805176C116.952 0.264114 115.535 -0.00306458 114.059 0.00415646C112.606 0.0113775 111.192 0.304603 109.815 0.883834C108.462 1.43805 107.243 2.26563 106.159 3.36658C105.075 4.44277 104.221 5.7913 103.6 7.41294C102.978 9.03432 102.672 10.9159 102.681 13.0572C102.691 15.2235 103.015 17.1144 103.651 18.7299C104.288 20.3453 105.141 21.6982 106.211 22.7886C107.306 23.854 108.531 24.6573 109.889 25.1986ZM117.4 24.1165C116.58 24.8427 115.505 25.2089 114.174 25.2154H114.174C112.867 25.2216 111.801 24.8657 110.974 24.1477C110.148 23.4047 109.537 22.1503 109.142 20.3842C108.77 18.5929 108.578 16.1414 108.564 13.0288C108.549 9.89156 108.719 7.43796 109.075 5.66829C109.454 3.8736 110.053 2.61301 110.873 1.88704C111.692 1.13605 112.755 0.757465 114.062 0.751018C115.393 0.744571 116.472 1.11284 117.299 1.85584C118.125 2.57381 118.723 3.82847 119.095 5.61954C119.49 7.3856 119.695 9.8374 119.709 12.9747C119.723 16.0872 119.541 18.5408 119.162 20.3355C118.807 22.1052 118.219 23.3655 117.4 24.1165ZM73.8404 14.4198C72.5426 13.2118 70.494 12.4505 67.6949 12.1354C70.1379 11.6889 71.8556 10.9274 72.8481 9.85093C73.8659 8.74818 74.3749 7.52705 74.3749 6.1878C74.3749 4.40214 73.6877 2.93189 72.3136 1.77652C70.9392 0.59485 68.6999 0.00401394 65.5953 0.00401394H55.3926C55.8373 0.307555 56.2415 0.597171 56.5643 0.94636C57.0365 1.45699 57.3356 2.09579 57.3358 3.09359L57.3371 16.3911L57.3358 22.9086C57.3358 23.8605 57.0635 24.4857 56.6283 24.9847C56.5866 25.0327 56.5433 25.0793 56.4985 25.1252C56.1871 25.444 55.8075 25.715 55.3926 25.9985H55.3931L55.3916 25.9995L59.8751 25.9985L59.8824 25.998L60.5195 25.9995V25.9985H60.5205V26H64.3358C66.6006 26 68.471 25.7898 69.947 25.3697C71.4229 24.9233 72.5806 24.3456 73.4204 23.6367C74.2856 22.9277 74.8964 22.1533 75.2525 21.3128C75.6089 20.4463 75.787 19.5929 75.787 18.7527C75.787 17.0459 75.1382 15.6017 73.8404 14.42V14.4198ZM62.3128 0.791881H64.3741C65.9264 0.791881 67.046 1.2383 67.7332 2.13113C68.4204 3.02396 68.7638 4.52052 68.7638 6.62132C68.7638 8.72213 68.3821 10.0611 67.6186 10.8753C66.8806 11.6892 65.6591 12.0964 63.9542 12.0964H62.3128V0.791881ZM68.4582 23.6364C67.542 24.6868 66.1299 25.2119 64.2212 25.2119H62.3128V12.8835H64.1449C66.1807 12.8835 67.6439 13.3299 68.5345 14.2228C69.4252 15.1156 69.8706 16.6124 69.8706 18.713C69.8706 20.945 69.3999 22.586 68.4582 23.6364ZM18.995 20.1792L18.9945 23.3644C19.1381 24.5342 20.2538 25.5856 20.8306 25.9807H12.3446H12.3431H12.2205C12.3015 25.9256 12.3809 25.866 12.4586 25.8077C12.5045 25.7733 12.5499 25.7392 12.5946 25.7069C13.4635 25.0771 14.0898 24.4146 14.0898 22.9884L14.0906 18.9467L14.0911 12.4998C14.0911 11.6057 13.8448 11.0118 13.4472 10.5378C13.1739 10.186 12.8243 9.88531 12.4219 9.65707L12.4022 9.64314C12.2087 9.52606 11.9962 9.42677 11.7643 9.34837L11.7629 9.34786L11.7615 9.34734C11.0078 9.06469 10.1989 9.1271 9.68293 9.21865C9.51902 9.24496 9.35886 9.28209 9.2032 9.32903C9.19502 9.33134 9.18777 9.33355 9.18131 9.33552L9.17117 9.33857C9.17072 9.3388 9.17027 9.33898 9.16982 9.33914C9.16927 9.33932 9.16872 9.33946 9.16818 9.3396L9.16817 9.3396C9.1519 9.3445 9.14339 9.3476 9.14339 9.3476C9.0523 9.37674 8.96296 9.40949 8.87537 9.44534C7.66516 9.93998 6.7993 11.0505 6.7993 12.3147V13.307L6.79905 13.3078V19.062H6.79855V23.0005C6.79855 24.6134 7.5991 25.2643 8.64614 25.981H4.46221H0.134384C1.19169 25.2592 2.0035 24.618 2.0035 22.9959L2.00576 10.5904L0 8.20874L6.78979 6.30625L6.78929 10.5876C6.78929 10.5876 8.59084 7.70997 11.4695 6.74493H11.4702C11.6334 6.67323 11.8013 6.60953 11.9735 6.55409L12.0085 6.543L12.0128 6.54171C12.025 6.53784 12.0403 6.5332 12.0581 6.52804C12.2793 6.46125 12.5065 6.40863 12.739 6.37124C13.4712 6.24126 14.6194 6.1528 15.6892 6.55409L15.6929 6.55563C16.022 6.66679 16.3236 6.80811 16.5983 6.9742L16.6264 6.99405C16.751 7.06472 16.8716 7.14054 16.9885 7.22049L16.9895 7.22101L16.9902 7.22152C17.3071 7.41778 17.5966 7.66432 17.8511 7.96993C17.9317 8.05864 18.0085 8.14994 18.0816 8.24407C18.6461 8.91691 18.9955 9.75997 18.9955 11.0291L18.995 20.1792ZM8.64614 25.981C8.64965 25.9835 8.65315 25.9822 8.65666 25.981H8.64614ZM8.66717 25.981C8.66366 25.9785 8.66016 25.9798 8.65666 25.981H8.66717ZM31.2857 23.376L31.2862 20.1908L31.2867 11.0407C31.2867 9.77159 30.9373 8.92853 30.3727 8.25569C30.2997 8.16155 30.2228 8.07026 30.1423 7.98154C29.8878 7.67594 29.5982 7.42939 29.2814 7.23314L29.2808 7.23277L29.2797 7.2321C29.1628 7.15216 29.0422 7.07634 28.9175 7.00567L28.8895 6.98581C28.6147 6.81973 28.3132 6.6784 27.9841 6.56725L27.9804 6.5657C27.4643 6.37203 26.9303 6.29259 26.4333 6.27661L26.4341 6.27609C26.4291 6.27599 26.424 6.27597 26.419 6.27595C26.4115 6.27591 26.404 6.27588 26.3965 6.27557C26.1715 6.26964 25.9546 6.27686 25.7509 6.29182L25.7376 6.30317C24.0602 6.48008 22.7774 7.43997 21.9598 8.27322C21.2832 8.96283 20.9248 9.56553 20.9248 9.56553C20.9618 9.54619 20.9994 9.52788 21.0369 9.51034L21.0452 9.50647C21.0802 9.49023 21.1155 9.47449 21.151 9.45954C21.1524 9.45897 21.1538 9.45836 21.1553 9.45775C21.1577 9.45669 21.1603 9.45561 21.1628 9.45464C21.1973 9.44019 21.2321 9.42653 21.2666 9.41337L21.2789 9.40873C21.3139 9.39558 21.3492 9.3832 21.3843 9.37134L21.394 9.36798C21.4308 9.35561 21.4678 9.344 21.5046 9.33291C21.5059 9.33239 21.5071 9.33214 21.5086 9.33162C21.5467 9.32027 21.5847 9.3097 21.6225 9.29964L21.628 9.29809C21.6643 9.28855 21.7003 9.27953 21.7361 9.27127L21.7464 9.26895C21.7809 9.26096 21.8152 9.25348 21.8495 9.24652L21.8612 9.24419C21.8953 9.23723 21.9291 9.23104 21.9626 9.22511L21.9729 9.2233C22.0076 9.21737 22.0422 9.2117 22.0762 9.20654L22.082 9.20577C22.118 9.20035 22.1538 9.19545 22.1888 9.19107H22.1906C22.2254 9.18668 22.2596 9.18282 22.2934 9.17946C22.2951 9.17946 22.2968 9.17923 22.2984 9.179L22.3009 9.17869C22.3142 9.17734 22.3274 9.1762 22.3406 9.17507L22.3407 9.17507L22.3612 9.17327L22.357 9.17688C22.4668 9.1658 22.5837 9.15806 22.7051 9.15496C22.7186 9.15471 22.7321 9.15445 22.7459 9.15445C22.903 9.15264 23.0382 9.15857 23.1415 9.1658L23.1681 9.16781C23.1812 9.16877 23.1943 9.16972 23.2076 9.17095C23.4849 9.197 23.7721 9.25399 24.0522 9.35896L24.0536 9.35947L24.0549 9.35999C24.2869 9.43839 24.4994 9.53768 24.6928 9.65476L24.7126 9.66869C25.115 9.89692 25.4646 10.1976 25.7379 10.5494C26.1355 11.0234 26.3818 11.6173 26.3818 12.5115L26.3813 18.9583L26.3805 23C26.3805 24.4262 25.7541 25.0887 24.8853 25.7185C24.7649 25.8056 24.64 25.8946 24.5111 25.9826H24.6338H24.6353H33.1212C32.5444 25.5875 31.4288 24.5458 31.2852 23.376H31.2857ZM50.0145 22.5908C50.4957 22.2656 50.9562 21.861 51.3961 21.3774L51.3956 21.3777C51.4782 21.2915 51.5565 21.2072 51.6289 21.127C51.9024 20.824 52.0946 20.5767 52.1404 20.4784C52.1404 20.4784 52.1391 20.516 52.1306 20.5857C52.1126 20.7316 52.0618 21.0182 51.9187 21.3952C51.739 21.869 51.4132 22.4851 50.8248 23.145C50.8248 23.145 50.7585 23.2193 50.7215 23.259L50.7214 23.2591C50.7204 23.2601 50.7197 23.2608 50.7187 23.2616C50.6439 23.3421 50.5653 23.423 50.4822 23.5043C50.4074 23.5775 50.3441 23.644 50.2915 23.7049C50.291 23.7052 50.2908 23.7054 50.2905 23.7057C50.2407 23.7529 50.1902 23.7996 50.1391 23.8457C50.1351 23.8493 50.1311 23.8529 50.1271 23.8565C50.1229 23.8602 50.1188 23.864 50.1146 23.8676C50.0643 23.9128 50.0135 23.9576 49.9622 24.0015C49.962 24.0017 49.9615 24.0023 49.961 24.0025C49.9059 24.0495 49.8503 24.0956 49.794 24.1413C49.7928 24.1426 49.7913 24.1436 49.7898 24.1449C49.7335 24.1905 49.6767 24.2354 49.6191 24.2795C49.6166 24.2816 49.6139 24.2836 49.6112 24.2857L49.6111 24.2857C49.5596 24.3251 49.5073 24.3641 49.4547 24.4025L49.4277 24.4221C49.3724 24.4623 49.3163 24.5018 49.2598 24.5407C49.2571 24.5427 49.2544 24.5445 49.2516 24.5463C49.2499 24.5475 49.2482 24.5486 49.2465 24.5498C49.1959 24.5843 49.1449 24.6184 49.0933 24.6519L49.051 24.6792C48.9947 24.7156 48.9384 24.7512 48.8814 24.7863C47.6049 25.5839 46.0403 25.9826 44.2633 25.9826C42.4862 25.9826 40.9092 25.5968 39.5325 24.8249C38.1559 24.0275 37.0796 22.8956 36.3036 21.4293C35.5275 19.9629 35.1396 18.2907 35.1396 16.1811C35.1396 14.0715 35.5901 12.2835 36.4912 10.8172C37.3924 9.32524 38.5438 8.19335 39.9454 7.42147C41.3721 6.64959 42.7863 6.26378 44.4134 6.26378C46.0405 6.26378 47.4297 6.61116 48.5811 7.30567C49.7325 7.97439 50.6084 8.90049 51.2092 10.084C51.8351 11.2417 52.1479 12.5665 52.1479 14.0586C52.1479 14.3415 52.1354 14.6373 52.1104 14.946C52.0853 15.2292 52.0353 15.4863 51.9602 15.7179H40.7715C40.7966 18.4962 41.272 20.5029 42.1982 21.7377C43.1494 22.947 44.551 23.5515 46.4034 23.5515C47.1076 23.5515 47.7365 23.4862 48.29 23.356C48.2904 23.3559 48.2907 23.3558 48.291 23.3557C48.2917 23.3554 48.2924 23.3552 48.293 23.3552C48.3841 23.3335 48.4732 23.3103 48.5603 23.2853C48.5609 23.2852 48.5615 23.2849 48.562 23.2847C48.5622 23.2846 48.5625 23.2845 48.5628 23.2845C48.6054 23.2722 48.6476 23.2595 48.6892 23.2464C48.6902 23.246 48.6912 23.2457 48.6923 23.2453C48.6934 23.245 48.6944 23.2447 48.6954 23.2443C48.7372 23.2312 48.7788 23.2175 48.8196 23.2033C48.8706 23.1858 48.9209 23.1675 48.9705 23.1484C49.1374 23.0844 49.2955 23.013 49.4447 22.9338C49.6376 22.8314 49.8276 22.7172 50.0145 22.5908ZM41.0085 9.82814C40.7945 10.87 40.6877 12.3153 40.6877 14.1641C40.6877 14.4315 40.6902 14.6905 40.6947 14.9414H47.2447C47.2497 14.6905 47.2523 14.4318 47.2523 14.1641C47.2523 12.3153 47.1381 10.87 46.9102 9.82814C46.6962 8.77154 46.3471 8.03061 45.8624 7.60509C45.3776 7.16486 44.729 6.94488 43.9592 6.94488C43.1894 6.94488 42.5623 7.16486 42.0776 7.60509C41.5931 8.03061 41.2365 8.77154 41.0085 9.82814Z" fill="black"/>
</svg>
