<svg width="236" height="134" viewBox="0 0 236 134" fill="none" xmlns="http://www.w3.org/2000/svg">
<circle cx="118" cy="118" r="117.5" stroke="white" stroke-opacity="0.2"/>
<path opacity="0.5" d="M116.646 100.354C116.842 100.549 117.158 100.549 117.354 100.354L120.536 97.1716C120.731 96.9763 120.731 96.6597 120.536 96.4645C120.34 96.2692 120.024 96.2692 119.828 96.4645L117 99.2929L114.172 96.4645C113.976 96.2692 113.66 96.2692 113.464 96.4645C113.269 96.6597 113.269 96.9763 113.464 97.1716L116.646 100.354ZM116.5 83L116.5 100L117.5 100L117.5 83L116.5 83Z" fill="white"/>
<path opacity="0.5" d="M108.932 71H106.646L101.057 62.9141H100.951V71H98.3145V58.2734H100.635L106.189 66.3594H106.312V58.2734H108.932V71ZM115.348 71.1934C114.381 71.1934 113.543 70.9941 112.834 70.5957C112.131 70.1973 111.589 69.6289 111.208 68.8906C110.827 68.1465 110.637 67.2734 110.637 66.2715C110.637 65.293 110.824 64.4316 111.199 63.6875C111.58 62.9375 112.119 62.3574 112.816 61.9473C113.514 61.5371 114.322 61.332 115.242 61.332C116.098 61.332 116.862 61.5137 117.536 61.877C118.216 62.2344 118.749 62.7764 119.136 63.5029C119.528 64.2295 119.725 65.1172 119.725 66.166V66.9043H113.203C113.203 67.3789 113.291 67.792 113.467 68.1436C113.648 68.4951 113.903 68.7676 114.231 68.9609C114.565 69.1484 114.955 69.2422 115.4 69.2422C115.828 69.2422 116.197 69.1572 116.508 68.9873C116.818 68.8115 117.041 68.5742 117.176 68.2754H119.654C119.531 68.8613 119.279 69.374 118.898 69.8135C118.518 70.2529 118.022 70.5928 117.413 70.833C116.81 71.0732 116.121 71.1934 115.348 71.1934ZM117.264 65.2695C117.264 64.8887 117.179 64.5488 117.009 64.25C116.845 63.9453 116.613 63.708 116.314 63.5381C116.016 63.3682 115.676 63.2832 115.295 63.2832C114.908 63.2832 114.557 63.3711 114.24 63.5469C113.93 63.7227 113.681 63.9629 113.493 64.2676C113.312 64.5723 113.215 64.9062 113.203 65.2695H117.264ZM125.139 64.8125L126.949 61.4551H129.639L126.844 66.2188L129.709 71H127.037L125.139 67.6777L123.275 71H120.568L123.416 66.2188L120.674 61.4551H123.363L125.139 64.8125ZM136.143 63.4062H134.35V68.0645C134.35 68.416 134.426 68.6621 134.578 68.8027C134.73 68.9434 134.953 69.0195 135.246 69.0312C135.621 69.0312 135.967 69.0137 136.283 68.9785V71.0352C135.973 71.0938 135.51 71.123 134.895 71.123C133.916 71.123 133.146 70.8975 132.583 70.4463C132.021 69.9951 131.742 69.3242 131.748 68.4336V63.4062H130.43V61.4551H131.748V59.1699H134.35V61.4551H136.143V63.4062Z" fill="white"/>
</svg>
