<svg width="170" height="150" viewBox="0 0 170 150" fill="none" xmlns="http://www.w3.org/2000/svg">
<path fill-rule="evenodd" clip-rule="evenodd" d="M101.711 17.3879C120.83 6.32175 145.301 12.8476 156.369 31.9639C165.99 48.5821 164.487 64.4033 162.597 74.0219C159.261 90.998 145.141 114.432 117.526 118.904C103.037 121.25 88.5874 118.807 80.7446 117.292C75.9274 125.476 68.1944 131.985 58.4338 135.098C37.3872 141.81 14.8833 130.193 8.16984 109.149C3.99352 96.0579 4.59443 82.4286 6.28294 73.1284C6.90531 69.7005 8.10887 64.2121 10.6729 58.2926C13.172 52.5233 18.0742 43.7572 27.5527 36.8579C45.548 23.7592 64.3667 26.6777 74.7752 30.2108C79.5139 31.8194 83.4765 33.8226 85.5567 34.8907C85.5663 34.8957 85.5759 34.9006 85.5855 34.9055C88.9345 27.8064 94.4029 21.6181 101.711 17.3879Z" fill="#F7F8FF"/>
<path d="M44 68.5625L25 87.5625H44V68.5625Z" fill="#5671FF"/>
<path d="M130 68.5625L149 87.5625H130V68.5625Z" fill="#5671FF"/>
<path d="M44 68.5625C44 66.3534 45.7909 64.5625 48 64.5625H126C128.209 64.5625 130 66.3534 130 68.5625V95.5625C130 97.7716 128.209 99.5625 126 99.5625H48C45.7909 99.5625 44 97.7716 44 95.5625V68.5625Z" fill="#90A1FF"/>
<path d="M25 85.5625C25 83.3534 26.7909 81.5625 29 81.5625H145C147.209 81.5625 149 83.3534 149 85.5625V128.562C149 130.772 147.209 132.562 145 132.562H29C26.7909 132.562 25 130.772 25 128.562V85.5625Z" fill="#D4DCFF"/>
<path d="M25 85.5625C25 83.3534 26.7909 81.5625 29 81.5625H145C147.209 81.5625 149 83.3534 149 85.5625V128.562C149 130.772 147.209 132.562 145 132.562H29C26.7909 132.562 25 130.772 25 128.562V85.5625Z" fill="url(#paint0_linear_3644_114313)" fill-opacity="0.3"/>
<path d="M76 73.5625C76 71.9056 77.3431 70.5625 79 70.5625H95C96.6569 70.5625 98 71.9056 98 73.5625C98 75.2194 96.6569 76.5625 95 76.5625H79C77.3431 76.5625 76 75.2194 76 73.5625Z" fill="white"/>
<path d="M74 93.5625C74 91.3534 75.7909 89.5625 78 89.5625H96C98.2091 89.5625 100 91.3534 100 93.5625C100 95.7716 98.2091 97.5625 96 97.5625H78C75.7909 97.5625 74 95.7716 74 93.5625Z" fill="#90A1FF"/>
<path fill-rule="evenodd" clip-rule="evenodd" d="M141.962 33.5131C142.787 33.5819 143.401 34.3069 143.332 35.1325C142.956 39.6511 141.911 44.66 137.539 47.8749C136.056 48.9653 134.326 49.3439 132.738 49.4778C131.622 49.5718 130.434 49.5494 129.396 49.5299C128.999 49.5224 128.624 49.5153 128.284 49.5153C125.953 49.5153 123.618 49.8805 121.813 50.8179C120.078 51.7192 118.819 53.1461 118.461 55.4697C118.335 56.2885 117.569 56.8502 116.751 56.7242C115.932 56.5982 115.37 55.8323 115.496 55.0136C116.017 51.6261 117.958 49.4398 120.43 48.1557C122.833 46.9077 125.71 46.5153 128.284 46.5153C128.742 46.5153 129.187 46.5238 129.623 46.5322C130.599 46.5509 131.533 46.5688 132.486 46.4884C133.82 46.3759 134.916 46.0801 135.762 45.4579C139.013 43.0677 139.978 39.2557 140.343 34.8833C140.411 34.0578 141.136 33.4443 141.962 33.5131Z" fill="url(#paint1_linear_3644_114313)"/>
<path fill-rule="evenodd" clip-rule="evenodd" d="M122.133 20.7368C122.831 20.2902 123.758 20.4938 124.205 21.1916C126.184 24.2844 127.109 28.2291 125.764 31.9653C125.484 32.7447 124.624 33.1491 123.845 32.8685C123.066 32.5879 122.661 31.7286 122.942 30.9491C123.893 28.3061 123.295 25.3346 121.678 22.8088C121.232 22.111 121.435 21.1833 122.133 20.7368Z" fill="url(#paint2_linear_3644_114313)"/>
<defs>
<linearGradient id="paint0_linear_3644_114313" x1="87" y1="81.5625" x2="87" y2="132.562" gradientUnits="userSpaceOnUse">
<stop stop-color="#B99FFF"/>
<stop offset="1" stop-color="#0027FF"/>
</linearGradient>
<linearGradient id="paint1_linear_3644_114313" x1="129.408" y1="35.0079" x2="129.408" y2="55.2416" gradientUnits="userSpaceOnUse">
<stop stop-color="#32A4F6"/>
<stop offset="1" stop-color="#4E32F6"/>
</linearGradient>
<linearGradient id="paint2_linear_3644_114313" x1="132" y1="22.0002" x2="116.5" y2="31.0002" gradientUnits="userSpaceOnUse">
<stop stop-color="#32A4F6"/>
<stop offset="1" stop-color="#4E32F6"/>
</linearGradient>
</defs>
</svg>
