<svg width="48" height="48" viewBox="0 0 48 48" fill="none" xmlns="http://www.w3.org/2000/svg">
<circle cx="24.0002" cy="24" r="23.5" fill="white" stroke="#E5E8EB"/>
<path fill-rule="evenodd" clip-rule="evenodd" d="M32.6398 24.2042C32.6398 23.566 32.5825 22.9524 32.4761 22.3633H23.9998V25.8446H28.8434C28.6348 26.9696 28.0007 27.9228 27.0475 28.561V30.8192H29.9561C31.6579 29.2524 32.6398 26.9451 32.6398 24.2042Z" fill="#4285F4"/>
<path fill-rule="evenodd" clip-rule="evenodd" d="M23.9998 33C26.4298 33 28.467 32.1941 29.9561 30.8195L27.0475 28.5613C26.2416 29.1013 25.2107 29.4204 23.9998 29.4204C21.6557 29.4204 19.6716 27.8372 18.9638 25.71H15.957V28.0418C17.4379 30.9831 20.4816 33 23.9998 33Z" fill="#34A853"/>
<path fill-rule="evenodd" clip-rule="evenodd" d="M18.9638 25.7098C18.7838 25.1698 18.6816 24.593 18.6816 23.9998C18.6816 23.4066 18.7838 22.8298 18.9638 22.2898V19.958H15.957C15.3475 21.173 14.9998 22.5476 14.9998 23.9998C14.9998 25.4521 15.3475 26.8266 15.957 28.0416L18.9638 25.7098Z" fill="#FBBC05"/>
<path fill-rule="evenodd" clip-rule="evenodd" d="M23.9998 18.5795C25.3211 18.5795 26.5075 19.0336 27.4402 19.9255L30.0216 17.3441C28.4629 15.8918 26.4257 15 23.9998 15C20.4816 15 17.4379 17.0168 15.957 19.9582L18.9638 22.29C19.6716 20.1627 21.6557 18.5795 23.9998 18.5795Z" fill="#EA4335"/>
</svg>
