<svg width="48" height="48" viewBox="0 0 48 48" fill="none" xmlns="http://www.w3.org/2000/svg">
<circle cx="24" cy="24" r="23" fill="white" stroke="#E5E8EB" stroke-width="2"/>
<g clip-path="url(#clip0_4133_175483)">
<path d="M23.9691 31.9343C32.7863 31.9343 39.9342 29.9229 39.9342 27.4418C39.9342 24.9607 32.7863 22.9492 23.9691 22.9492C15.1518 22.9492 8.00391 24.9606 8.00391 27.4418C8.00391 29.9231 15.1517 31.9343 23.9691 31.9343Z" fill="#B0B8C1"/>
<mask id="mask0_4133_175483" style="mask-type:luminance" maskUnits="userSpaceOnUse" x="8" y="8" width="32" height="24">
<path d="M39.8822 27.0862V8.05537H8.00122V27.797H8.05057C8.69446 30.112 15.5742 31.9341 23.9664 31.9341C32.7836 31.9341 39.9315 29.9227 39.9315 27.4416C39.9315 27.322 39.9148 27.2034 39.8822 27.0862Z" fill="white"/>
</mask>
<g mask="url(#mask0_4133_175483)">
<path d="M35.1266 40.7133V21.5457C35.1266 18.4873 32.6358 16.0105 29.5597 16.0105C26.4837 16.0105 23.9929 18.4903 23.9929 21.5457V21.5163C23.9929 18.4579 21.499 15.9812 18.426 15.9812C15.353 15.9812 12.8592 18.4609 12.8592 21.5163V40.5636C10.5959 42.0266 8.65743 43.9275 7.16528 46.1398C11.1394 47.509 17.1821 48.3844 23.9545 48.3844C30.7269 48.3844 36.6513 47.5266 40.6255 46.181C39.1806 44.0244 37.3101 42.1647 35.1296 40.7133H35.1266Z" fill="black"/>
<path d="M19.9158 22.0944C19.1268 22.0944 18.4856 22.729 18.4856 23.5165V38.0215C19.4104 37.7718 20.3647 37.5837 21.3428 37.4632V23.5165C21.3428 22.732 20.7016 22.0944 19.9127 22.0944H19.9158Z" fill="white"/>
<path d="M27.8728 22.0944C27.0838 22.0944 26.4426 22.729 26.4426 23.5165V37.4456C27.4207 37.5601 28.3751 37.7394 29.3 37.9804V23.5166C29.3 22.7321 28.6616 22.0945 27.8698 22.0945H27.8727L27.8728 22.0944Z" fill="white"/>
</g>
</g>
<defs>
<clipPath id="clip0_4133_175483">
<rect width="32" height="16" fill="white" transform="translate(7.99927 16.0007)"/>
</clipPath>
</defs>
</svg>
