<svg width="24" height="24" viewBox="0 0 24 24" fill="none" xmlns="http://www.w3.org/2000/svg">
<path d="M15.2205 5.87418C14.5963 6.61091 13.5528 7.15664 12.7236 7.15664C12.6211 7.15664 12.528 7.13845 12.472 7.12936C12.4627 7.08388 12.4348 6.94745 12.4348 6.80192C12.4348 5.87418 12.9193 4.94644 13.4503 4.36433C14.1118 3.6003 15.2298 3.03638 16.1615 3C16.1801 3.10005 16.1894 3.22739 16.1894 3.35472C16.1894 4.28247 15.7888 5.20111 15.2205 5.87418ZM15.8727 7.34765C16.3944 7.34765 18.2857 7.40222 19.5248 9.13946C19.413 9.22132 17.5404 10.2582 17.5404 12.5685C17.5404 15.2335 19.9255 16.1885 20 16.2067C19.9907 16.2703 19.618 17.4982 18.7422 18.7625C17.9503 19.8631 17.1211 20.9818 15.8727 20.9818C14.6149 20.9818 14.2888 20.2633 12.854 20.2633C11.4379 20.2633 10.9348 21 9.79814 21C8.64286 21 7.84161 19.9722 6.92857 18.717C5.85714 17.2345 5 14.9333 5 12.7504C5 9.25771 7.32919 7.40222 9.63043 7.40222C10.8416 7.40222 11.8478 8.17534 12.6211 8.17534C13.3478 8.17534 14.4845 7.34765 15.8727 7.34765Z" fill="white"/>
</svg>
