<svg width="48" height="48" viewBox="0 0 48 48" fill="none" xmlns="http://www.w3.org/2000/svg">
<path d="M48.0002 24C48.0002 37.2548 37.2551 48 24.0002 48C10.7454 48 0.000244141 37.2548 0.000244141 24C0.000244141 10.7452 10.7454 0 24.0002 0C37.2551 0 48.0002 10.7452 48.0002 24Z" fill="black"/>
<path d="M27.2203 17.8742C26.596 18.6109 25.5526 19.1566 24.7234 19.1566C24.6209 19.1566 24.5277 19.1385 24.4718 19.1294C24.4625 19.0839 24.4345 18.9474 24.4345 18.8019C24.4345 17.8742 24.919 16.9464 25.4501 16.3643C26.1116 15.6003 27.2296 15.0364 28.1612 15C28.1799 15.1001 28.1892 15.2274 28.1892 15.3547C28.1892 16.2825 27.7886 17.2011 27.2203 17.8742ZM27.8724 19.3477C28.3942 19.3477 30.2855 19.4022 31.5246 21.1395C31.4128 21.2213 29.5401 22.2582 29.5401 24.5685C29.5401 27.2335 31.9252 28.1885 31.9998 28.2067C31.9904 28.2703 31.6178 29.4982 30.742 30.7625C29.9501 31.8631 29.1209 32.9818 27.8724 32.9818C26.6147 32.9818 26.2886 32.2633 24.8538 32.2633C23.4376 32.2633 22.9345 33 21.7979 33C20.6426 33 19.8414 31.9722 18.9283 30.717C17.8569 29.2345 16.9998 26.9333 16.9998 24.7504C16.9998 21.2577 19.3289 19.4022 21.6302 19.4022C22.8414 19.4022 23.8476 20.1753 24.6209 20.1753C25.3476 20.1753 26.4842 19.3477 27.8724 19.3477Z" fill="white"/>
</svg>
