<svg width="14" height="15" viewBox="0 0 14 15" fill="none" xmlns="http://www.w3.org/2000/svg">
<path d="M10.5523 13.5867C9.81149 14.3061 9.00268 14.1925 8.22411 13.8517C7.40019 13.5034 6.6443 13.4882 5.77503 13.8517C4.68654 14.3213 4.11206 14.185 3.462 13.5867C-0.226753 9.77729 0.317489 3.97614 4.50513 3.76409C5.52558 3.81711 6.23612 4.32452 6.83327 4.36996C7.72523 4.1882 8.57938 3.66564 9.53181 3.7338C10.6732 3.82468 11.5349 4.27908 12.1018 5.09699C9.74346 6.5132 10.3028 9.62583 12.4647 10.4968C12.0338 11.6328 11.4744 12.7612 10.5447 13.5942L10.5523 13.5867ZM6.75768 3.71865C6.6443 2.02981 8.01247 0.636319 9.58472 0.5C9.80393 2.45391 7.81593 3.90799 6.75768 3.71865Z" fill="black"/>
</svg>
