<svg width="40" height="40" viewBox="0 0 40 40" fill="none" xmlns="http://www.w3.org/2000/svg">
<g clip-path="url(#clip0_1200_55290)">
<circle cx="20" cy="20" r="19.5" fill="white" stroke="#EAEFF4"/>
<path d="M28.1516 9.73181H11.7354C9.41187 9.73181 7.51953 11.6321 7.51953 13.9477V24.1519C7.51953 26.4754 9.41986 28.3678 11.7354 28.3678H17.5322L18.5302 30.0924L19.5123 31.7932C19.688 32.1046 20.1351 32.1046 20.3188 31.7932L21.3009 30.0924L22.299 28.3678H28.1596C30.4831 28.3678 32.3755 26.4675 32.3755 24.1519V13.9556C32.3755 11.6321 30.4752 9.73181 28.1516 9.73181Z" fill="url(#paint0_linear_1200_55290)"/>
<path d="M21.0945 17.2054C19.8249 17.2054 18.7949 18.2195 18.7949 19.4731C18.7949 20.7266 19.8249 21.7407 21.0945 21.7407C22.364 21.7407 23.394 20.7266 23.394 19.4731C23.394 18.2195 22.372 17.2054 21.0945 17.2054ZM21.0945 20.559C20.4876 20.559 19.9926 20.0719 19.9926 19.4731C19.9926 18.8742 20.4876 18.3872 21.0945 18.3872C21.7013 18.3872 22.1963 18.8742 22.1963 19.4731C22.1963 20.0719 21.7093 20.559 21.0945 20.559Z" fill="white"/>
<path d="M13.8201 17.2054C13.325 17.2054 12.8619 17.397 12.5026 17.7244V15.848H11.2251V21.6368H12.5026V21.2296C12.8619 21.549 13.3171 21.7486 13.8201 21.7486C14.9619 21.7486 15.8881 20.7346 15.8881 19.481C15.8881 18.2274 14.9699 17.2054 13.8201 17.2054ZM13.5646 20.6068C13.0935 20.6068 12.6863 20.3274 12.5106 19.9202C12.4547 19.7844 12.4148 19.6327 12.4148 19.473C12.4148 19.3133 12.4467 19.1616 12.5106 19.0259C12.6863 18.6187 13.0935 18.3392 13.5646 18.3392C14.2033 18.3392 14.7144 18.8422 14.7144 19.473C14.7144 20.1038 14.2033 20.6068 13.5646 20.6068Z" fill="white"/>
<path d="M27.3772 17.3013V17.6606C27.0179 17.3812 26.5707 17.2135 26.0917 17.2135C24.9179 17.2135 23.9678 18.1956 23.9678 19.4013C23.9678 20.6069 24.9179 21.589 26.0917 21.589C26.5787 21.589 27.0259 21.4214 27.3772 21.1419V21.7487C27.3772 21.7487 27.2494 22.3476 26.3552 22.3476V23.4734C26.3552 23.4734 27.3213 23.5852 28.1836 22.7229C28.1836 22.7229 28.5828 22.2997 28.6707 21.7407V17.3013H27.3772ZM26.3312 20.5111C25.6845 20.5111 25.1655 20.0081 25.1655 19.3933C25.1655 18.7785 25.6924 18.2754 26.3312 18.2754C26.7863 18.2754 27.1856 18.531 27.3772 18.8982C27.457 19.05 27.497 19.2176 27.497 19.3933C27.497 19.5689 27.449 19.7446 27.3772 19.8883C27.1856 20.2636 26.7863 20.5111 26.3312 20.5111Z" fill="white"/>
<path d="M16.0327 15.7362V16.894C16.0327 16.894 16.6236 16.9738 16.7354 17.5487V21.6368H18.0528V17.5487V17.5168C17.973 16.9419 17.6296 16.5107 17.6296 16.5107C16.8791 15.6244 16.0327 15.7362 16.0327 15.7362Z" fill="white"/>
</g>
<defs>
<linearGradient id="paint0_linear_1200_55290" x1="19.946" y1="32.025" x2="19.946" y2="9.73405" gradientUnits="userSpaceOnUse">
<stop stop-color="#00D44D"/>
<stop offset="1" stop-color="#00E56D"/>
</linearGradient>
<clipPath id="clip0_1200_55290">
<rect width="40" height="40" fill="white"/>
</clipPath>
</defs>
</svg>
