<svg width="182" height="24" viewBox="0 0 182 24" fill="none" xmlns="http://www.w3.org/2000/svg">
<path d="M121.958 19.6119C121.696 19.3257 121.526 18.9714 121.509 18.4327V6.54455C121.526 6.00587 121.696 5.65158 121.958 5.3654C121.968 5.35443 121.978 5.34361 121.988 5.33279C122.171 5.14079 122.395 4.9785 122.641 4.80859H117.479C117.725 4.9785 117.949 5.14079 118.132 5.33279C118.142 5.34361 118.153 5.35443 118.162 5.3654C118.424 5.65158 118.594 6.00587 118.611 6.54455V18.4327C118.594 18.9714 118.424 19.3257 118.162 19.6119C118.152 19.623 118.142 19.634 118.132 19.6449C117.948 19.8366 117.724 19.9992 117.479 20.169H122.641C122.396 19.9992 122.171 19.8368 121.988 19.6449C121.978 19.634 121.968 19.623 121.957 19.6119H121.958Z" fill="black"/>
<path d="M130.629 19.8442C130.546 19.8161 130.466 19.7858 130.391 19.7531C130.39 19.7524 130.388 19.7518 130.387 19.7514C130.387 19.7514 130.387 19.7514 130.387 19.7514C130.13 19.6392 129.921 19.4996 129.761 19.3322C129.568 19.115 129.36 18.8357 129.137 18.4944L123.905 10.5116L126.623 7.60657L127.553 6.61303L127.89 6.25264C128.075 6.05972 128.244 5.89606 128.396 5.7612C128.488 5.68273 128.7 5.51404 128.986 5.37324C129.036 5.35007 129.098 5.32249 129.168 5.29202C129.192 5.28257 129.213 5.27343 129.232 5.26459C129.34 5.21887 129.465 5.16813 129.603 5.11601C129.621 5.10992 129.638 5.10382 129.656 5.09788C129.664 5.09514 129.67 5.09224 129.675 5.0895C129.947 4.98938 130.264 4.88713 130.594 4.80957H125.728L126.081 4.92432C126.105 4.93285 126.129 4.94184 126.153 4.95098C126.412 5.06131 126.662 5.20973 126.831 5.35952C126.927 5.45126 126.995 5.56082 127.01 5.7449C127.025 5.92883 126.992 6.10285 126.93 6.26636C126.904 6.32777 126.872 6.39329 126.835 6.46339C126.695 6.70537 126.41 7.03848 126.186 7.2855L125.87 7.62226L121.5 12.2802L124.76 17.1254L125.567 18.3237C125.656 18.47 125.723 18.5981 125.772 18.7129C125.834 18.8764 125.866 19.0504 125.852 19.2343C125.837 19.4184 125.769 19.528 125.672 19.6197C125.503 19.7695 125.254 19.9179 124.995 20.0283C124.971 20.0374 124.946 20.0464 124.923 20.0549L124.57 20.1697H131.681C131.414 20.1221 130.953 19.9621 130.644 19.8481L130.63 19.8439L130.629 19.8442Z" fill="black"/>
<path d="M94.9921 20.1702C94.1277 20.1745 93.291 20.0167 92.4818 19.6969C91.6868 19.377 90.9691 18.9023 90.3285 18.2727C89.702 17.6284 89.2026 16.8289 88.8297 15.8743C88.457 14.9197 88.2677 13.8023 88.2619 12.5221C88.2561 11.2568 88.4353 10.1449 88.7994 9.18676C89.1635 8.22848 89.6629 7.43159 90.2978 6.79564C90.9324 6.14505 91.6459 5.65601 92.438 5.32851C93.2442 4.98622 94.0725 4.81295 94.9226 4.80868C95.7871 4.80441 96.6167 4.96229 97.4117 5.28203C98.2209 5.58713 98.9386 6.06184 99.5651 6.70618C100.206 7.33574 100.712 8.13521 101.085 9.10462C101.458 10.0592 101.647 11.1766 101.653 12.4568C101.659 13.7075 101.479 14.8192 101.115 15.7921C100.751 16.7504 100.252 17.5548 99.6171 18.2052C98.9965 18.841 98.2832 19.33 97.4769 19.6723C96.6849 20 95.8567 20.1658 94.9922 20.1701L94.9921 20.1702ZM94.99 19.7068C95.7695 19.703 96.399 19.4866 96.8789 19.0574C97.3587 18.6136 97.7024 17.8689 97.9103 16.8231C98.1322 15.7626 98.2391 14.3127 98.2307 12.4734C98.2224 10.6194 98.1024 9.1706 97.871 8.12699C97.6536 7.06858 97.3031 6.32717 96.8195 5.90289C96.3357 5.46384 95.7041 5.24621 94.9248 5.25002C94.1596 5.25383 93.5371 5.47755 93.0574 5.92133C92.5776 6.35033 92.2267 7.09525 92.0048 8.15579C91.7969 9.20154 91.6972 10.6515 91.7056 12.5054C91.7139 14.3447 91.8267 15.7934 92.044 16.8519C92.2755 17.8955 92.6331 18.6368 93.1169 19.0758C93.6007 19.5001 94.2251 19.7104 94.9903 19.7068H94.99Z" fill="black"/>
<path d="M109.601 20.1702C108.737 20.1745 107.9 20.0167 107.091 19.6969C106.296 19.377 105.578 18.9023 104.938 18.2727C104.311 17.6284 103.812 16.8289 103.439 15.8743C103.066 14.9197 102.877 13.8023 102.871 12.5221C102.866 11.2568 103.045 10.1449 103.409 9.18676C103.773 8.22848 104.272 7.43159 104.907 6.79564C105.542 6.14505 106.255 5.65601 107.047 5.32851C107.854 4.98622 108.682 4.81295 109.532 4.80868C110.397 4.80441 111.226 4.96229 112.021 5.28203C112.83 5.58713 113.548 6.06184 114.175 6.70618C114.815 7.33574 115.322 8.13521 115.694 9.10462C116.067 10.0592 116.256 11.1766 116.262 12.4568C116.268 13.7075 116.089 14.8192 115.725 15.7921C115.361 16.7504 114.861 17.5548 114.227 18.2052C113.606 18.841 112.893 19.33 112.086 19.6723C111.294 20 110.466 20.1658 109.602 20.1701L109.601 20.1702ZM109.599 19.7068C110.379 19.703 111.008 19.4866 111.488 19.0574C111.968 18.6136 112.312 17.8689 112.52 16.8231C112.742 15.7626 112.848 14.3127 112.84 12.4734C112.832 10.6194 112.712 9.1706 112.48 8.12699C112.263 7.06858 111.912 6.32717 111.429 5.90289C110.945 5.46384 110.313 5.24621 109.534 5.25002C108.769 5.25383 108.146 5.47755 107.667 5.92133C107.187 6.35033 106.836 7.09525 106.614 8.15579C106.406 9.20154 106.307 10.6515 106.315 12.5054C106.323 14.3447 106.436 15.7934 106.653 16.8519C106.885 17.8955 107.242 18.6368 107.726 19.0758C108.21 19.5001 108.834 19.7104 109.6 19.7068H109.599Z" fill="black"/>
<path d="M85.9007 13.3272C85.1389 12.6134 83.9365 12.1635 82.2937 11.9773C83.7275 11.7135 84.7357 11.2635 85.3183 10.6274C85.9157 9.97574 86.2144 9.25415 86.2144 8.46275C86.2144 7.40756 85.8111 6.53875 85.0045 5.85601C84.1979 5.15773 82.8835 4.80859 81.0613 4.80859H75.0729C75.3339 4.98796 75.5711 5.15911 75.7606 5.36545C76.0377 5.66719 76.2133 6.04468 76.2134 6.6343L76.2141 14.4922L76.2134 18.3435C76.2134 18.906 76.0536 19.2754 75.7982 19.5703C75.7736 19.5987 75.7482 19.6262 75.7219 19.6534C75.5392 19.8417 75.3164 20.0019 75.0729 20.1694H75.0731C75.0731 20.1694 75.0726 20.1698 75.0723 20.17L77.7038 20.1694L77.7081 20.1691L78.0821 20.17V20.1694H78.0826V20.1703H80.322C81.6513 20.1703 82.7491 20.0461 83.6155 19.7978C84.4818 19.534 85.1613 19.1927 85.6542 18.7737C86.162 18.3548 86.5205 17.8972 86.7295 17.4005C86.9387 16.8884 87.0433 16.3842 87.0433 15.8877C87.0433 14.8791 86.6624 14.0255 85.9007 13.3272ZM79.1346 5.27416H80.3445C81.2556 5.27416 81.9128 5.53796 82.3161 6.06556C82.7195 6.59315 82.921 7.47751 82.921 8.71893C82.921 9.96035 82.697 10.7516 82.2489 11.2327C81.8157 11.7137 81.0988 11.9543 80.098 11.9543H79.1346V5.27416ZM82.7416 18.7736C82.2039 19.3943 81.375 19.7046 80.2548 19.7046H79.1346V12.4194H80.21C81.4049 12.4194 82.2637 12.6832 82.7864 13.2108C83.3092 13.7384 83.5707 14.6229 83.5707 15.8642C83.5707 17.1832 83.2944 18.1529 82.7416 18.7736Z" fill="black"/>
<path d="M53.7797 18.6143L53.78 16.7208L53.7803 11.2813C53.7803 10.5268 53.5749 10.0256 53.2429 9.62566C53.1999 9.5697 53.1547 9.51543 53.1073 9.46269C52.9577 9.28101 52.7874 9.13445 52.6011 9.01778C52.6008 9.01762 52.6005 9.01732 52.6 9.01716C52.5313 8.96964 52.4604 8.92456 52.3871 8.88256C52.3815 8.87857 52.3762 8.87474 52.3706 8.87075C52.209 8.77202 52.0317 8.688 51.8381 8.62193C51.8374 8.62162 51.8367 8.62131 51.8359 8.62101C51.2068 8.38245 50.5316 8.43504 50.101 8.51231C49.9643 8.53454 49.8306 8.56581 49.7005 8.60552C49.6901 8.60859 49.6811 8.61135 49.6739 8.61365C49.673 8.61396 49.6723 8.61411 49.6714 8.61441C49.6578 8.61871 49.6508 8.62101 49.6508 8.62101C49.5495 8.65397 49.4508 8.69184 49.3548 8.73446C49.3548 8.73446 49.3545 8.73446 49.3544 8.73446C47.6615 9.30815 46.602 11.0188 46.602 11.0188L46.6023 8.47367L42.6094 9.60466L43.7889 11.0205L43.7876 18.3952C43.7876 19.3596 43.3102 19.7407 42.6884 20.1698H45.2335H47.7064C47.7023 20.1669 47.6982 20.1727 47.694 20.1698C47.0783 19.7438 46.6075 19.3568 46.6075 18.398V16.0566H46.6078V12.6359C46.6078 12.6359 46.6079 12.6356 46.6079 12.6355V12.0455C46.6079 11.294 47.1171 10.6338 47.8288 10.3398C47.8803 10.3185 47.9329 10.299 47.9865 10.2817C47.9865 10.2817 47.9915 10.2798 48.001 10.2769C48.0016 10.2768 48.0022 10.2766 48.0028 10.2763C48.0079 10.2748 48.0141 10.2728 48.0216 10.2706C48.1132 10.2427 48.2074 10.2207 48.3038 10.205C48.6072 10.1506 49.0829 10.1135 49.5261 10.2815C49.5267 10.2817 49.5272 10.282 49.5277 10.2821C49.6642 10.3287 49.7891 10.3878 49.9029 10.4574C49.9069 10.4601 49.9107 10.4629 49.9145 10.4657C50.1512 10.6013 50.3567 10.7801 50.5175 10.9892C50.7513 11.271 50.8961 11.6241 50.8961 12.1556L50.8958 15.9881L50.8954 18.3908C50.8954 19.2386 50.527 19.6325 50.0161 20.0069C49.9453 20.0587 49.8718 20.1175 49.796 20.1697H49.869C49.869 20.1697 49.8684 20.1694 49.8681 20.1697H54.8595C54.5203 19.9348 53.8642 19.3097 53.7797 18.6143Z" fill="black"/>
<path d="M61.0071 18.6202L61.0074 16.7266L61.0077 11.2871C61.0077 10.5327 60.8023 10.0315 60.4702 9.63149C60.4273 9.57553 60.3821 9.52125 60.3347 9.46851C60.185 9.28684 60.0148 9.14027 59.8284 9.0236C59.8282 9.02345 59.8279 9.02314 59.8274 9.02299C59.7587 8.97546 59.6878 8.93039 59.6145 8.88838C59.6089 8.8844 59.6036 8.88056 59.598 8.87658C59.4364 8.77784 59.2591 8.69383 59.0655 8.62775C59.0648 8.62745 59.0641 8.62714 59.0633 8.62683C58.7599 8.5117 58.4458 8.46448 58.1535 8.45497L58.154 8.45466C58.1466 8.45451 58.1393 8.45466 58.1319 8.45436C57.9996 8.45083 57.872 8.45512 57.7522 8.46402L57.7444 8.47076C56.7579 8.57593 56.0035 9.14656 55.5227 9.64191C55.1248 10.0519 54.9141 10.4102 54.9141 10.4102C54.9358 10.3987 54.9579 10.3878 54.98 10.3773C54.9816 10.3766 54.9832 10.3758 54.9849 10.375C55.0055 10.3654 55.0262 10.356 55.0471 10.3471C55.0493 10.3462 55.0517 10.3452 55.054 10.3442C55.0743 10.3356 55.0948 10.3275 55.1151 10.3197C55.1174 10.3188 55.12 10.3179 55.1223 10.3169C55.1429 10.3091 55.1637 10.3018 55.1843 10.2947C55.1862 10.2941 55.1881 10.2933 55.19 10.2927C55.2116 10.2854 55.2334 10.2785 55.2551 10.2719C55.2558 10.2716 55.2565 10.2714 55.2574 10.2711C55.2798 10.2644 55.3021 10.2581 55.3244 10.2521C55.3254 10.2518 55.3266 10.2515 55.3276 10.2512C55.3489 10.2455 55.3701 10.2401 55.3912 10.2352C55.3932 10.2348 55.3953 10.2343 55.3972 10.2338C55.4175 10.2291 55.4377 10.2246 55.4578 10.2205C55.4602 10.22 55.4626 10.2196 55.4648 10.2191C55.4848 10.215 55.5046 10.2113 55.5244 10.2078C55.5264 10.2075 55.5285 10.207 55.5304 10.2067C55.5509 10.2032 55.5712 10.1998 55.5912 10.1967C55.5924 10.1966 55.5934 10.1964 55.5946 10.1963C55.6158 10.1931 55.6368 10.1902 55.6574 10.1875C55.6577 10.1875 55.658 10.1875 55.6584 10.1875C55.6789 10.1849 55.6991 10.1826 55.7189 10.1806C55.7204 10.1806 55.7219 10.1803 55.7233 10.1802C55.7353 10.179 55.747 10.178 55.7588 10.177L55.7563 10.1791C55.8209 10.1725 55.8896 10.1679 55.961 10.1661C55.969 10.1659 55.9769 10.1658 55.985 10.1658C56.0774 10.1647 56.1569 10.1682 56.2177 10.1725C56.2306 10.1736 56.2434 10.1744 56.2565 10.1756C56.4196 10.1911 56.5885 10.225 56.7532 10.2874C56.7538 10.2875 56.7543 10.2878 56.7548 10.288C56.8913 10.3346 57.0162 10.3936 57.13 10.4632C57.1339 10.466 57.1378 10.4687 57.1416 10.4715C57.3782 10.6072 57.5838 10.7859 57.7445 10.995C57.9784 11.2768 58.1232 11.6299 58.1232 12.1614L58.1229 15.9939L58.1225 18.3966C58.1225 19.2444 57.7541 19.6383 57.2431 20.0127C57.1724 20.0645 57.0989 20.1174 57.0231 20.1697H57.0961C57.0961 20.1697 57.0955 20.1694 57.0952 20.1697H62.0866C61.7474 19.9348 61.0913 19.3156 61.0068 18.6202H61.0071Z" fill="black"/>
<path d="M73.0012 17.4327C72.7388 17.7202 72.4642 17.9608 72.1771 18.1541C72.0656 18.2293 71.9523 18.2972 71.8372 18.3581C71.7483 18.4051 71.6539 18.4476 71.5544 18.4856C71.5248 18.497 71.4948 18.5079 71.4644 18.5183C71.44 18.5267 71.4153 18.5348 71.3903 18.5427C71.3891 18.5431 71.3878 18.5434 71.3866 18.5439C71.3618 18.5517 71.3366 18.5592 71.3112 18.5666C71.3108 18.5666 71.3103 18.5669 71.3097 18.567C71.2578 18.5819 71.2046 18.5957 71.1503 18.6086C71.1497 18.6086 71.1491 18.6089 71.1485 18.6091C70.8183 18.6865 70.4432 18.7253 70.0232 18.7253C68.9183 18.7253 68.0823 18.3659 67.5149 17.6469C66.9625 16.9128 66.6789 15.7198 66.6639 14.068H73.3377C73.3824 13.9303 73.4123 13.7775 73.4272 13.6091C73.4422 13.4256 73.4496 13.2497 73.4496 13.0815C73.4496 12.1944 73.263 11.4068 72.8897 10.7185C72.5313 10.0149 72.0089 9.46427 71.3221 9.0667C70.6353 8.65379 69.8068 8.44727 68.8362 8.44727C67.8657 8.44727 67.0222 8.67664 66.1712 9.13554C65.3352 9.59445 64.6484 10.2674 64.1109 11.1544C63.5734 12.0262 63.3047 13.0892 63.3047 14.3434C63.3047 15.5976 63.5361 16.5918 63.9989 17.4636C64.4618 18.3354 65.1038 19.0083 65.9249 19.4824C66.746 19.9413 67.6867 20.1707 68.7467 20.1707C69.8066 20.1707 70.7398 19.9336 71.5012 19.4594C71.5353 19.4385 71.5689 19.4174 71.6024 19.3958C71.6108 19.3904 71.6193 19.3849 71.6277 19.3795C71.6584 19.3596 71.6889 19.3393 71.719 19.3188C71.7217 19.317 71.7244 19.3153 71.7269 19.3134C71.7607 19.2903 71.7941 19.2668 71.8271 19.2429C71.8325 19.2391 71.8378 19.2351 71.8432 19.2312C71.8745 19.2084 71.9057 19.1852 71.9365 19.1618C71.9381 19.1606 71.9398 19.1593 71.9413 19.1581C71.9756 19.1319 72.0095 19.1052 72.0431 19.0781C72.044 19.0773 72.0449 19.0767 72.0456 19.0759C72.0792 19.0488 72.1123 19.0213 72.1452 18.9934C72.1455 18.9933 72.1458 18.993 72.1459 18.9928C72.1765 18.9668 72.2068 18.9401 72.2368 18.9132C72.2417 18.909 72.2465 18.9045 72.2514 18.9002C72.2819 18.8728 72.3121 18.845 72.3418 18.817C72.3419 18.8168 72.3421 18.8167 72.3424 18.8165C72.3737 18.7803 72.4115 18.7408 72.4561 18.6972C72.5057 18.6489 72.5525 18.6008 72.5972 18.5529C72.5977 18.5525 72.5982 18.552 72.5988 18.5514C72.6209 18.5278 72.6604 18.4836 72.6604 18.4836C73.0114 18.0913 73.2057 17.725 73.3129 17.4433C73.3983 17.2192 73.4286 17.0488 73.4393 16.962C73.4444 16.9206 73.4451 16.8982 73.4451 16.8982C73.4178 16.9567 73.3032 17.1037 73.14 17.2839C73.0969 17.3315 73.0502 17.3817 73.0009 17.4329L73.0012 17.4327ZM66.6139 13.1442C66.6139 12.045 66.6777 11.1858 66.8053 10.5664C66.9413 9.9382 67.154 9.4977 67.443 9.24471C67.7321 8.98298 68.1062 8.8522 68.5653 8.8522C69.0244 8.8522 69.4113 8.98298 69.7005 9.24471C69.9896 9.4977 70.1978 9.9382 70.3255 10.5664C70.4614 11.1858 70.5295 12.045 70.5295 13.1442C70.5295 13.3034 70.528 13.4572 70.525 13.6064H66.6181C66.6154 13.4572 66.6139 13.3032 66.6139 13.1442Z" fill="black"/>
<g clip-path="url(#clip0_6150_204693)">
<path d="M18.8285 21.9198C29.2271 21.9198 37.6569 19.5313 37.6569 16.585C37.6569 13.6387 29.2271 11.25 18.8285 11.25C8.42989 11.25 0 13.6385 0 16.585C0 19.5314 8.42976 21.9198 18.8285 21.9198Z" fill="#B0B8C1"/>
<mask id="mask0_6150_204693" style="mask-type:luminance" maskUnits="userSpaceOnUse" x="0" y="-7" width="38" height="29">
<path d="M37.5987 16.1636V-6.43555H0V17.0076H0.0581998C0.817575 19.7566 8.93121 21.9204 18.8285 21.9204C29.2271 21.9204 37.6569 19.5319 37.6569 16.5856C37.6569 16.4435 37.6373 16.3027 37.5987 16.1636Z" fill="white"/>
</mask>
<g mask="url(#mask0_6150_204693)">
<path d="M31.9839 32.348V9.58644C31.9839 5.95454 29.0464 3.0134 25.4187 3.0134C21.791 3.0134 18.8535 5.95808 18.8535 9.58644V9.55156C18.8535 5.91966 15.9123 2.97852 12.2881 2.97852C8.66394 2.97852 5.72289 5.9232 5.72289 9.55156V32.1701C3.05365 33.9075 0.767569 36.1648 -0.992188 38.7919C3.69473 40.4178 10.8211 41.4574 18.8081 41.4574C26.7952 41.4574 33.782 40.4388 38.4691 38.8409C36.765 36.2799 34.5591 34.0715 31.9874 32.348H31.9839Z" fill="black"/>
<path d="M14.0421 10.2393C13.1117 10.2393 12.3555 10.9928 12.3555 11.9279V29.1526C13.4461 28.8561 14.5716 28.6327 15.7251 28.4896V11.9279C15.7251 10.9964 14.9689 10.2393 14.0385 10.2393H14.0421Z" fill="white"/>
<path d="M23.4288 10.2393C22.4984 10.2393 21.7422 10.9928 21.7422 11.9279V28.4688C22.8957 28.6048 24.0212 28.8177 25.112 29.1038V11.9281C25.112 10.9965 24.3592 10.2394 23.4253 10.2394H23.4287L23.4288 10.2393Z" fill="white"/>
</g>
</g>
<path d="M172.136 5.15333C172.875 5.15333 173.541 5.34855 174.136 5.73901C174.737 6.12345 175.229 6.67609 175.614 7.39692C175.998 8.11174 176.244 8.95571 176.353 9.92884H179.164V4H181.488V20.453H179.164V11.785H176.38C176.296 12.8182 176.061 13.7192 175.677 14.4881C175.298 15.251 174.803 15.8397 174.19 16.2541C173.577 16.6626 172.893 16.8668 172.136 16.8668C171.319 16.8668 170.586 16.6266 169.937 16.146C169.294 15.6655 168.79 14.9807 168.423 14.0916C168.063 13.2026 167.883 12.1694 167.883 10.9921C167.883 9.82672 168.063 8.80254 168.423 7.91952C168.79 7.0365 169.294 6.35472 169.937 5.87416C170.586 5.39361 171.319 5.15333 172.136 5.15333ZM172.136 7.26176C171.727 7.26777 171.37 7.41494 171.063 7.70327C170.757 7.9916 170.52 8.41509 170.352 8.97373C170.183 9.53238 170.099 10.2052 170.099 10.9921C170.099 11.791 170.183 12.4728 170.352 13.0374C170.52 13.6021 170.757 14.0316 171.063 14.3259C171.37 14.6142 171.727 14.7584 172.136 14.7584C172.55 14.7584 172.911 14.6142 173.217 14.3259C173.529 14.0376 173.77 13.6111 173.938 13.0464C174.106 12.4818 174.19 11.797 174.19 10.9921C174.19 10.1991 174.106 9.52337 173.938 8.96472C173.77 8.40608 173.529 7.9856 173.217 7.70327C172.911 7.41494 172.55 7.26777 172.136 7.26176Z" fill="black"/>
<path d="M172.136 5.15333C172.875 5.15333 173.541 5.34855 174.136 5.73901C174.737 6.12345 175.229 6.67609 175.614 7.39692C175.998 8.11174 176.244 8.95571 176.353 9.92884H179.164V4H181.488V20.453H179.164V11.785H176.38C176.296 12.8182 176.061 13.7192 175.677 14.4881C175.298 15.251 174.803 15.8397 174.19 16.2541C173.577 16.6626 172.893 16.8668 172.136 16.8668C171.319 16.8668 170.586 16.6266 169.937 16.146C169.294 15.6655 168.79 14.9807 168.423 14.0916C168.063 13.2026 167.883 12.1694 167.883 10.9921C167.883 9.82672 168.063 8.80254 168.423 7.91952C168.79 7.0365 169.294 6.35472 169.937 5.87416C170.586 5.39361 171.319 5.15333 172.136 5.15333ZM172.136 7.26176C171.727 7.26777 171.37 7.41494 171.063 7.70327C170.757 7.9916 170.52 8.41509 170.352 8.97373C170.183 9.53238 170.099 10.2052 170.099 10.9921C170.099 11.791 170.183 12.4728 170.352 13.0374C170.52 13.6021 170.757 14.0316 171.063 14.3259C171.37 14.6142 171.727 14.7584 172.136 14.7584C172.55 14.7584 172.911 14.6142 173.217 14.3259C173.529 14.0376 173.77 13.6111 173.938 13.0464C174.106 12.4818 174.19 11.797 174.19 10.9921C174.19 10.1991 174.106 9.52337 173.938 8.96472C173.77 8.40608 173.529 7.9856 173.217 7.70327C172.911 7.41494 172.55 7.26777 172.136 7.26176Z" fill="url(#paint0_linear_6150_204693)"/>
<path d="M165.448 13.9834H160.691V16.7226H167.034V18.5967H152.059V16.7226H158.384V13.9834H153.807V5.11719H165.322V6.99135H156.185V8.61322H164.943V10.4153H156.185V12.1273H165.448V13.9834Z" fill="black"/>
<path d="M165.448 13.9834H160.691V16.7226H167.034V18.5967H152.059V16.7226H158.384V13.9834H153.807V5.11719H165.322V6.99135H156.185V8.61322H164.943V10.4153H156.185V12.1273H165.448V13.9834Z" fill="url(#paint1_linear_6150_204693)"/>
<path d="M145.138 6.14401C145.144 6.96095 145.379 7.75987 145.841 8.54077C146.304 9.32167 146.97 10.0005 147.841 10.5771C148.718 11.1478 149.752 11.5322 150.941 11.7304L149.95 13.6767C148.544 13.4004 147.319 12.8868 146.274 12.1359C145.228 11.385 144.435 10.478 143.895 9.41478C143.348 10.484 142.555 11.3941 141.516 12.1449C140.477 12.8958 139.257 13.4064 137.858 13.6767L136.849 11.7304C138.032 11.5262 139.062 11.1358 139.939 10.5591C140.822 9.98243 141.495 9.30365 141.958 8.52275C142.42 7.74185 142.651 6.94893 142.651 6.14401V4.97266H145.138V6.14401ZM151.464 18.4162H136.488V16.506H151.464V18.4162Z" fill="black"/>
<path d="M145.138 6.14401C145.144 6.96095 145.379 7.75987 145.841 8.54077C146.304 9.32167 146.97 10.0005 147.841 10.5771C148.718 11.1478 149.752 11.5322 150.941 11.7304L149.95 13.6767C148.544 13.4004 147.319 12.8868 146.274 12.1359C145.228 11.385 144.435 10.478 143.895 9.41478C143.348 10.484 142.555 11.3941 141.516 12.1449C140.477 12.8958 139.257 13.4064 137.858 13.6767L136.849 11.7304C138.032 11.5262 139.062 11.1358 139.939 10.5591C140.822 9.98243 141.495 9.30365 141.958 8.52275C142.42 7.74185 142.651 6.94893 142.651 6.14401V4.97266H145.138V6.14401ZM151.464 18.4162H136.488V16.506H151.464V18.4162Z" fill="url(#paint2_linear_6150_204693)"/>
<defs>
<linearGradient id="paint0_linear_6150_204693" x1="183.798" y1="12.2867" x2="136.002" y2="12.2867" gradientUnits="userSpaceOnUse">
<stop stop-color="#4E32F6"/>
<stop offset="1" stop-color="#32A4F6"/>
</linearGradient>
<linearGradient id="paint1_linear_6150_204693" x1="183.797" y1="12.2866" x2="136.001" y2="12.2866" gradientUnits="userSpaceOnUse">
<stop stop-color="#4E32F6"/>
<stop offset="1" stop-color="#32A4F6"/>
</linearGradient>
<linearGradient id="paint2_linear_6150_204693" x1="183.798" y1="12.2862" x2="136.002" y2="12.2862" gradientUnits="userSpaceOnUse">
<stop stop-color="#4E32F6"/>
<stop offset="1" stop-color="#32A4F6"/>
</linearGradient>
<clipPath id="clip0_6150_204693">
<rect width="37.7391" height="19" fill="white" transform="translate(0 3)"/>
</clipPath>
</defs>
</svg>
