<svg width="165" height="21" viewBox="0 0 165 21" fill="none" xmlns="http://www.w3.org/2000/svg">
<path d="M110.565 17.0592C110.328 16.7998 110.173 16.4786 110.158 15.9902V5.21247C110.173 4.72411 110.328 4.40292 110.565 4.14347C110.574 4.13352 110.583 4.12372 110.592 4.11391C110.758 3.93984 110.961 3.79271 111.184 3.63867H106.504C106.727 3.79271 106.93 3.93984 107.096 4.11391C107.106 4.12372 107.115 4.13352 107.124 4.14347C107.361 4.40292 107.515 4.72411 107.531 5.21247V15.9902C107.515 16.4786 107.361 16.7998 107.124 17.0592C107.115 17.0693 107.105 17.0793 107.096 17.0892C106.93 17.263 106.727 17.4104 106.504 17.5643H111.185C110.962 17.4104 110.758 17.2631 110.593 17.0892C110.583 17.0793 110.574 17.0693 110.564 17.0592H110.565Z" fill="black"/>
<path d="M118.425 17.2699C118.349 17.2445 118.277 17.217 118.209 17.1873C118.208 17.1868 118.206 17.1862 118.205 17.1858C118.205 17.1858 118.205 17.1858 118.206 17.1858C117.972 17.0841 117.783 16.9576 117.638 16.8057C117.463 16.6089 117.274 16.3556 117.073 16.0462L112.329 8.80908L114.793 6.17539L115.636 5.27465L115.942 4.94793C116.109 4.77303 116.262 4.62466 116.401 4.50239C116.483 4.43125 116.676 4.27832 116.935 4.15066C116.981 4.12967 117.037 4.10466 117.1 4.07703C117.122 4.06847 117.141 4.06018 117.158 4.05216C117.256 4.01072 117.37 3.96471 117.495 3.91747C117.511 3.91194 117.527 3.90642 117.543 3.90103C117.55 3.89854 117.556 3.89592 117.56 3.89343C117.806 3.80267 118.094 3.70997 118.393 3.63965H113.982L114.301 3.74368C114.323 3.75141 114.345 3.75956 114.367 3.76785C114.602 3.86787 114.828 4.00243 114.981 4.13823C115.068 4.2214 115.13 4.32073 115.144 4.48761C115.157 4.65436 115.127 4.81213 115.071 4.96036C115.048 5.01604 115.019 5.07544 114.985 5.13899C114.858 5.35837 114.6 5.66037 114.397 5.88431L114.111 6.18962L110.148 10.4124L113.104 14.8051L113.835 15.8915C113.917 16.0241 113.977 16.1403 114.021 16.2443C114.077 16.3925 114.107 16.5503 114.094 16.717C114.08 16.8839 114.019 16.9833 113.931 17.0664C113.778 17.2022 113.552 17.3368 113.317 17.4368C113.295 17.4451 113.273 17.4532 113.252 17.461L112.932 17.565H119.378C119.137 17.5219 118.719 17.3769 118.438 17.2735L118.425 17.2696L118.425 17.2699Z" fill="black"/>
<path d="M86.1193 17.5664C85.3356 17.5703 84.5771 17.4273 83.8435 17.1373C83.1228 16.8473 82.472 16.4169 81.8913 15.8461C81.3234 15.262 80.8706 14.5372 80.5325 13.6717C80.1946 12.8063 80.023 11.7933 80.0177 10.6327C80.0125 9.48553 80.175 8.47749 80.505 7.60886C80.8351 6.7401 81.2879 6.01764 81.8634 5.44109C82.4388 4.85127 83.0857 4.40791 83.8038 4.111C84.5347 3.80068 85.2855 3.64359 86.0563 3.63972C86.84 3.63586 87.5922 3.77899 88.3129 4.06886C89.0465 4.34546 89.6972 4.77584 90.2652 5.35999C90.8457 5.93074 91.3052 6.65554 91.6431 7.53439C91.981 8.39985 92.1526 9.41285 92.1579 10.5734C92.1631 11.7073 92.0005 12.7152 91.6706 13.5973C91.3405 14.466 90.8877 15.1952 90.3123 15.7849C89.7497 16.3613 89.1029 16.8047 88.372 17.115C87.654 17.4121 86.9031 17.5624 86.1194 17.5663L86.1193 17.5664ZM86.1174 17.1462C86.8241 17.1428 87.3948 16.9466 87.8298 16.5575C88.2648 16.1552 88.5764 15.48 88.7649 14.5319C88.9661 13.5704 89.063 12.256 89.0554 10.5885C89.0478 8.90773 88.939 7.59422 88.7293 6.64808C88.5322 5.68854 88.2145 5.01638 87.776 4.63173C87.3374 4.23369 86.7648 4.03639 86.0583 4.03984C85.3646 4.0433 84.8002 4.24612 84.3653 4.64845C83.9303 5.03738 83.6122 5.71272 83.411 6.67419C83.2225 7.62227 83.1322 8.93675 83.1398 10.6175C83.1473 12.285 83.2496 13.5984 83.4466 14.558C83.6564 15.5042 83.9807 16.1762 84.4193 16.5742C84.8579 16.9589 85.424 17.1496 86.1177 17.1462H86.1174Z" fill="black"/>
<path d="M99.3634 17.5664C98.5797 17.5703 97.8211 17.4273 97.0876 17.1373C96.3669 16.8473 95.7162 16.4169 95.1355 15.8461C94.5675 15.262 94.1147 14.5372 93.7767 13.6717C93.4388 12.8063 93.2672 11.7933 93.2618 10.6327C93.2567 9.48553 93.4191 8.47749 93.7492 7.60886C94.0792 6.7401 94.532 6.01764 95.1076 5.44109C95.683 4.85127 96.3298 4.40791 97.0478 4.111C97.7789 3.80068 98.5296 3.64359 99.3005 3.63972C100.084 3.63586 100.836 3.77899 101.557 4.06886C102.291 4.34546 102.941 4.77584 103.509 5.35999C104.09 5.93074 104.549 6.65554 104.887 7.53439C105.225 8.39985 105.397 9.41285 105.402 10.5734C105.407 11.7073 105.245 12.7152 104.915 13.5973C104.585 14.466 104.132 15.1952 103.556 15.7849C102.994 16.3613 102.347 16.8047 101.616 17.115C100.898 17.4121 100.147 17.5624 99.3636 17.5663L99.3634 17.5664ZM99.3615 17.1462C100.068 17.1428 100.639 16.9466 101.074 16.5575C101.509 16.1552 101.82 15.48 102.009 14.5319C102.21 13.5704 102.307 12.256 102.299 10.5885C102.292 8.90773 102.183 7.59422 101.973 6.64808C101.776 5.68854 101.459 5.01638 101.02 4.63173C100.581 4.23369 100.009 4.03639 99.3024 4.03984C98.6087 4.0433 98.0443 4.24612 97.6094 4.64845C97.1744 5.03738 96.8563 5.71272 96.6551 6.67419C96.4666 7.62227 96.3763 8.93675 96.3839 10.6175C96.3914 12.285 96.4937 13.5984 96.6907 14.558C96.9005 15.5042 97.2248 16.1762 97.6634 16.5742C98.1019 16.9589 98.668 17.1496 99.3618 17.1462H99.3615Z" fill="black"/>
<path d="M77.8775 11.3626C77.1869 10.7155 76.0968 10.3076 74.6074 10.1388C75.9074 9.89961 76.8214 9.49162 77.3495 8.91493C77.8911 8.32415 78.1619 7.66996 78.1619 6.95248C78.1619 5.99585 77.7963 5.2082 77.0651 4.58923C76.3337 3.95618 75.1422 3.63965 73.4902 3.63965H68.0611C68.2977 3.80226 68.5128 3.95742 68.6846 4.14449C68.9358 4.41805 69.095 4.76028 69.0951 5.29482L69.0958 12.4187L69.0951 15.9103C69.0951 16.4203 68.9502 16.7552 68.7186 17.0225C68.6964 17.0482 68.6734 17.0732 68.6495 17.0978C68.4839 17.2686 68.2819 17.4138 68.0611 17.5656H68.0613C68.0613 17.5656 68.0608 17.5661 68.0605 17.5662L70.4463 17.5656L70.4502 17.5654L70.7892 17.5662V17.5656H70.7897V17.5665H72.82C74.0251 17.5665 75.0203 17.4539 75.8057 17.2288C76.5911 16.9896 77.2072 16.6802 77.6541 16.3004C78.1144 15.9205 78.4395 15.5056 78.629 15.0554C78.8186 14.5912 78.9134 14.134 78.9134 13.6839C78.9134 12.7695 78.5681 11.9957 77.8775 11.3626ZM71.7435 4.06173H72.8403C73.6663 4.06173 74.2621 4.30089 74.6278 4.7792C74.9935 5.25752 75.1762 6.05927 75.1762 7.18473C75.1762 8.3102 74.9731 9.02753 74.5668 9.46371C74.1741 9.89975 73.5241 10.1179 72.6169 10.1179H71.7435V4.06173ZM75.0136 16.3002C74.526 16.8629 73.7746 17.1442 72.759 17.1442H71.7435V10.5396H72.7183C73.8016 10.5396 74.5802 10.7787 75.0542 11.257C75.5281 11.7354 75.7651 12.5372 75.7651 13.6626C75.7651 14.8584 75.5147 15.7375 75.0136 16.3002Z" fill="black"/>
<path d="M48.7578 16.1559L48.7581 14.4392L48.7584 9.50777C48.7584 8.82379 48.5721 8.36943 48.2711 8.0068C48.2321 7.95607 48.1912 7.90687 48.1482 7.85905C48.0125 7.69435 47.8582 7.56147 47.6893 7.4557C47.689 7.45556 47.6887 7.45528 47.6883 7.45514C47.626 7.41206 47.5617 7.37119 47.4953 7.33311C47.4902 7.3295 47.4854 7.32602 47.4803 7.32241C47.3338 7.2329 47.173 7.15673 46.9976 7.09682C46.9969 7.09655 46.9963 7.09627 46.9956 7.09599C46.4252 6.87972 45.8131 6.92739 45.4227 6.99744C45.2987 7.0176 45.1776 7.04595 45.0596 7.08195C45.0502 7.08473 45.042 7.08723 45.0355 7.08932C45.0347 7.0896 45.034 7.08973 45.0332 7.09001C45.021 7.0939 45.0146 7.09599 45.0146 7.09599C44.9228 7.12587 44.8332 7.1602 44.7462 7.19884C44.7462 7.19884 44.746 7.19884 44.7458 7.19884C43.2111 7.71895 42.2506 9.26982 42.2506 9.26982L42.2509 6.96242L38.6309 7.98776L39.7002 9.27134L39.699 15.9572C39.699 16.8315 39.2662 17.177 38.7025 17.5661H41.0099H43.2518C43.248 17.5634 43.2443 17.5687 43.2406 17.5661C42.6823 17.1798 42.2555 16.829 42.2555 15.9598V13.8371H42.2558V10.7359C42.2558 10.7359 42.2559 10.7356 42.2559 10.7355V10.2006C42.2559 9.51931 42.7176 8.92081 43.3628 8.65422C43.4095 8.6349 43.4571 8.61725 43.5057 8.60154C43.5057 8.60154 43.5102 8.59988 43.5189 8.59724C43.5194 8.5971 43.52 8.59696 43.5205 8.59668C43.5252 8.59529 43.5308 8.59348 43.5376 8.59154C43.6206 8.56624 43.706 8.54623 43.7933 8.53205C44.0685 8.48271 44.4997 8.44907 44.9015 8.60141C44.9021 8.60154 44.9025 8.60182 44.903 8.60196C45.0267 8.64422 45.14 8.69773 45.2431 8.76083C45.2467 8.76333 45.2502 8.76583 45.2536 8.76833C45.4682 8.89134 45.6546 9.05341 45.8003 9.24299C46.0123 9.49846 46.1436 9.81855 46.1436 10.3004L46.1433 13.7749L46.1429 15.9532C46.1429 16.7218 45.8089 17.0789 45.3457 17.4183C45.2815 17.4653 45.215 17.5187 45.1462 17.5659H45.2124C45.2124 17.5659 45.2119 17.5657 45.2116 17.5659H49.7367C49.4292 17.353 48.8344 16.7863 48.7578 16.1559Z" fill="black"/>
<path d="M55.311 16.1607L55.3113 14.444L55.3116 9.51262C55.3116 8.82864 55.1253 8.37428 54.8243 8.01165C54.7853 7.96092 54.7444 7.91172 54.7014 7.86391C54.5657 7.6992 54.4114 7.56632 54.2425 7.46055C54.2422 7.46041 54.2419 7.46013 54.2415 7.46C54.1792 7.41691 54.1149 7.37605 54.0485 7.33796C54.0434 7.33435 54.0386 7.33087 54.0335 7.32726C53.887 7.23775 53.7262 7.16158 53.5508 7.10168C53.5501 7.1014 53.5495 7.10112 53.5488 7.10084C53.2737 6.99646 52.989 6.95365 52.724 6.94503L52.7244 6.94475C52.7177 6.94462 52.711 6.94475 52.7044 6.94448C52.5844 6.94128 52.4688 6.94517 52.3601 6.95323L52.3531 6.95935C51.4587 7.0547 50.7748 7.57202 50.3389 8.0211C49.9782 8.39277 49.7871 8.71759 49.7871 8.71759C49.8069 8.70717 49.8269 8.6973 49.8469 8.68785C49.8483 8.68715 49.8498 8.68646 49.8513 8.68576C49.87 8.67701 49.8888 8.66853 49.9077 8.66047C49.9097 8.65963 49.9119 8.65866 49.914 8.65782C49.9324 8.65004 49.951 8.64267 49.9694 8.63559C49.9715 8.63475 49.9738 8.63392 49.9759 8.63308C49.9946 8.626 50.0134 8.61932 50.0321 8.61293C50.0338 8.61237 50.0355 8.61168 50.0373 8.61112C50.0569 8.60445 50.0766 8.5982 50.0962 8.59222C50.0969 8.59194 50.0976 8.5918 50.0984 8.59153C50.1187 8.58541 50.1389 8.57971 50.1591 8.57429C50.16 8.57401 50.1611 8.57373 50.162 8.57346C50.1814 8.56831 50.2006 8.56345 50.2197 8.559C50.2215 8.55858 50.2234 8.55817 50.2251 8.55775C50.2435 8.55344 50.2618 8.54941 50.2801 8.54566C50.2822 8.54524 50.2844 8.54482 50.2864 8.54441C50.3045 8.54065 50.3225 8.53732 50.3404 8.53412C50.3423 8.53384 50.3441 8.53343 50.3459 8.53315C50.3644 8.52995 50.3828 8.52689 50.401 8.52411C50.402 8.52398 50.403 8.52384 50.4041 8.5237C50.4233 8.52078 50.4423 8.51814 50.461 8.51577C50.4613 8.51577 50.4616 8.51577 50.462 8.51577C50.4805 8.51341 50.4988 8.51133 50.5168 8.50952C50.5181 8.50952 50.5195 8.50924 50.5208 8.5091C50.5316 8.50799 50.5423 8.50716 50.5529 8.50618L50.5507 8.50813C50.6093 8.50215 50.6716 8.49798 50.7363 8.49632C50.7435 8.49618 50.7507 8.49604 50.758 8.49604C50.8418 8.49507 50.9139 8.49826 50.969 8.50215C50.9807 8.50313 50.9923 8.50382 51.0042 8.50493C51.152 8.51897 51.3052 8.54969 51.4545 8.60626C51.455 8.6064 51.4554 8.60668 51.4559 8.60681C51.5796 8.64907 51.6929 8.70258 51.796 8.76568C51.7996 8.76818 51.8031 8.77069 51.8066 8.77319C52.0211 8.89619 52.2075 9.05826 52.3532 9.24784C52.5652 9.50331 52.6965 9.82341 52.6965 10.3053L52.6962 13.7798L52.6958 15.9581C52.6958 16.7267 52.3619 17.0838 51.8986 17.4232C51.8345 17.4702 51.7679 17.5181 51.6992 17.5655H51.7654C51.7654 17.5655 51.7648 17.5652 51.7646 17.5655H56.2897C55.9821 17.3526 55.3873 16.7912 55.3108 16.1607H55.311Z" fill="black"/>
<path d="M66.1834 15.0837C65.9455 15.3443 65.6965 15.5624 65.4363 15.7377C65.3352 15.8058 65.2325 15.8674 65.1281 15.9226C65.0475 15.9652 64.9619 16.0037 64.8717 16.0382C64.8449 16.0485 64.8177 16.0584 64.7901 16.0678C64.768 16.0755 64.7456 16.0828 64.723 16.0899C64.7219 16.0903 64.7207 16.0906 64.7196 16.091C64.6971 16.0981 64.6742 16.1049 64.6512 16.1116C64.6508 16.1116 64.6504 16.1119 64.6499 16.112C64.6028 16.1255 64.5546 16.138 64.5054 16.1497C64.5048 16.1497 64.5043 16.15 64.5037 16.1501C64.2044 16.2203 63.8643 16.2555 63.4835 16.2555C62.4819 16.2555 61.7239 15.9296 61.2095 15.2779C60.7087 14.6123 60.4516 13.5307 60.4381 12.0332H66.4884C66.529 11.9084 66.5561 11.7698 66.5696 11.6172C66.5831 11.4508 66.5899 11.2914 66.5899 11.1389C66.5899 10.3346 66.4207 9.62055 66.0823 8.99656C65.7574 8.35867 65.2838 7.85951 64.6611 7.49907C64.0385 7.12474 63.2873 6.9375 62.4074 6.9375C61.5276 6.9375 60.7628 7.14545 59.9913 7.56149C59.2334 7.97753 58.6108 8.58761 58.1235 9.39175C57.6362 10.1821 57.3926 11.1458 57.3926 12.2829C57.3926 13.4199 57.6023 14.3212 58.022 15.1116C58.4416 15.902 59.0236 16.5121 59.7681 16.9419C60.5125 17.3579 61.3653 17.5659 62.3262 17.5659C63.2872 17.5659 64.1332 17.351 64.8235 16.921C64.8544 16.9021 64.8848 16.8829 64.9153 16.8633C64.9228 16.8585 64.9306 16.8535 64.9381 16.8486C64.966 16.8305 64.9936 16.8122 65.021 16.7936C65.0234 16.7919 65.0258 16.7904 65.0281 16.7887C65.0587 16.7677 65.089 16.7464 65.1189 16.7247C65.1238 16.7213 65.1287 16.7177 65.1335 16.7142C65.162 16.6935 65.1902 16.6725 65.2181 16.6512C65.2196 16.6501 65.2211 16.649 65.2224 16.6479C65.2536 16.6241 65.2843 16.5999 65.3147 16.5753C65.3156 16.5746 65.3164 16.5741 65.317 16.5734C65.3475 16.5488 65.3775 16.5239 65.4073 16.4986C65.4076 16.4985 65.4078 16.4982 65.408 16.498C65.4357 16.4744 65.4632 16.4502 65.4904 16.4259C65.4949 16.422 65.4992 16.418 65.5037 16.4141C65.5313 16.3892 65.5586 16.364 65.5855 16.3386C65.5857 16.3385 65.5858 16.3383 65.5861 16.3382C65.6145 16.3054 65.6487 16.2695 65.6892 16.23C65.7341 16.1862 65.7766 16.1426 65.8171 16.0992C65.8176 16.0988 65.818 16.0984 65.8186 16.0978C65.8386 16.0764 65.8744 16.0364 65.8744 16.0364C66.1926 15.6807 66.3688 15.3486 66.4659 15.0933C66.5433 14.89 66.5708 14.7356 66.5806 14.6569C66.5852 14.6194 66.5858 14.5991 66.5858 14.5991C66.5611 14.6521 66.4571 14.7854 66.3092 14.9487C66.2701 14.9919 66.2278 15.0374 66.1831 15.0838L66.1834 15.0837ZM60.3927 11.1957C60.3927 10.1992 60.4505 9.42024 60.5662 8.85867C60.6895 8.28917 60.8823 7.88981 61.1443 7.66046C61.4064 7.42318 61.7456 7.30461 62.1618 7.30461C62.5781 7.30461 62.9288 7.42318 63.191 7.66046C63.4531 7.88981 63.6419 8.28917 63.7576 8.85867C63.8808 9.42024 63.9426 10.1992 63.9426 11.1957C63.9426 11.34 63.9412 11.4794 63.9385 11.6147H60.3965C60.3941 11.4794 60.3927 11.3399 60.3927 11.1957Z" fill="black"/>
<g clip-path="url(#clip0_6151_613528)">
<path d="M17.0698 19.1517C26.4971 19.1517 34.1395 16.9863 34.1395 14.3152C34.1395 11.6441 26.4971 9.47852 17.0698 9.47852C7.64248 9.47852 0 11.6439 0 14.3152C0 16.9864 7.64237 19.1517 17.0698 19.1517Z" fill="#B0B8C1"/>
<mask id="mask0_6151_613528" style="mask-type:luminance" maskUnits="userSpaceOnUse" x="0" y="-7" width="35" height="27">
<path d="M34.0868 13.9345V-6.55371H0V14.6997H0.0527635C0.741208 17.192 8.09698 19.1536 17.0698 19.1536C26.4971 19.1536 34.1395 16.9882 34.1395 14.3171C34.1395 14.1883 34.1217 14.0606 34.0868 13.9345Z" fill="white"/>
</mask>
<g mask="url(#mask0_6151_613528)">
<path d="M28.9955 28.6066V7.97117C28.9955 4.67851 26.3324 2.0121 23.0435 2.0121C19.7547 2.0121 17.0915 4.68172 17.0915 7.97117V7.93955C17.0915 4.64689 14.4251 1.98047 11.1394 1.98047C7.85379 1.98047 5.18745 4.6501 5.18745 7.93955V28.4454C2.76754 30.0204 0.694993 32.0669 -0.900391 34.4487C3.34874 35.9227 9.80948 36.8652 17.0505 36.8652C24.2914 36.8652 30.6257 35.9417 34.8749 34.493C33.33 32.1713 31.3302 30.1692 28.9987 28.6066H28.9955Z" fill="black"/>
<path d="M12.7303 8.5625C11.8868 8.5625 11.2012 9.24569 11.2012 10.0934V25.7092C12.1899 25.4404 13.2103 25.2379 14.2561 25.1082V10.0934C14.2561 9.2489 13.5705 8.5625 12.727 8.5625H12.7303Z" fill="white"/>
<path d="M21.2401 8.5625C20.3965 8.5625 19.7109 9.24569 19.7109 10.0934V25.0893C20.7567 25.2126 21.7771 25.4056 22.766 25.665V10.0936C22.766 9.24901 22.0835 8.56261 21.2368 8.56261H21.2399L21.2401 8.5625Z" fill="white"/>
</g>
</g>
<path fill-rule="evenodd" clip-rule="evenodd" d="M156.059 3.9538C156.729 3.9538 157.333 4.13079 157.872 4.48477C158.417 4.83331 158.863 5.33432 159.212 5.98783C159.56 6.63588 159.784 7.40102 159.882 8.28325H162.43V2.9082H164.538V17.8244H162.43V9.96601H159.906C159.83 10.9027 159.618 11.7196 159.269 12.4166C158.926 13.1083 158.477 13.642 157.921 14.0177C157.366 14.388 156.745 14.5732 156.059 14.5732C155.318 14.5732 154.654 14.3554 154.066 13.9197C153.483 13.484 153.025 12.8632 152.693 12.0572C152.366 11.2512 152.203 10.3145 152.203 9.24716C152.203 8.19067 152.366 7.26215 152.693 6.46161C153.025 5.66108 153.483 5.04297 154.066 4.60731C154.654 4.17164 155.318 3.9538 156.059 3.9538ZM156.059 5.86529C155.688 5.87074 155.364 6.00416 155.087 6.26556C154.809 6.52696 154.594 6.91089 154.441 7.41736C154.289 7.92382 154.213 8.53376 154.213 9.24716C154.213 9.97146 154.289 10.5896 154.441 11.1015C154.594 11.6134 154.809 12.0028 155.087 12.2696C155.364 12.531 155.688 12.6617 156.059 12.6617C156.435 12.6617 156.761 12.531 157.039 12.2696C157.322 12.0082 157.54 11.6215 157.693 11.1096C157.845 10.5977 157.921 9.9769 157.921 9.24716C157.921 8.52831 157.845 7.91565 157.693 7.40919C157.54 6.90273 157.322 6.52152 157.039 6.26556C156.761 6.00416 156.435 5.87074 156.059 5.86529ZM149.996 11.959H145.683V14.4423H151.434V16.1414H137.857V14.4423H143.592V11.959H139.442V3.9209H149.882V5.62H141.599V7.09038H149.539V8.72413H141.599V10.2762H149.996V11.959ZM132.221 7.02487C131.802 6.31691 131.59 5.59261 131.584 4.85198V3.79004H129.33V4.85198C129.33 5.58172 129.12 6.30057 128.701 7.00853C128.281 7.71649 127.671 8.33187 126.871 8.85467C126.076 9.37747 125.142 9.73145 124.069 9.91661L124.984 11.6811C126.253 11.436 127.358 10.9731 128.3 10.2924C129.242 9.61164 129.961 8.7866 130.457 7.81724C130.947 8.78115 131.666 9.60347 132.613 10.2842C133.561 10.9649 134.672 11.4306 135.946 11.6811L136.845 9.91661C135.767 9.7369 134.83 9.38836 134.035 8.87101C133.245 8.34821 132.641 7.73283 132.221 7.02487ZM123.742 15.9778H137.319V14.2461H123.742V15.9778Z" fill="black"/>
<defs>
<clipPath id="clip0_6151_613528">
<rect width="34.214" height="17.2253" fill="white" transform="translate(0 2)"/>
</clipPath>
</defs>
</svg>
