<svg width="14" height="15" viewBox="0 0 14 15" fill="none" xmlns="http://www.w3.org/2000/svg">
<path d="M6.07101 7.18674L0.0540265 13.3395C0.121579 13.5733 0.242992 13.7888 0.408983 13.9697C0.574975 14.1506 0.78115 14.2921 1.01175 14.3833C1.24235 14.4746 1.49126 14.5131 1.73947 14.4961C1.98767 14.479 2.2286 14.4068 2.44382 14.2849L9.21424 10.5214L6.07101 7.18674Z" fill="#EA4335"/>
<path d="M12.1555 6.14079L9.2276 4.50416L5.93201 7.32685L9.24096 10.5126L12.1466 8.89341C12.404 8.76188 12.6196 8.56409 12.77 8.32148C12.9205 8.07886 13 7.80069 13 7.5171C13 7.23352 12.9205 6.95534 12.77 6.71273C12.6196 6.47011 12.404 6.27232 12.1466 6.14079H12.1555Z" fill="#FBBC04"/>
<path d="M0.0538844 1.664C0.0174898 1.79527 -0.000628948 1.93072 1.66623e-05 2.06671V12.937C0.000443056 13.0729 0.0186359 13.2082 0.0540265 13.3395L6.27724 7.34446L0.0538844 1.664Z" fill="#4285F4"/>
<path d="M6.11592 7.50177L9.2276 4.50416L2.46599 0.723342C2.21161 0.577871 1.92226 0.500808 1.62742 0.500002C1.27147 0.499402 0.925073 0.612395 0.641021 0.821761C0.356969 1.03113 0.150833 1.32539 0.0540265 1.6597L6.11592 7.50177Z" fill="#34A853"/>
</svg>
