<svg width="40" height="40" viewBox="0 0 40 40" fill="none" xmlns="http://www.w3.org/2000/svg">
<circle cx="20" cy="20" r="20" fill="#FEE500"/>
<path d="M19.9917 10C13.6697 10 8.57129 14.1368 8.57129 19.1588C8.57129 22.4186 10.6922 25.273 13.8736 26.9029L12.7968 30.9819C12.7765 31.043 12.7734 31.1086 12.7878 31.1714C12.8022 31.2343 12.8336 31.2918 12.8784 31.3376C12.9438 31.396 13.0278 31.4284 13.115 31.4286C13.1872 31.4227 13.2558 31.3937 13.3108 31.3459L17.9442 28.1771C18.6281 28.2728 19.3176 28.3225 20.008 28.326C26.3219 28.326 31.4284 24.1892 31.4284 19.1588C31.4284 14.1285 26.3056 10 19.9917 10Z" fill="#392020"/>
<path d="M12.5669 17.7109H11.3189C11.1642 17.7154 11.0114 17.6753 10.8784 17.595C10.8193 17.5575 10.7685 17.508 10.7292 17.4496C10.6899 17.3912 10.6629 17.3252 10.6499 17.2558C10.646 17.2118 10.646 17.1675 10.6499 17.1235C10.6461 17.0411 10.6618 16.9589 10.6959 16.884C10.73 16.8091 10.7814 16.7437 10.8457 16.6932C10.9879 16.5888 11.1596 16.5336 11.3352 16.536H15.0957C15.2517 16.5304 15.4055 16.5738 15.5362 16.6601C15.5967 16.696 15.6486 16.7451 15.688 16.8037C15.7275 16.8624 15.7537 16.9292 15.7647 16.9994C15.7686 17.0406 15.7686 17.0822 15.7647 17.1235C15.7685 17.2071 15.7528 17.2904 15.7187 17.3666C15.6847 17.4428 15.6334 17.5097 15.5689 17.5619C15.4301 17.6663 15.2601 17.7189 15.0876 17.7109H13.8803V22.0628C13.8852 22.1555 13.871 22.2482 13.8387 22.3351C13.8064 22.422 13.7567 22.5011 13.6927 22.5675C13.6313 22.6309 13.5574 22.6807 13.476 22.7134C13.3945 22.7462 13.3071 22.7613 13.2195 22.7578C13.0663 22.7622 12.9164 22.7125 12.7953 22.6172C12.6801 22.524 12.6019 22.3918 12.5751 22.2448C12.567 22.1844 12.567 22.1232 12.5751 22.0628L12.5669 17.7109Z" fill="#FEE500"/>
<path d="M16.1265 16.859C16.1624 16.7228 16.2466 16.6049 16.3631 16.528C16.4871 16.4567 16.6285 16.4223 16.7709 16.4287H17.0809C17.2321 16.4232 17.3818 16.4605 17.5133 16.5363C17.6526 16.6313 17.7516 16.776 17.7906 16.9417L19.4221 21.6163C19.4644 21.7383 19.4998 21.8626 19.5281 21.9887C19.5309 22.041 19.5309 22.0935 19.5281 22.1458C19.5309 22.2265 19.5163 22.3067 19.4853 22.3811C19.4543 22.4554 19.4077 22.5219 19.3487 22.5761C19.2915 22.6355 19.2229 22.6823 19.1471 22.7136C19.0713 22.745 18.99 22.7601 18.9082 22.7581C18.7824 22.7708 18.656 22.7402 18.5494 22.6711C18.4429 22.6021 18.3624 22.4986 18.3208 22.3775L17.9782 21.3599H15.8328L15.4902 22.3775C15.4497 22.501 15.3682 22.6065 15.2596 22.6759C15.151 22.7453 15.0221 22.7743 14.8947 22.7581C14.7568 22.7617 14.6217 22.718 14.5113 22.634C14.4038 22.5472 14.3313 22.4237 14.3074 22.2865C14.3031 22.2397 14.3031 22.1926 14.3074 22.1458C14.2934 22.0637 14.2934 21.9798 14.3074 21.8977C14.3074 21.8067 14.3645 21.7073 14.3971 21.6163L16.1265 16.859ZM16.9422 17.9429L16.1673 20.425H17.709L16.9422 17.9429Z" fill="#FEE500"/>
<path d="M19.7131 17.1237C19.7048 16.9381 19.7693 16.7566 19.8926 16.619C19.9552 16.555 20.0304 16.5049 20.1133 16.4721C20.1962 16.4393 20.285 16.4245 20.3739 16.4287C20.5267 16.4269 20.6758 16.4763 20.798 16.5694C20.9114 16.6664 20.9866 16.8014 21.0101 16.9499C21.0182 17.0075 21.0182 17.0661 21.0101 17.1237V21.4757H23.2534C23.4089 21.4736 23.5618 21.5166 23.6939 21.5997C23.7533 21.6368 23.8044 21.6863 23.8437 21.7447C23.8831 21.8031 23.9099 21.8693 23.9223 21.9389C23.9223 21.9389 23.9223 22.0217 23.9223 22.063C23.9262 22.1454 23.9105 22.2275 23.8764 22.3024C23.8423 22.3773 23.7909 22.4428 23.7266 22.4933C23.5844 22.5978 23.4127 22.6528 23.2371 22.6504H20.4799C20.3043 22.6619 20.1298 22.6155 19.9823 22.5181C19.8504 22.4181 19.7625 22.2696 19.7376 22.1045C19.7316 22.0135 19.7316 21.9223 19.7376 21.8314L19.7131 17.1237Z" fill="#FEE500"/>
<path d="M24.0726 17.1239C24.0677 16.9387 24.1318 16.7585 24.252 16.6192C24.3743 16.5065 24.5311 16.44 24.6961 16.4309C24.861 16.4219 25.024 16.4708 25.1575 16.5695C25.2733 16.6657 25.3514 16.8006 25.3778 16.9501C25.3818 17.0079 25.3818 17.066 25.3778 17.1239V19.1509L27.4416 16.7349C27.5211 16.6525 27.6056 16.5752 27.6945 16.5033C27.7783 16.4527 27.8743 16.4269 27.9718 16.4288C28.1144 16.428 28.2538 16.4713 28.3715 16.5529C28.427 16.5908 28.4744 16.6397 28.5108 16.6966C28.5472 16.7534 28.572 16.8171 28.5836 16.8839C28.5869 16.9003 28.5869 16.9172 28.5836 16.9336C28.5797 16.9527 28.5797 16.9724 28.5836 16.9915C28.5833 17.0785 28.5609 17.1641 28.5184 17.2397C28.4751 17.3198 28.4231 17.3946 28.3634 17.463L27.0092 18.9689L28.6407 21.5337V21.6164C28.7254 21.7349 28.7915 21.8662 28.8365 22.0053V22.0466C28.8459 22.1425 28.8323 22.2393 28.7968 22.3286C28.7613 22.4179 28.7049 22.4972 28.6326 22.5596C28.4965 22.6639 28.33 22.7193 28.1594 22.7168C28.0461 22.7216 27.9336 22.6958 27.8331 22.6423C27.7245 22.5684 27.635 22.4691 27.5721 22.3527L26.0548 19.8707L25.3288 20.6402V22.0218C25.3337 22.2069 25.2696 22.3871 25.1493 22.5265C25.0849 22.5904 25.0082 22.6403 24.924 22.673C24.8399 22.7057 24.75 22.7207 24.6599 22.7168C24.5094 22.72 24.3624 22.6703 24.2439 22.5761C24.1286 22.483 24.0504 22.3508 24.0236 22.2039C24.0156 22.1435 24.0156 22.0822 24.0236 22.0218L24.0726 17.1239Z" fill="#FEE500"/>
</svg>
