<svg width="160" height="24" viewBox="0 0 160 24" fill="none" xmlns="http://www.w3.org/2000/svg">
<path d="M140.676 20.235C140.375 19.9036 140.179 19.4934 140.159 18.8697V5.10439C140.178 4.48066 140.375 4.07043 140.676 3.73907C140.688 3.72637 140.7 3.71384 140.712 3.70131C140.923 3.47899 141.181 3.29108 141.465 3.09435H135.51C135.794 3.29108 136.052 3.47899 136.264 3.70131C136.275 3.71384 136.287 3.72637 136.299 3.73907C136.6 4.07043 136.796 4.48066 136.816 5.10439V18.8697C136.797 19.4934 136.6 19.9036 136.299 20.235C136.287 20.2479 136.275 20.2606 136.263 20.2733C136.052 20.4952 135.793 20.6835 135.51 20.8801H141.465C141.182 20.6835 140.923 20.4954 140.712 20.2733C140.7 20.2606 140.688 20.2479 140.676 20.235H140.676Z" fill="black"/>
<path d="M150.68 20.5039C150.584 20.4714 150.492 20.4363 150.405 20.3984C150.404 20.3977 150.402 20.3969 150.4 20.3964C150.4 20.3964 150.401 20.3964 150.401 20.3964C150.104 20.2666 149.863 20.1049 149.678 19.911C149.456 19.6596 149.216 19.3362 148.959 18.9409L142.923 9.69774L146.059 6.33401L147.132 5.1836L147.521 4.76631C147.734 4.54293 147.928 4.35343 148.104 4.19728C148.21 4.10641 148.455 3.91108 148.784 3.74805C148.843 3.72123 148.913 3.68929 148.995 3.654C149.022 3.64306 149.046 3.63248 149.068 3.62224C149.193 3.56931 149.337 3.51056 149.497 3.45021C149.517 3.44315 149.537 3.4361 149.557 3.42921C149.567 3.42604 149.574 3.42269 149.579 3.41951C149.893 3.30359 150.259 3.18519 150.64 3.09538H145.027L145.434 3.22825C145.461 3.23813 145.489 3.24854 145.517 3.25912C145.816 3.38687 146.103 3.55872 146.298 3.73217C146.409 3.83839 146.488 3.96525 146.505 4.1784C146.522 4.39136 146.484 4.59286 146.413 4.78219C146.383 4.85329 146.347 4.92916 146.304 5.01033C146.141 5.29052 145.813 5.67623 145.555 5.96224L145.191 6.35219L140.149 11.7455L143.91 17.3558L144.84 18.7433C144.944 18.9127 145.021 19.0611 145.077 19.194C145.148 19.3833 145.186 19.5848 145.169 19.7977C145.152 20.0109 145.073 20.1378 144.962 20.244C144.767 20.4174 144.48 20.5893 144.181 20.717C144.153 20.7276 144.125 20.738 144.098 20.7479L143.691 20.8808H151.893C151.585 20.8257 151.054 20.6404 150.697 20.5085L150.68 20.5035L150.68 20.5039Z" fill="black"/>
<path d="M109.571 20.8815C108.574 20.8864 107.609 20.7038 106.675 20.3334C105.758 19.963 104.931 19.4133 104.192 18.6844C103.469 17.9383 102.893 17.0126 102.463 15.9072C102.033 14.8019 101.815 13.5081 101.808 12.0258C101.801 10.5607 102.008 9.27321 102.428 8.1638C102.848 7.05422 103.424 6.1315 104.156 5.39513C104.888 4.64182 105.711 4.07556 106.625 3.69635C107.555 3.30002 108.51 3.09938 109.491 3.09444C110.488 3.0895 111.445 3.27231 112.362 3.64253C113.295 3.9958 114.123 4.54548 114.846 5.29155C115.585 6.02051 116.169 6.94622 116.599 8.06869C117.029 9.17404 117.248 10.4678 117.254 11.9501C117.261 13.3983 117.054 14.6856 116.634 15.8121C116.214 16.9217 115.638 17.8531 114.906 18.6062C114.19 19.3424 113.367 19.9087 112.437 20.305C111.524 20.6844 110.568 20.8764 109.571 20.8813L109.571 20.8815ZM109.569 20.3449C110.468 20.3405 111.194 20.0899 111.747 19.593C112.301 19.0791 112.697 18.2168 112.937 17.0059C113.193 15.7779 113.316 14.099 113.307 11.9693C113.297 9.8227 113.159 8.14509 112.892 6.93669C112.641 5.71118 112.237 4.85269 111.679 4.36143C111.121 3.85305 110.392 3.60106 109.494 3.60547C108.611 3.60988 107.893 3.86893 107.339 4.38278C106.786 4.87952 106.381 5.74206 106.125 6.97004C105.885 8.18092 105.77 9.85976 105.78 12.0064C105.79 14.1361 105.92 15.8135 106.17 17.0392C106.437 18.2476 106.85 19.1059 107.408 19.6143C107.966 20.1056 108.686 20.3491 109.569 20.3449H109.569Z" fill="black"/>
<path d="M126.423 20.8815C125.425 20.8864 124.46 20.7038 123.527 20.3334C122.61 19.963 121.782 19.4133 121.043 18.6843C120.321 17.9383 119.744 17.0126 119.314 15.9072C118.884 14.8019 118.666 13.5081 118.659 12.0258C118.653 10.5606 118.859 9.27318 119.279 8.16377C119.699 7.05419 120.275 6.13147 121.008 5.3951C121.74 4.64179 122.563 4.07553 123.476 3.69632C124.407 3.29999 125.362 3.09935 126.343 3.09441C127.34 3.08947 128.297 3.27228 129.214 3.6425C130.147 3.99577 130.975 4.54545 131.698 5.29152C132.436 6.02048 133.021 6.94619 133.451 8.06866C133.881 9.17401 134.099 10.4678 134.106 11.9501C134.112 13.3983 133.906 14.6856 133.486 15.8121C133.066 16.9217 132.49 17.853 131.758 18.6062C131.042 19.3424 130.219 19.9086 129.289 20.305C128.375 20.6843 127.42 20.8763 126.423 20.8813L126.423 20.8815ZM126.42 20.3448C127.319 20.3404 128.045 20.0899 128.599 19.5929C129.152 19.0791 129.549 18.2167 129.789 17.0059C130.045 15.7779 130.168 14.099 130.158 11.9693C130.149 9.82267 130.01 8.14506 129.743 6.93666C129.493 5.71114 129.088 4.85266 128.53 4.3614C127.972 3.85302 127.244 3.60103 126.345 3.60544C125.462 3.60985 124.744 3.8689 124.191 4.38275C123.637 4.87949 123.233 5.74203 122.977 6.97001C122.737 8.18089 122.622 9.85973 122.632 12.0064C122.641 14.1361 122.771 15.8135 123.022 17.0392C123.289 18.2476 123.702 19.1059 124.26 19.6143C124.818 20.1056 125.538 20.3491 126.421 20.3448H126.42Z" fill="black"/>
<path d="M99.0852 12.958C98.2066 12.1315 96.8196 11.6106 94.9246 11.3949C96.5785 11.0895 97.7415 10.5684 98.4135 9.83187C99.1025 9.07733 99.4471 8.2418 99.4471 7.32545C99.4471 6.10364 98.9819 5.09765 98.0516 4.30712C97.121 3.49858 95.605 3.09431 93.503 3.09431H86.5954C86.8965 3.30201 87.1701 3.50017 87.3887 3.7391C87.7084 4.08848 87.9109 4.52557 87.911 5.20829L87.9119 14.3069L87.911 18.7663C87.911 19.4176 87.7267 19.8454 87.4321 20.1868C87.4038 20.2197 87.3744 20.2516 87.3441 20.283C87.1333 20.5011 86.8763 20.6866 86.5954 20.8805H86.5957C86.5957 20.8805 86.5951 20.881 86.5947 20.8812L89.6302 20.8805L89.6351 20.8801L90.0665 20.8812V20.8805H90.0672V20.8815H92.6503C94.1836 20.8815 95.45 20.7377 96.4493 20.4503C97.4486 20.1448 98.2323 19.7496 98.8009 19.2645C99.3867 18.7794 99.8002 18.2495 100.041 17.6744C100.283 17.0815 100.403 16.4976 100.403 15.9227C100.403 14.7549 99.9639 13.7665 99.0852 12.958ZM91.2806 3.6334H92.6762C93.7272 3.6334 94.4852 3.93885 94.9505 4.54975C95.4157 5.16065 95.6482 6.18464 95.6482 7.62207C95.6482 9.05951 95.3898 9.97568 94.8729 10.5328C94.3732 11.0897 93.5463 11.3683 92.3919 11.3683H91.2806V3.6334ZM95.4413 19.2643C94.821 19.983 93.865 20.3423 92.5727 20.3423H91.2806V11.9068H92.521C93.8993 11.9068 94.89 12.2123 95.493 12.8232C96.096 13.4341 96.3976 14.4583 96.3976 15.8955C96.3976 17.4228 96.0789 18.5456 95.4413 19.2643Z" fill="black"/>
<path d="M62.0334 19.0795L62.0337 16.887L62.0341 10.5886C62.0341 9.71503 61.7971 9.13472 61.4141 8.67157C61.3645 8.60677 61.3124 8.54393 61.2578 8.48287C61.0851 8.27251 60.8887 8.1028 60.6738 7.96771C60.6735 7.96753 60.6731 7.96717 60.6726 7.967C60.5933 7.91197 60.5115 7.85978 60.427 7.81114C60.4205 7.80652 60.4144 7.80208 60.408 7.79747C60.2216 7.68314 60.017 7.58586 59.7938 7.50935C59.7929 7.509 59.7921 7.50864 59.7912 7.50829C59.0655 7.23207 58.2867 7.29296 57.79 7.38243C57.6323 7.40817 57.4781 7.44438 57.328 7.49036C57.316 7.49391 57.3056 7.4971 57.2973 7.49977C57.2963 7.50012 57.2955 7.5003 57.2944 7.50065C57.2788 7.50563 57.2707 7.50829 57.2707 7.50829C57.1539 7.54645 57.04 7.5903 56.9293 7.63965C56.9293 7.63965 56.9289 7.63965 56.9288 7.63965C54.9761 8.30393 53.754 10.2847 53.754 10.2847L53.7543 7.33769L49.1484 8.64725L50.509 10.2866L50.5075 18.8258C50.5075 19.9424 49.9568 20.3837 49.2396 20.8806H52.1754H55.0278C55.0231 20.8772 55.0183 20.884 55.0136 20.8806C54.3033 20.3873 53.7602 19.9392 53.7602 18.829V16.118H53.7606V12.1572C53.7606 12.1572 53.7608 12.1568 53.7608 12.1566V11.4735C53.7608 10.6033 54.3481 9.83893 55.1691 9.49845C55.2285 9.47378 55.2891 9.45123 55.3509 9.43117C55.3509 9.43117 55.3566 9.42904 55.3677 9.42567C55.3684 9.42549 55.369 9.42531 55.3697 9.42496C55.3757 9.42318 55.3828 9.42088 55.3915 9.41839C55.497 9.38608 55.6057 9.36052 55.7169 9.34241C56.0669 9.27939 56.6156 9.23643 57.1269 9.43099C57.1276 9.43117 57.1281 9.43153 57.1288 9.43171C57.2861 9.48567 57.4302 9.55402 57.5615 9.63461C57.566 9.6378 57.5705 9.641 57.5749 9.6442C57.8478 9.8013 58.085 10.0083 58.2704 10.2504C58.5401 10.5767 58.7072 10.9855 58.7072 11.601L58.7068 16.0386L58.7063 18.8207C58.7063 19.8024 58.2814 20.2584 57.692 20.6919C57.6104 20.7519 57.5256 20.8201 57.4382 20.8804H57.5224C57.5224 20.8804 57.5217 20.8801 57.5214 20.8804H63.2789C62.8876 20.6085 62.1308 19.8847 62.0334 19.0795Z" fill="black"/>
<path d="M70.3711 19.0867L70.3714 16.8942L70.3718 10.5958C70.3718 9.72227 70.1348 9.14196 69.7518 8.67881C69.7022 8.61401 69.6501 8.55117 69.5955 8.49011C69.4228 8.27975 69.2264 8.11004 69.0115 7.97495C69.0112 7.97477 69.0108 7.97441 69.0103 7.97424C68.931 7.91921 68.8492 7.86702 68.7647 7.81838C68.7582 7.81376 68.7521 7.80932 68.7457 7.80471C68.5593 7.69038 68.3547 7.5931 68.1315 7.51659C68.1306 7.51624 68.1298 7.51588 68.1289 7.51553C67.7789 7.38221 67.4166 7.32754 67.0795 7.31653L67.08 7.31617C67.0715 7.316 67.063 7.31617 67.0545 7.31582C66.9019 7.31174 66.7547 7.31671 66.6166 7.327L66.6076 7.33481C65.4697 7.45659 64.5995 8.11732 64.0449 8.69088C63.5859 9.16557 63.3428 9.58043 63.3428 9.58043C63.3679 9.56711 63.3934 9.55451 63.4188 9.54244C63.4207 9.54155 63.4226 9.54066 63.4244 9.53978C63.4482 9.52859 63.4721 9.51776 63.4962 9.50747C63.4988 9.5064 63.5015 9.50516 63.5042 9.50409C63.5276 9.49415 63.5512 9.48475 63.5747 9.47569C63.5774 9.47463 63.5803 9.47356 63.583 9.4725C63.6067 9.46344 63.6307 9.45492 63.6544 9.44676C63.6567 9.44605 63.6589 9.44516 63.6611 9.44445C63.686 9.43593 63.7111 9.42794 63.7361 9.42031C63.737 9.41995 63.7378 9.41977 63.7388 9.41942C63.7646 9.41161 63.7904 9.40433 63.8161 9.39741C63.8172 9.39705 63.8186 9.3967 63.8198 9.39634C63.8444 9.38977 63.8689 9.38356 63.8931 9.37788C63.8955 9.37735 63.8979 9.37681 63.9001 9.37628C63.9235 9.37078 63.9468 9.36563 63.97 9.36084C63.9727 9.3603 63.9755 9.35977 63.978 9.35924C64.0011 9.35445 64.024 9.35019 64.0468 9.3461C64.0491 9.34575 64.0515 9.34522 64.0537 9.34486C64.0773 9.34078 64.1007 9.33687 64.1238 9.33332C64.1252 9.33314 64.1264 9.33297 64.1277 9.33279C64.1522 9.32906 64.1765 9.32569 64.2002 9.32267C64.2006 9.32267 64.2009 9.32267 64.2014 9.32267C64.225 9.31965 64.2483 9.31699 64.2712 9.31468C64.2729 9.31468 64.2746 9.31433 64.2763 9.31415C64.29 9.31273 64.3036 9.31166 64.3172 9.31042L64.3143 9.31291C64.3888 9.30527 64.4681 9.29995 64.5504 9.29782C64.5596 9.29764 64.5688 9.29746 64.5781 9.29746C64.6847 9.29622 64.7764 9.3003 64.8465 9.30527C64.8614 9.30652 64.8762 9.3074 64.8913 9.30882C65.0794 9.32675 65.2743 9.36599 65.4642 9.43824C65.4649 9.43841 65.4654 9.43877 65.4661 9.43895C65.6235 9.49291 65.7676 9.56126 65.8988 9.64185C65.9034 9.64504 65.9078 9.64824 65.9122 9.65144C66.1852 9.80854 66.4223 10.0155 66.6077 10.2577C66.8775 10.5839 67.0445 10.9928 67.0445 11.6082L67.0442 16.0458L67.0437 18.8279C67.0437 19.8096 66.6188 20.2656 66.0294 20.6991C65.9477 20.7591 65.863 20.8204 65.7756 20.8809H65.8598C65.8598 20.8809 65.8591 20.8806 65.8588 20.8809H71.6163C71.225 20.609 70.4682 19.892 70.3707 19.0867H70.3711Z" fill="black"/>
<path d="M84.2054 17.7113C83.9027 18.0442 83.5859 18.3228 83.2548 18.5466C83.1262 18.6336 82.9955 18.7123 82.8628 18.7828C82.7601 18.8373 82.6513 18.8864 82.5365 18.9305C82.5024 18.9436 82.4678 18.9562 82.4327 18.9683C82.4046 18.9781 82.376 18.9875 82.3473 18.9965C82.3459 18.9971 82.3443 18.9974 82.343 18.9979C82.3144 19.007 82.2853 19.0157 82.256 19.0242C82.2555 19.0242 82.255 19.0246 82.2543 19.0247C82.1944 19.042 82.1331 19.0579 82.0704 19.0729C82.0697 19.0729 82.069 19.0732 82.0683 19.0734C81.6875 19.163 81.2548 19.208 80.7703 19.208C79.4958 19.208 78.5314 18.7918 77.877 17.9594C77.2397 17.1093 76.9126 15.7279 76.8954 13.8154H84.5935C84.6452 13.6559 84.6796 13.4789 84.6968 13.284C84.714 13.0715 84.7226 12.8679 84.7226 12.6731C84.7226 11.6459 84.5074 10.7339 84.0768 9.93693C83.6634 9.12223 83.0608 8.4847 82.2686 8.02435C81.4764 7.54625 80.5206 7.30711 79.4011 7.30711C78.2816 7.30711 77.3086 7.57271 76.327 8.10407C75.3627 8.63543 74.5705 9.41463 73.9504 10.4417C73.3304 11.4511 73.0205 12.682 73.0205 14.1342C73.0205 15.5864 73.2874 16.7376 73.8213 17.747C74.3552 18.7565 75.0958 19.5357 76.0429 20.0846C76.9901 20.616 78.0752 20.8816 79.2978 20.8816C80.5204 20.8816 81.5969 20.6071 82.4752 20.058C82.5144 20.0339 82.5532 20.0094 82.5919 19.9843C82.6016 19.9781 82.6114 19.9717 82.621 19.9655C82.6565 19.9424 82.6916 19.919 82.7264 19.8952C82.7295 19.8931 82.7326 19.8911 82.7355 19.889C82.7744 19.8622 82.813 19.835 82.8511 19.8073C82.8573 19.8029 82.8634 19.7983 82.8696 19.7938C82.9058 19.7674 82.9418 19.7406 82.9773 19.7134C82.9792 19.712 82.981 19.7106 82.9828 19.7091C83.0224 19.6788 83.0615 19.6479 83.1002 19.6165C83.1012 19.6156 83.1023 19.6149 83.1031 19.614C83.1419 19.5826 83.1801 19.5508 83.218 19.5185C83.2183 19.5183 83.2187 19.5179 83.2188 19.5178C83.2541 19.4876 83.2891 19.4567 83.3237 19.4256C83.3294 19.4206 83.3349 19.4155 83.3406 19.4105C83.3757 19.3788 83.4105 19.3466 83.4447 19.3141C83.4449 19.314 83.4451 19.3138 83.4454 19.3136C83.4816 19.2717 83.5251 19.2259 83.5766 19.1755C83.6338 19.1196 83.6878 19.0638 83.7393 19.0084C83.74 19.0079 83.7405 19.0073 83.7412 19.0066C83.7667 18.9793 83.8123 18.9282 83.8123 18.9282C84.2171 18.4739 84.4413 18.0497 84.5649 17.7236C84.6634 17.464 84.6984 17.2668 84.7108 17.1663C84.7166 17.1184 84.7175 17.0925 84.7175 17.0925C84.686 17.1601 84.5537 17.3304 84.3655 17.539C84.3158 17.5942 84.2619 17.6522 84.2051 17.7115L84.2054 17.7113ZM76.8377 12.7457C76.8377 11.473 76.9112 10.4781 77.0584 9.76082C77.2153 9.03346 77.4607 8.5234 77.794 8.23047C78.1275 7.92742 78.559 7.77598 79.0886 7.77598C79.6182 7.77598 80.0645 7.92742 80.398 8.23047C80.7315 8.5234 80.9717 9.03346 81.1189 9.76082C81.2758 10.4781 81.3543 11.473 81.3543 12.7457C81.3543 12.93 81.3526 13.1081 81.3491 13.2808H76.8425C76.8394 13.1081 76.8377 12.9298 76.8377 12.7457Z" fill="black"/>
<g clip-path="url(#clip0_285_36640)">
<path d="M21.7186 22.9081C33.7133 22.9081 43.4371 20.1424 43.4371 16.7309C43.4371 13.3194 33.7133 10.5536 21.7186 10.5536C9.72384 10.5536 0 13.3192 0 16.7309C0 20.1426 9.72369 22.9081 21.7186 22.9081Z" fill="#B0B8C1"/>
<mask id="mask0_285_36640" style="mask-type:luminance" maskUnits="userSpaceOnUse" x="0" y="-10" width="44" height="33">
<path d="M43.37 16.2423V-9.92508H0V17.2197H0.0671332C0.94307 20.4027 10.3021 22.9082 21.7186 22.9082C33.7133 22.9082 43.4371 20.1425 43.4371 16.731C43.4371 16.5665 43.4144 16.4034 43.37 16.2423Z" fill="white"/>
</mask>
<g mask="url(#mask0_285_36640)">
<path d="M36.8923 34.9829V8.62748C36.8923 4.42212 33.5038 1.01659 29.3193 1.01659C25.1348 1.01659 21.7463 4.42622 21.7463 8.62748V8.58709C21.7463 4.38173 18.3537 0.976196 14.1733 0.976196C9.99279 0.976196 6.6003 4.38583 6.6003 8.58709V34.777C3.52135 36.7887 0.884363 39.4024 -1.14551 42.4444C4.26083 44.3269 12.4811 45.5307 21.6941 45.5307C30.9071 45.5307 38.9664 44.3512 44.3729 42.501C42.4072 39.5357 39.8627 36.9786 36.8963 34.9829H36.8923Z" fill="black"/>
<path d="M16.1956 9.38293C15.1223 9.38293 14.25 10.2555 14.25 11.3382V31.2826C15.5081 30.9393 16.8063 30.6806 18.1369 30.515V11.3382C18.1369 10.2596 17.2646 9.38293 16.1913 9.38293H16.1956Z" fill="white"/>
<path d="M27.0247 9.38293C25.9514 9.38293 25.0791 10.2555 25.0791 11.3382V30.4908C26.4097 30.6483 27.7079 30.8948 28.9661 31.2261V11.3384C28.9661 10.2597 28.0978 9.38308 27.0206 9.38308H27.0245L27.0247 9.38293Z" fill="white"/>
</g>
</g>
<defs>
<clipPath id="clip0_285_36640">
<rect width="43.5319" height="22" fill="white" transform="translate(0 1)"/>
</clipPath>
</defs>
</svg>
