<svg width="114" height="19" viewBox="0 0 114 19" fill="none" xmlns="http://www.w3.org/2000/svg">
<path d="M105.547 15.4226C105.321 15.1741 105.173 14.8664 105.159 14.3986V4.07468C105.173 3.60688 105.321 3.2992 105.547 3.05068C105.556 3.04116 105.564 3.03176 105.573 3.02236C105.732 2.85562 105.926 2.71469 106.138 2.56714H101.672C101.885 2.71469 102.079 2.85562 102.237 3.02236C102.246 3.03176 102.255 3.04116 102.264 3.05068C102.49 3.2992 102.637 3.60688 102.652 4.07468V14.3986C102.637 14.8664 102.49 15.1741 102.264 15.4226C102.255 15.4323 102.246 15.4418 102.237 15.4513C102.078 15.6178 101.884 15.759 101.672 15.9064H106.138C105.926 15.759 105.732 15.6179 105.573 15.4513C105.564 15.4418 105.556 15.4323 105.547 15.4226H105.547Z" fill="black"/>
<path d="M113.049 15.6245C112.977 15.6001 112.908 15.5738 112.843 15.5454C112.842 15.5448 112.841 15.5443 112.84 15.5439C112.84 15.5439 112.84 15.5439 112.84 15.5439C112.617 15.4465 112.437 15.3253 112.298 15.1798C112.131 14.9913 111.951 14.7487 111.759 14.4523L107.232 7.51988L109.584 4.99709L110.388 4.13428L110.68 3.82131C110.84 3.65378 110.985 3.51165 111.118 3.39453C111.197 3.32638 111.38 3.17989 111.628 3.05761C111.671 3.0375 111.724 3.01355 111.785 2.98708C111.806 2.97888 111.824 2.97094 111.841 2.96326C111.934 2.92356 112.042 2.87949 112.162 2.83424C112.177 2.82894 112.192 2.82365 112.207 2.81849C112.214 2.81611 112.22 2.81359 112.223 2.81121C112.459 2.72427 112.733 2.63547 113.019 2.56812H108.809L109.114 2.66776C109.135 2.67517 109.156 2.68298 109.177 2.69092C109.401 2.78673 109.617 2.91562 109.763 3.04571C109.846 3.12537 109.905 3.22052 109.918 3.38038C109.931 3.5401 109.902 3.69123 109.849 3.83322C109.827 3.88655 109.799 3.94345 109.767 4.00433C109.645 4.21447 109.399 4.50375 109.206 4.71826L108.932 5.01072L105.151 9.05574L107.972 13.2634L108.67 14.3041C108.747 14.4311 108.805 14.5424 108.847 14.642C108.9 14.784 108.929 14.9352 108.916 15.0949C108.903 15.2547 108.844 15.3499 108.761 15.4296C108.615 15.5596 108.399 15.6885 108.175 15.7843C108.154 15.7923 108.133 15.8001 108.113 15.8075L107.807 15.9071H113.959C113.728 15.8659 113.33 15.7269 113.062 15.6279L113.05 15.6242L113.049 15.6245Z" fill="black"/>
<path d="M82.2181 15.9075C81.4703 15.9112 80.7464 15.7742 80.0464 15.4964C79.3586 15.2186 78.7377 14.8064 78.1835 14.2597C77.6416 13.7001 77.2095 13.0058 76.8869 12.1768C76.5645 11.3478 76.4007 10.3774 76.3956 9.26574C76.3907 8.16688 76.5457 7.20128 76.8607 6.36923C77.1756 5.53704 77.6077 4.84501 78.1569 4.29273C78.706 3.72775 79.3233 3.30305 80.0085 3.01864C80.706 2.72139 81.4225 2.57092 82.158 2.56721C82.9058 2.56351 83.6236 2.70062 84.3114 2.97828C85.0114 3.24323 85.6323 3.65549 86.1743 4.21504C86.7283 4.76176 87.1668 5.45605 87.4892 6.2979C87.8117 7.12691 87.9754 8.09726 87.9805 9.20896C87.9854 10.2951 87.8303 11.2606 87.5155 12.1055C87.2005 12.9377 86.7684 13.6362 86.2193 14.201C85.6824 14.7532 85.0653 15.1779 84.3678 15.4751C83.6826 15.7597 82.966 15.9037 82.2182 15.9074L82.2181 15.9075ZM82.2163 15.505C82.8906 15.5017 83.4353 15.3138 83.8504 14.9411C84.2655 14.5557 84.5628 13.9089 84.7427 13.0008C84.9347 12.0798 85.0271 10.8207 85.0199 9.22339C85.0127 7.61341 84.9089 6.3552 84.7087 5.4489C84.5206 4.52976 84.2174 3.8859 83.799 3.51745C83.3805 3.13616 82.8341 2.94718 82.1599 2.95048C81.4979 2.95379 80.9594 3.14808 80.5444 3.53347C80.1293 3.90602 79.8257 4.55292 79.6337 5.47391C79.4538 6.38207 79.3676 7.6412 79.3749 9.25118C79.3821 10.8485 79.4797 12.1065 79.6677 13.0258C79.8679 13.9321 80.1773 14.5758 80.5958 14.9571C81.0144 15.3256 81.5546 15.5082 82.2166 15.505H82.2163Z" fill="black"/>
<path d="M94.8567 15.9075C94.1089 15.9112 93.385 15.7742 92.685 15.4964C91.9973 15.2186 91.3763 14.8064 90.8222 14.2597C90.2802 13.7001 89.8481 13.0058 89.5256 12.1768C89.2031 11.3478 89.0394 10.3774 89.0343 9.26574C89.0294 8.16688 89.1844 7.20128 89.4993 6.36923C89.8143 5.53704 90.2464 4.84501 90.7956 4.29273C91.3447 3.72775 91.9619 3.30305 92.6471 3.01864C93.3447 2.72139 94.0611 2.57092 94.7968 2.56721C95.5446 2.56351 96.2623 2.70062 96.9501 2.97828C97.6501 3.24323 98.271 3.65549 98.813 4.21504C99.367 4.76176 99.8055 5.45605 100.128 6.2979C100.45 7.12691 100.614 8.09726 100.619 9.20896C100.624 10.2951 100.469 11.2606 100.154 12.1055C99.8392 12.9377 99.4071 13.6362 98.858 14.201C98.3211 14.7532 97.704 15.1779 97.0065 15.4751C96.3213 15.7597 95.6048 15.9037 94.857 15.9074L94.8567 15.9075ZM94.8549 15.505C95.5292 15.5017 96.0739 15.3138 96.489 14.9411C96.9041 14.5557 97.2014 13.9089 97.3813 13.0008C97.5733 12.0798 97.6657 10.8207 97.6585 9.22339C97.6512 7.61341 97.5474 6.3552 97.3473 5.4489C97.1592 4.52976 96.856 3.8859 96.4376 3.51745C96.0191 3.13616 95.4727 2.94718 94.7985 2.95048C94.1365 2.95379 93.598 3.14808 93.183 3.53347C92.7679 3.90602 92.4643 4.55292 92.2723 5.47391C92.0925 6.38207 92.0063 7.6412 92.0135 9.25118C92.0207 10.8485 92.1183 12.1065 92.3063 13.0258C92.5065 13.9321 92.8159 14.5758 93.2345 14.9571C93.653 15.3256 94.1932 15.5082 94.8552 15.505H94.8549Z" fill="black"/>
<path d="M74.3542 9.96491C73.6952 9.34501 72.655 8.95433 71.2337 8.79261C72.4742 8.56352 73.3464 8.17271 73.8504 7.6203C74.3672 7.0544 74.6256 6.42775 74.6256 5.74049C74.6256 4.82414 74.2767 4.06964 73.5789 3.47674C72.8811 2.87034 71.744 2.56714 70.1676 2.56714H64.9868C65.2126 2.72291 65.4179 2.87153 65.5818 3.05072C65.8216 3.31277 65.9734 3.64058 65.9736 4.15262L65.9742 10.9766L65.9736 14.3212C65.9736 14.8096 65.8353 15.1304 65.6143 15.3865C65.5931 15.4111 65.5711 15.4351 65.5484 15.4587C65.3903 15.6222 65.1975 15.7613 64.9868 15.9068H64.9871C64.9871 15.9068 64.9866 15.9072 64.9863 15.9073L67.263 15.9068L67.2666 15.9065L67.5902 15.9073V15.9068H67.5907V15.9076H69.528C70.678 15.9076 71.6278 15.7997 72.3772 15.5841C73.1267 15.355 73.7145 15.0586 74.141 14.6948C74.5803 14.3309 74.8905 13.9335 75.0713 13.5022C75.2522 13.0575 75.3427 12.6196 75.3427 12.1884C75.3427 11.3126 75.0132 10.5713 74.3542 9.96491ZM68.5008 2.97145H69.5475C70.3357 2.97145 70.9042 3.20054 71.2531 3.65871C71.6021 4.11689 71.7764 4.88488 71.7764 5.96296C71.7764 7.04103 71.5826 7.72817 71.1949 8.14598C70.8202 8.56365 70.2 8.77262 69.3342 8.77262H68.5008V2.97145ZM71.6213 14.6946C71.1561 15.2337 70.439 15.5031 69.4698 15.5031H68.5008V9.17654H69.4311C70.4648 9.17654 71.2078 9.40563 71.66 9.8638C72.1123 10.322 72.3385 11.0901 72.3385 12.168C72.3385 13.3135 72.0994 14.1556 71.6213 14.6946Z" fill="black"/>
<path d="M46.5651 14.5566L46.5653 12.9122L46.5656 8.18841C46.5656 7.53323 46.3879 7.098 46.1006 6.75064C46.0634 6.70204 46.0244 6.65491 45.9834 6.60911C45.8539 6.45134 45.7066 6.32406 45.5454 6.22274C45.5451 6.22261 45.5449 6.22234 45.5445 6.22221C45.485 6.18093 45.4237 6.14179 45.3603 6.10531C45.3554 6.10185 45.3508 6.09852 45.346 6.09506C45.2062 6.00932 45.0528 5.93636 44.8854 5.87897C44.8847 5.87871 44.8841 5.87844 44.8835 5.87818C44.3392 5.67101 43.755 5.71668 43.3825 5.78378C43.2642 5.80309 43.1486 5.83025 43.0361 5.86473C43.027 5.86739 43.0193 5.86979 43.013 5.87179C43.0123 5.87205 43.0116 5.87218 43.0109 5.87245C42.9991 5.87618 42.993 5.87818 42.993 5.87818C42.9054 5.9068 42.82 5.93969 42.737 5.9767C42.737 5.9767 42.7367 5.9767 42.7366 5.9767C41.2721 6.47491 40.3555 7.96047 40.3555 7.96047L40.3558 5.75023L36.9014 6.7324L37.9218 7.96194L37.9207 14.3663C37.9207 15.2038 37.5077 15.5348 36.9697 15.9074H39.1716H41.3109C41.3073 15.9049 41.3038 15.9099 41.3002 15.9074C40.7675 15.5374 40.3602 15.2014 40.3602 14.3687V12.3354H40.3605V9.36482C40.3605 9.36482 40.3606 9.36456 40.3606 9.36442V8.85211C40.3606 8.19946 40.8011 7.62616 41.4168 7.3708C41.4614 7.35229 41.5069 7.33538 41.5532 7.32034C41.5532 7.32034 41.5575 7.31874 41.5658 7.31621C41.5663 7.31608 41.5668 7.31595 41.5673 7.31568C41.5718 7.31435 41.5771 7.31262 41.5836 7.31075C41.6628 7.28652 41.7443 7.26735 41.8277 7.25377C42.0902 7.20651 42.5017 7.17429 42.8852 7.32021C42.8857 7.32034 42.8861 7.32061 42.8866 7.32074C43.0046 7.36121 43.1127 7.41247 43.2111 7.47292C43.2146 7.47531 43.2179 7.47771 43.2212 7.48011C43.4259 7.59793 43.6038 7.75317 43.7428 7.93478C43.9451 8.17949 44.0704 8.48611 44.0704 8.9477L44.0702 12.2759L44.0698 14.3625C44.0698 15.0987 43.7511 15.4408 43.309 15.7659C43.2478 15.8109 43.1843 15.862 43.1187 15.9073H43.1819C43.1819 15.9073 43.1813 15.907 43.1811 15.9073H47.4992C47.2057 15.7033 46.6382 15.1605 46.5651 14.5566Z" fill="black"/>
<path d="M52.8181 14.5614L52.8184 12.917L52.8186 8.19326C52.8186 7.53808 52.6409 7.10285 52.3536 6.75549C52.3165 6.70689 52.2774 6.65976 52.2364 6.61396C52.1069 6.45619 51.9596 6.32891 51.7984 6.22759C51.7982 6.22746 51.7979 6.22719 51.7975 6.22706C51.7381 6.18579 51.6767 6.14665 51.6133 6.11017C51.6085 6.1067 51.6039 6.10337 51.599 6.09991C51.4592 6.01417 51.3058 5.94121 51.1384 5.88383C51.1378 5.88356 51.1371 5.8833 51.1365 5.88303C50.874 5.78304 50.6023 5.74204 50.3494 5.73378L50.3498 5.73351C50.3434 5.73338 50.3371 5.73351 50.3307 5.73325C50.2162 5.73019 50.1058 5.73391 50.0022 5.74164L49.9955 5.74749C49.142 5.83883 48.4894 6.33437 48.0735 6.76454C47.7292 7.12056 47.5469 7.4317 47.5469 7.4317C47.5657 7.42172 47.5848 7.41227 47.6039 7.40321C47.6053 7.40255 47.6067 7.40188 47.6081 7.40122C47.6259 7.39283 47.6439 7.38471 47.662 7.37698C47.6639 7.37619 47.6659 7.37525 47.668 7.37445C47.6855 7.367 47.7032 7.35994 47.7208 7.35315C47.7228 7.35235 47.725 7.35155 47.727 7.35076C47.7449 7.34397 47.7628 7.33758 47.7806 7.33145C47.7823 7.33092 47.7839 7.33025 47.7856 7.32972C47.8043 7.32333 47.8232 7.31734 47.8419 7.31161C47.8425 7.31135 47.8431 7.31121 47.8439 7.31095C47.8633 7.30509 47.8826 7.29963 47.9018 7.29444C47.9027 7.29417 47.9037 7.29391 47.9046 7.29364C47.9231 7.28871 47.9414 7.28405 47.9596 7.27979C47.9614 7.27939 47.9632 7.27899 47.9649 7.27859C47.9824 7.27447 47.9999 7.27061 48.0173 7.26701C48.0194 7.26661 48.0214 7.26621 48.0233 7.26581C48.0406 7.26222 48.0578 7.25902 48.0749 7.25596C48.0766 7.25569 48.0784 7.2553 48.0801 7.25503C48.0978 7.25197 48.1154 7.24904 48.1327 7.24637C48.1337 7.24624 48.1346 7.24611 48.1356 7.24598C48.1539 7.24318 48.1721 7.24065 48.19 7.23839C48.1902 7.23839 48.1905 7.23839 48.1909 7.23839C48.2085 7.23612 48.226 7.23413 48.2432 7.2324C48.2445 7.2324 48.2457 7.23213 48.247 7.232C48.2573 7.23093 48.2675 7.23013 48.2777 7.2292L48.2755 7.23106C48.3314 7.22534 48.3909 7.22134 48.4526 7.21975C48.4595 7.21961 48.4664 7.21948 48.4734 7.21948C48.5533 7.21855 48.6221 7.22161 48.6747 7.22534C48.6859 7.22627 48.6969 7.22694 48.7083 7.228C48.8493 7.24145 48.9955 7.27087 49.138 7.32506C49.1385 7.32519 49.1389 7.32546 49.1394 7.32559C49.2574 7.36607 49.3655 7.41733 49.4639 7.47777C49.4673 7.48017 49.4707 7.48256 49.474 7.48496C49.6787 7.60279 49.8566 7.75803 49.9956 7.93963C50.1979 8.18434 50.3232 8.49096 50.3232 8.95255L50.3229 12.2808L50.3225 14.3673C50.3225 15.1036 50.0039 15.4456 49.5618 15.7707C49.5006 15.8157 49.437 15.8617 49.3715 15.9071H49.4346C49.4346 15.9071 49.4341 15.9068 49.4339 15.9071H53.752C53.4585 15.7031 52.8909 15.1654 52.8179 14.5614H52.8181Z" fill="black"/>
<path d="M63.1943 13.5305C62.9673 13.7801 62.7297 13.989 62.4814 14.1569C62.3849 14.2222 62.2869 14.2812 62.1874 14.334C62.1104 14.3749 62.0288 14.4118 61.9426 14.4448C61.9171 14.4547 61.8911 14.4641 61.8648 14.4732C61.8437 14.4805 61.8223 14.4876 61.8007 14.4944C61.7997 14.4948 61.7985 14.495 61.7975 14.4954C61.7761 14.5022 61.7542 14.5087 61.7323 14.5151C61.7319 14.5151 61.7315 14.5154 61.731 14.5155C61.6861 14.5284 61.6401 14.5404 61.5931 14.5516C61.5926 14.5516 61.592 14.5519 61.5915 14.552C61.3059 14.6192 60.9814 14.6529 60.618 14.6529C59.6621 14.6529 58.9389 14.3408 58.448 13.7165C57.9701 13.079 57.7247 12.0429 57.7118 10.6085H63.4854C63.5241 10.4889 63.55 10.3562 63.5629 10.21C63.5758 10.0506 63.5823 9.89785 63.5823 9.75178C63.5823 8.98137 63.4208 8.29737 63.0979 7.69966C62.7878 7.08863 62.3359 6.61048 61.7417 6.26522C61.1476 5.90665 60.4307 5.72729 59.5911 5.72729C58.7515 5.72729 58.0217 5.92649 57.2856 6.32501C56.5623 6.72353 55.9681 7.30793 55.5031 8.07821C55.0381 8.8353 54.8057 9.75844 54.8057 10.8476C54.8057 11.9368 55.0058 12.8001 55.4063 13.5572C55.8067 14.3143 56.3621 14.8987 57.0725 15.3104C57.7828 15.709 58.5967 15.9081 59.5136 15.9081C60.4306 15.9081 61.238 15.7023 61.8967 15.2905C61.9261 15.2724 61.9552 15.254 61.9842 15.2352C61.9915 15.2305 61.9988 15.2257 62.006 15.2211C62.0326 15.2038 62.059 15.1862 62.0851 15.1684C62.0874 15.1668 62.0897 15.1653 62.0919 15.1637C62.1211 15.1436 62.15 15.1232 62.1786 15.1024C62.1832 15.0991 62.1879 15.0957 62.1925 15.0923C62.2196 15.0725 62.2466 15.0524 62.2732 15.032C62.2746 15.0309 62.2761 15.0299 62.2774 15.0288C62.3071 15.006 62.3364 14.9829 62.3654 14.9593C62.3662 14.9586 62.367 14.9581 62.3676 14.9574C62.3967 14.9339 62.4253 14.91 62.4538 14.8858C62.454 14.8857 62.4543 14.8854 62.4544 14.8853C62.4809 14.8626 62.5071 14.8395 62.533 14.8162C62.5373 14.8124 62.5414 14.8086 62.5457 14.8049C62.572 14.781 62.5981 14.7569 62.6238 14.7326C62.624 14.7324 62.6241 14.7323 62.6243 14.7322C62.6515 14.7007 62.6841 14.6664 62.7227 14.6286C62.7656 14.5866 62.8062 14.5448 62.8448 14.5033C62.8453 14.5029 62.8457 14.5025 62.8462 14.5019C62.8653 14.4814 62.8995 14.4431 62.8995 14.4431C63.2031 14.1024 63.3713 13.7843 63.464 13.5397C63.5378 13.345 63.564 13.1971 63.5733 13.1217C63.5777 13.0857 63.5784 13.0663 63.5784 13.0663C63.5548 13.117 63.4556 13.2447 63.3144 13.4012C63.2771 13.4426 63.2367 13.4861 63.1941 13.5306L63.1943 13.5305ZM57.6686 9.80624C57.6686 8.85168 57.7237 8.1055 57.8341 7.56757C57.9518 7.02205 58.1358 6.63951 58.3858 6.41981C58.6359 6.19252 58.9595 6.07895 59.3567 6.07895C59.754 6.07895 60.0887 6.19252 60.3388 6.41981C60.5889 6.63951 60.7691 7.02205 60.8795 7.56757C60.9971 8.1055 61.056 8.85168 61.056 9.80624C61.056 9.94445 61.0547 10.078 61.0521 10.2076H57.6722C57.6699 10.078 57.6686 9.94432 57.6686 9.80624Z" fill="black"/>
<g clip-path="url(#clip0_6221_288546)">
<path d="M16.329 17.4319C25.325 17.4319 32.6179 15.3577 32.6179 12.799C32.6179 10.2404 25.325 8.16602 16.329 8.16602C7.33292 8.16602 0.0400391 10.2403 0.0400391 12.799C0.0400391 15.3578 7.33281 17.4319 16.329 17.4319Z" fill="#B0B8C1"/>
<mask id="mask0_6221_288546" style="mask-type:luminance" maskUnits="userSpaceOnUse" x="0" y="-8" width="33" height="26">
<path d="M32.5675 12.4324V-7.19312H0.0400391V13.1654H0.0903889C0.747341 15.5527 7.76663 17.4318 16.329 17.4318C25.325 17.4318 32.6179 15.3576 32.6179 12.7989C32.6179 12.6755 32.6008 12.5533 32.5675 12.4324Z" fill="white"/>
</mask>
<g mask="url(#mask0_6221_288546)">
<path d="M27.709 26.4867V6.72015C27.709 3.56613 25.1677 1.01199 22.0293 1.01199C18.8909 1.01199 16.3496 3.56921 16.3496 6.72015V6.68986C16.3496 3.53584 13.8051 0.981689 10.6697 0.981689C7.53438 0.981689 4.99002 3.53891 4.99002 6.68986V26.3323C2.6808 27.841 0.703067 29.8013 -0.819336 32.0828C3.23542 33.4948 9.40061 34.3976 16.3103 34.3976C23.2201 34.3976 29.2646 33.513 33.3194 32.1253C31.8452 29.9013 29.9368 27.9835 27.712 26.4867H27.709Z" fill="black"/>
<path d="M12.1867 7.28931C11.3818 7.28931 10.7275 7.94373 10.7275 8.75578V23.7141C11.6711 23.4565 12.6448 23.2626 13.6427 23.1383V8.75578C13.6427 7.94681 12.9885 7.28931 12.1835 7.28931H12.1867Z" fill="white"/>
<path d="M20.3078 7.28833C19.5029 7.28833 18.8486 7.94276 18.8486 8.75481V23.1192C19.8466 23.2374 20.8203 23.4222 21.7639 23.6707V8.75492C21.7639 7.94594 21.1126 7.28844 20.3047 7.28844H20.3077L20.3078 7.28833Z" fill="white"/>
</g>
</g>
<defs>
<clipPath id="clip0_6221_288546">
<rect width="32.6489" height="16.5" fill="white" transform="translate(0.0400391 1)"/>
</clipPath>
</defs>
</svg>
